<?xml version="1.0" encoding="UTF-8" standalone="no"?>
<svg width="296px" height="31px" viewBox="0 0 296 31" version="1.1" xmlns="http://www.w3.org/2000/svg" xmlns:xlink="http://www.w3.org/1999/xlink">
    <!-- Generator: Sketch 39.1 (31720) - http://www.bohemiancoding.com/sketch -->
    <title>Group 2</title>
    <desc>Created with Sketch.</desc>
    <defs></defs>
    <g id="Page-1" stroke="none" stroke-width="1" fill="none" fill-rule="evenodd">
        <g id="Group-2">
            <path d="M132.511102,20.8537 C132.511102,19.4026362 132.089603,18.2282638 131.2456,17.3309128 C130.401597,16.4335617 129.216109,15.9847213 127.689137,15.9847213 C126.16183,15.9847213 124.976342,16.4335617 124.132674,17.3309128 C123.288671,18.2282638 122.867172,19.4026362 122.867172,20.8537 C122.867172,22.3054234 123.288671,23.4801255 124.132674,24.3764872 C124.976342,25.2741681 126.16183,25.7226787 127.689137,25.7226787 C129.216109,25.7226787 130.401597,25.2741681 131.2456,24.3764872 C132.089603,23.4801255 132.511102,22.3054234 132.511102,20.8537 L132.511102,20.8537 Z M138.726793,30.4726043 L133.181349,30.4726043 L133.181349,27.9391787 L133.101335,27.9391787 C132.859952,28.282817 132.544916,28.6317319 132.156895,28.9885617 C131.768205,29.3444021 131.312892,29.6679234 130.790287,29.9578064 C130.268351,30.2486787 129.691509,30.4857957 129.062441,30.6704766 C128.432703,30.8548277 127.783213,30.9478277 127.113635,30.9478277 C125.667012,30.9478277 124.353969,30.7031255 123.175512,30.2153702 C121.996386,29.7272851 120.985323,29.0416574 120.14132,28.1571681 C119.297317,27.2733383 118.647827,26.2239553 118.192514,25.0100085 C117.736866,23.7963915 117.50921,22.4633915 117.50921,21.0119979 C117.50921,19.666466 117.716779,18.3796362 118.132252,17.1524979 C118.54739,15.9253596 119.136953,14.8370617 119.900607,13.8866149 C120.663926,12.9368277 121.594639,12.178317 122.693416,11.6107532 C123.791524,11.0438489 125.037274,10.7599021 126.43033,10.7599021 C127.689137,10.7599021 128.861568,10.9515085 129.946619,11.3337319 C131.03167,11.7162851 131.921873,12.3699234 132.618904,13.2929979 L132.699253,13.2929979 L132.699253,0.426348936 L138.726793,0.426348936 L138.726793,30.4726043 Z" id="Fill-19" fill="#FFFFFF"></path>
            <path d="M108.200437,30.4729011 L114.227977,30.4729011 L114.227977,11.2347628 L108.200437,11.2347628 L108.200437,30.4729011 Z M107.732067,3.84456064 C107.732067,2.8947734 108.073886,2.08316702 108.756856,1.41007128 C109.439825,0.737305319 110.263741,0.40092234 111.227933,0.40092234 C112.192795,0.40092234 113.016041,0.737305319 113.699345,1.41007128 C114.382649,2.08316702 114.724134,2.8947734 114.724134,3.84456064 C114.724134,4.79467766 114.382649,5.60595426 113.699345,6.27905 C113.016041,6.95181596 112.192795,7.28852872 111.227933,7.28852872 C110.263741,7.28852872 109.439825,6.95181596 108.756856,6.27905 C108.073886,5.60595426 107.732067,4.79467766 107.732067,3.84456064 L107.732067,3.84456064 Z" id="Fill-17" fill="#FFFFFF"></path>
            <path d="M100.967288,17.4493064 C100.672004,17.0278383 100.257201,16.677934 99.7212038,16.400583 C99.1852067,16.1232319 98.6097045,15.9847213 97.9936929,15.9847213 C96.4663857,15.9847213 95.2808981,16.4335617 94.43723,17.3309128 C93.5932271,18.2282638 93.1710582,19.4026362 93.1710582,20.8537 C93.1710582,22.3054234 93.5932271,23.4801255 94.43723,24.3764872 C95.2808981,25.2741681 96.4663857,25.7226787 97.9936929,25.7226787 C98.6626012,25.7226787 99.2394425,25.5779021 99.7212038,25.2873596 C100.203635,24.996817 100.618438,24.6538383 100.967288,24.2580936 L104.945585,28.3748277 C104.007172,29.3246149 102.902368,29.9914447 101.63017,30.3736681 C100.357638,30.7558915 99.145032,30.9478277 97.9936929,30.9478277 C96.4924993,30.9478277 95.0800247,30.7103809 93.7539258,30.2351574 C92.4278268,29.759934 91.275818,29.0809021 90.2978996,28.1964128 C89.3199811,27.3129128 88.5499665,26.2506681 87.9875211,25.0100085 C87.4247409,23.7700085 87.143853,22.3845723 87.143853,20.8537 C87.143853,19.323817 87.4247409,17.9380511 87.9875211,16.6973915 C88.5499665,15.4573915 89.3199811,14.3954766 90.2978996,13.5109872 C91.275818,12.6268277 92.4278268,11.947466 93.7539258,11.4722426 C95.0800247,10.9970191 96.4924993,10.7599021 97.9936929,10.7599021 C99.145032,10.7599021 100.357638,10.9515085 101.63017,11.3337319 C102.902368,11.7162851 104.007172,12.3827851 104.945585,13.3325723 L100.967288,17.4493064 Z" id="Fill-14" fill="#FFFFFF"></path>
            <path d="M84.156933,30.4726702 L78.3707758,30.4726702 L78.3707758,27.8604255 L78.2900917,27.8604255 C78.075492,28.230117 77.8012999,28.5991489 77.4661761,28.9685106 C77.1310524,29.3385319 76.7229447,29.6679894 76.2408486,29.9578723 C75.7584178,30.2487447 75.2090291,30.4858617 74.5930175,30.6705426 C73.976671,30.8548936 73.3070932,30.9478936 72.5839491,30.9478936 C71.0569767,30.9478936 69.8172533,30.716383 68.8667875,30.2553404 C67.9156521,29.7936383 67.1791164,29.1531915 66.6565109,28.3349894 C66.134575,27.517117 65.7857249,26.5538085 65.6116346,25.4453936 C65.4375444,24.3369787 65.3508341,23.1365532 65.3508341,21.8431277 L65.3508341,11.2345319 L71.3787089,11.2345319 L71.3787089,20.6558936 C71.3787089,21.2099362 71.3984614,21.783766 71.4386361,22.377383 C71.4791456,22.9713298 71.5993348,23.519766 71.8002082,24.020383 C72.0010815,24.5223191 72.3087525,24.9312553 72.7245604,25.2475213 C73.1396987,25.564117 73.7352882,25.7227447 74.5130029,25.7227447 C75.2893785,25.7227447 75.9191164,25.5839043 76.4015473,25.306883 C76.8839782,25.0298617 77.2515764,24.6605 77.5063508,24.1987979 C77.7607904,23.7370957 77.9285197,23.2157021 78.008869,22.6352766 C78.0892183,22.0551809 78.129393,21.447383 78.129393,20.8138617 L78.129393,11.2345319 L84.156933,11.2345319 L84.156933,30.4726702 Z" id="Fill-11" fill="#FFFFFF"></path>
            <polygon id="Fill-9" fill="#FFFFFF" points="44.7766812 0.468264894 51.0456041 0.468264894 51.0456041 24.7725947 62.6590975 24.7725947 62.6590975 30.4726372 44.7766812 30.4726372"></polygon>
            <path d="M8.19648706,15.4545662 C8.2172469,17.3128509 8.84361357,19.158722 10.2803974,20.5740404 C11.7487817,22.0188383 13.6748224,22.7832851 15.7012999,22.8363809 C16.7458413,22.8393489 17.7897132,23.2334447 18.5865109,24.0183383 C20.1871368,25.5947213 20.1871368,28.1489234 18.5865109,29.7262957 C16.9865546,31.305317 14.3929447,31.305317 12.7923188,29.7262957 C11.9737598,28.9189766 11.5760306,27.8547532 11.5941092,26.7984447 C11.5000335,24.8507213 10.7270058,22.9547745 9.28239156,21.5343809 C7.81902911,20.0902426 5.9492329,19.4903596 4.03022271,19.4903596 L4.0335706,19.4890404 C3.00543377,19.4725511 1.9846623,19.0817532 1.19991703,18.3100511 C0.774693017,17.890654 0.462481752,17.4023052 0.263283234,16.881637 C0.064109091,16.3610198 -0.0220854024,15.808071 0.00471823395,15.2594311 C0.051968475,14.2922725 0.450368074,13.338504 1.19991703,12.5987628 C1.2229099,12.5762004 1.24610538,12.5539616 1.26949775,12.5320464 C2.08636032,11.7656239 3.14515662,11.3946644 4.1960576,11.4191276 C6.0547156,11.3838698 7.86043351,10.7783984 9.28239156,9.37608191 C10.7270058,7.95403936 11.5000335,6.05842234 11.5941092,4.11102872 C11.5760306,3.05406064 11.9737598,1.9908266 12.7923188,1.18251809 C14.3929447,-0.394194681 16.9865546,-0.394194681 18.5865109,1.18251809 C20.1871368,2.76055 20.1871368,5.31409255 18.5865109,6.89047553 C17.7897132,7.67701809 16.7458413,8.07012447 15.7012999,8.0717734 C13.6748224,8.1261883 11.7487817,8.88997553 10.2803974,10.3347734 C8.84361357,11.7510695 8.2172469,13.5959861 8.19648706,15.4545662 Z M30.1790801,24.0182723 C28.5777846,22.4425489 25.9831703,22.4425489 24.3828792,24.0182723 C22.7805793,25.5939957 22.7805793,28.1491872 24.3828792,29.7265596 C25.9831703,31.3052511 28.5784541,31.3052511 30.1790801,29.7265596 C31.7787016,28.1491872 31.7787016,25.5949851 30.1790801,24.0182723 Z M30.1790801,6.89060745 C28.5777846,8.46732021 25.9831703,8.46732021 24.3828792,6.89060745 C22.7805793,5.31488404 22.7805793,2.76068191 24.3828792,1.18232021 C25.9831703,-0.394062766 28.5784541,-0.394062766 30.1790801,1.18232021 C31.7787016,2.76068191 31.7787016,5.31389468 30.1790801,6.89060745 Z" id="Combined-Shape" fill="#D2EDF9"></path>
            <path d="M151.854,0.972 L160.054,0.972 C161.530007,0.972 162.869327,1.1291651 164.072,1.4435 C165.274673,1.7578349 166.306496,2.23616345 167.1675,2.8785 C168.028504,3.52083655 168.691331,4.32716182 169.156,5.2975 C169.620669,6.26783819 169.853,7.40899344 169.853,8.721 C169.853,10.0330066 169.613836,11.1741618 169.1355,12.1445 C168.657164,13.1148382 167.987504,13.9211635 167.1265,14.5635 C166.265496,15.2058365 165.226839,15.6909984 164.0105,16.019 C162.794161,16.3470016 161.448007,16.511 159.972,16.511 L154.806,16.511 L154.806,30 L151.854,30 L151.854,0.972 Z M154.806,14.01 L159.808,14.01 C162.131345,14.01 163.894327,13.5590045 165.097,12.657 C166.299673,11.7549955 166.901,10.4430086 166.901,8.721 C166.901,6.91699098 166.279173,5.59817084 165.0355,4.7645 C163.791827,3.93082916 162.049345,3.514 159.808,3.514 L154.806,3.514 L154.806,14.01 Z M190.107,18.93 C190.025,17.125991 189.444172,15.6295059 188.3645,14.4405 C187.284828,13.2514941 185.747343,12.657 183.752,12.657 C182.822662,12.657 181.961671,12.8278316 181.169,13.1695 C180.376329,13.5111684 179.679336,13.9758304 179.078,14.5635 C178.476664,15.1511696 177.998335,15.8208296 177.643,16.5725 C177.287665,17.3241704 177.082667,18.1099959 177.028,18.93 L190.107,18.93 Z M192.936,19.832 L192.936,20.447 C192.936,20.6656678 192.922333,20.8979988 192.895,21.144 L176.987,21.144 C177.014333,22.1006714 177.205665,23.0026624 177.561,23.85 C177.916335,24.6973376 178.40833,25.4353302 179.037,26.064 C179.66567,26.6926698 180.403662,27.1914982 181.251,27.5605 C182.098338,27.9295018 183.013995,28.114 183.998,28.114 C185.446674,28.114 186.697161,27.77917 187.7495,27.1095 C188.801839,26.43983 189.601331,25.667671 190.148,24.793 L192.239,26.433 C191.090994,27.8816739 189.82684,28.9203302 188.4465,29.549 C187.06616,30.1776698 185.583341,30.492 183.998,30.492 C182.57666,30.492 181.257839,30.2391692 180.0415,29.7335 C178.825161,29.2278308 177.779671,28.5240045 176.905,27.622 C176.030329,26.7199955 175.340169,25.6540061 174.8345,24.424 C174.328831,23.1939938 174.076,21.8546739 174.076,20.406 C174.076,18.9573261 174.321998,17.6180061 174.814,16.388 C175.306002,15.1579939 175.989329,14.0920045 176.864,13.19 C177.738671,12.2879955 178.763661,11.5841692 179.939,11.0785 C181.114339,10.5728308 182.385327,10.32 183.752,10.32 C185.255341,10.32 186.580994,10.5728308 187.729,11.0785 C188.877006,11.5841692 189.833663,12.2674957 190.599,13.1285 C191.364337,13.9895043 191.945165,14.9939943 192.3415,16.142 C192.737835,17.2900057 192.936,18.5199934 192.936,19.832 L192.936,19.832 Z M198.922,15.035 C198.922,14.5156641 198.908333,13.8460041 198.881,13.026 C198.853667,12.2059959 198.812667,11.4680033 198.758,10.812 L201.423,10.812 C201.477667,11.3313359 201.518667,11.9053302 201.546,12.534 C201.573333,13.1626698 201.587,13.6819979 201.587,14.092 L201.669,14.092 C202.215669,12.9713277 203.035661,12.0625035 204.129,11.3655 C205.222339,10.6684965 206.452327,10.32 207.819,10.32 C208.174335,10.32 208.495499,10.3336665 208.7825,10.361 C209.069501,10.3883335 209.363332,10.4429996 209.664,10.525 L209.295,13.149 C209.130999,13.0943331 208.857669,13.0396669 208.475,12.985 C208.092331,12.9303331 207.709669,12.903 207.327,12.903 C206.588996,12.903 205.878337,13.0396653 205.195,13.313 C204.511663,13.5863347 203.917169,14.0168304 203.4115,14.6045 C202.905831,15.1921696 202.495835,15.9438288 202.1815,16.8595 C201.867165,17.7751712 201.71,18.8753269 201.71,20.16 L201.71,30 L198.922,30 L198.922,15.035 Z M223.891,15.363 C223.480998,14.5703294 222.859171,13.9211692 222.0255,13.4155 C221.191829,12.9098308 220.242005,12.657 219.176,12.657 C218.683998,12.657 218.192002,12.7116661 217.7,12.821 C217.207998,12.9303339 216.770669,13.1079988 216.388,13.354 C216.005331,13.6000012 215.697834,13.9143314 215.4655,14.297 C215.233166,14.6796686 215.117,15.1306641 215.117,15.65 C215.117,16.5520045 215.485996,17.2421643 216.224,17.7205 C216.962004,18.1988357 218.123659,18.6019984 219.709,18.93 C221.977678,19.394669 223.651828,20.0711622 224.7315,20.9595 C225.811172,21.8478378 226.351,23.0436591 226.351,24.547 C226.351,25.6403388 226.139169,26.5628296 225.7155,27.3145 C225.291831,28.0661704 224.738337,28.6811643 224.055,29.1595 C223.371663,29.6378357 222.599504,29.979499 221.7385,30.1845 C220.877496,30.389501 220.009671,30.492 219.135,30.492 C217.686326,30.492 216.278673,30.1913363 214.912,29.59 C213.545326,28.9886637 212.424671,28.0456731 211.55,26.761 L213.764,25.121 C214.256002,25.9683376 214.980329,26.6789971 215.937,27.253 C216.893671,27.8270029 217.945994,28.114 219.094,28.114 C219.695336,28.114 220.269331,28.0593339 220.816,27.95 C221.362669,27.8406661 221.840998,27.6493347 222.251,27.376 C222.661002,27.1026653 222.988999,26.7541688 223.235,26.3305 C223.481001,25.9068312 223.604,25.3806698 223.604,24.752 C223.604,23.7406616 223.118838,22.9821692 222.1485,22.4765 C221.178162,21.9708308 219.777342,21.4993355 217.946,21.062 C217.371997,20.9253326 216.763837,20.754501 216.1215,20.5495 C215.479163,20.344499 214.884669,20.0438353 214.338,19.6475 C213.791331,19.2511647 213.340335,18.7523363 212.985,18.151 C212.629665,17.5496637 212.452,16.7980045 212.452,15.896 C212.452,14.9119951 212.643331,14.0715035 213.026,13.3745 C213.408669,12.6774965 213.921163,12.1035023 214.5635,11.6525 C215.205837,11.2014977 215.936996,10.8666678 216.757,10.648 C217.577004,10.4293322 218.424329,10.32 219.299,10.32 C220.63834,10.32 221.93666,10.6206637 223.194,11.222 C224.45134,11.8233363 225.39433,12.6706612 226.023,13.764 L223.891,15.363 Z M250.951,20.406 C250.951,21.8546739 250.698169,23.1939938 250.1925,24.424 C249.686831,25.6540061 248.983005,26.7199955 248.081,27.622 C247.178995,28.5240045 246.09934,29.2278308 244.842,29.7335 C243.58466,30.2391692 242.204341,30.492 240.701,30.492 C239.224993,30.492 237.85834,30.2391692 236.601,29.7335 C235.34366,29.2278308 234.264005,28.5240045 233.362,27.622 C232.459995,26.7199955 231.756169,25.6540061 231.2505,24.424 C230.744831,23.1939938 230.492,21.8546739 230.492,20.406 C230.492,18.9573261 230.744831,17.6180061 231.2505,16.388 C231.756169,15.1579939 232.459995,14.0920045 233.362,13.19 C234.264005,12.2879955 235.34366,11.5841692 236.601,11.0785 C237.85834,10.5728308 239.224993,10.32 240.701,10.32 C242.204341,10.32 243.58466,10.5728308 244.842,11.0785 C246.09934,11.5841692 247.178995,12.2879955 248.081,13.19 C248.983005,14.0920045 249.686831,15.1579939 250.1925,16.388 C250.698169,17.6180061 250.951,18.9573261 250.951,20.406 L250.951,20.406 Z M247.999,20.406 C247.999,19.3399947 247.828168,18.3355047 247.4865,17.3925 C247.144832,16.4494953 246.65967,15.6295035 246.031,14.9325 C245.40233,14.2354965 244.637005,13.682002 243.735,13.272 C242.832995,12.8619979 241.821672,12.657 240.701,12.657 C239.580328,12.657 238.575838,12.8619979 237.6875,13.272 C236.799162,13.682002 236.04067,14.2354965 235.412,14.9325 C234.78333,15.6295035 234.298168,16.4494953 233.9565,17.3925 C233.614832,18.3355047 233.444,19.3399947 233.444,20.406 C233.444,21.4720053 233.614832,22.4764953 233.9565,23.4195 C234.298168,24.3625047 234.78333,25.1824965 235.412,25.8795 C236.04067,26.5765035 236.799162,27.1231647 237.6875,27.5195 C238.575838,27.9158353 239.580328,28.114 240.701,28.114 C241.821672,28.114 242.832995,27.9158353 243.735,27.5195 C244.637005,27.1231647 245.40233,26.5765035 246.031,25.8795 C246.65967,25.1824965 247.144832,24.3625047 247.4865,23.4195 C247.828168,22.4764953 247.999,21.4720053 247.999,20.406 L247.999,20.406 Z M259.438,10.812 C259.492667,11.3313359 259.533667,11.9053302 259.561,12.534 C259.588333,13.1626698 259.602,13.6819979 259.602,14.092 L259.684,14.092 C260.230669,12.9713277 261.118994,12.0625035 262.349,11.3655 C263.579006,10.6684965 264.877326,10.32 266.244,10.32 C268.676679,10.32 270.501161,11.0443261 271.7175,12.493 C272.933839,13.9416739 273.542,15.8549881 273.542,18.233 L273.542,30 L270.754,30 L270.754,19.381 C270.754,18.3696616 270.672001,17.4540041 270.508,16.634 C270.343999,15.8139959 270.063835,15.1101696 269.6675,14.5225 C269.271165,13.9348304 268.73817,13.4770016 268.0685,13.149 C267.39883,12.8209984 266.558338,12.657 265.547,12.657 C264.808996,12.657 264.091503,12.8073318 263.3945,13.108 C262.697497,13.4086682 262.075669,13.8664969 261.529,14.4815 C260.982331,15.0965031 260.545002,15.8754953 260.217,16.8185 C259.888998,17.7615047 259.725,18.8753269 259.725,20.16 L259.725,30 L256.937,30 L256.937,15.035 C256.937,14.5156641 256.923333,13.8460041 256.896,13.026 C256.868667,12.2059959 256.827667,11.4680033 256.773,10.812 L259.438,10.812 Z M292.853,17.618 C292.853,15.9506583 292.415671,14.7070041 291.541,13.887 C290.666329,13.0669959 289.395342,12.657 287.728,12.657 C286.579994,12.657 285.514005,12.8619979 284.53,13.272 C283.545995,13.682002 282.712337,14.2286633 282.029,14.912 L280.471,13.067 C281.263671,12.2743294 282.30916,11.6183359 283.6075,11.099 C284.90584,10.5796641 286.374992,10.32 288.015,10.32 C289.053672,10.32 290.023995,10.4634986 290.926,10.7505 C291.828005,11.0375014 292.620663,11.4679971 293.304,12.042 C293.987337,12.6160029 294.520331,13.340329 294.903,14.215 C295.285669,15.089671 295.477,16.1146608 295.477,17.29 L295.477,25.695 C295.477,26.4330037 295.504333,27.1983294 295.559,27.991 C295.613667,28.7836706 295.695666,29.4533306 295.805,30 L293.304,30 C293.222,29.535331 293.153667,29.0296694 293.099,28.483 C293.044333,27.9363306 293.017,27.4033359 293.017,26.884 L292.935,26.884 C292.060329,28.1686731 291.069506,29.0911639 289.9625,29.6515 C288.855494,30.2118361 287.523008,30.492 285.965,30.492 C285.226996,30.492 284.468504,30.389501 283.6895,30.1845 C282.910496,29.979499 282.199837,29.644669 281.5575,29.18 C280.915163,28.715331 280.382169,28.1140037 279.9585,27.376 C279.534831,26.6379963 279.323,25.7360053 279.323,24.67 C279.323,23.1939926 279.69883,22.0255043 280.4505,21.1645 C281.20217,20.3034957 282.20666,19.6611688 283.464,19.2375 C284.72134,18.8138312 286.163159,18.5405006 287.7895,18.4175 C289.415841,18.2944994 291.103658,18.233 292.853,18.233 L292.853,17.618 Z M292.033,20.406 C290.884994,20.406 289.730172,20.4538329 288.5685,20.5495 C287.406828,20.6451671 286.354505,20.8364986 285.4115,21.1235 C284.468495,21.4105014 283.696336,21.8273306 283.095,22.374 C282.493664,22.9206694 282.193,23.6449955 282.193,24.547 C282.193,25.2303367 282.322832,25.804331 282.5825,26.269 C282.842168,26.733669 283.190664,27.1094986 283.628,27.3965 C284.065336,27.6835014 284.550497,27.8884994 285.0835,28.0115 C285.616503,28.1345006 286.156331,28.196 286.703,28.196 C287.687005,28.196 288.561663,28.0251684 289.327,27.6835 C290.092337,27.3418316 290.734664,26.8771696 291.254,26.2895 C291.773336,25.7018304 292.169665,25.0253372 292.443,24.26 C292.716335,23.4946628 292.853,22.6883376 292.853,21.841 L292.853,20.406 L292.033,20.406 Z" id="Persona-Copy" fill="#FFFFFF"></path>
        </g>
    </g>
</svg>