<svg xmlns="http://www.w3.org/2000/svg" width="119" height="16"><g fill="none" fill-rule="evenodd"><path fill="#FFF" d="M118.5 7.56h-2.84v4.75c0 .32 0 .6.02.87.01.26.07.5.17.69.1.2.24.35.43.47.2.11.47.17.82.17a3.37 3.37 0 0 0 1.43-.33l.06 1.45c-.27.12-.58.2-.92.26-.33.06-.65.08-.96.08-.57 0-1.04-.07-1.38-.22a1.87 1.87 0 0 1-.8-.63c-.2-.27-.32-.6-.39-1-.06-.4-.09-.85-.09-1.34V7.56h-2.1V6.2h2.1v-2.7h1.61v2.7h2.85v1.35zM104.75 6.16h1.64v1.17c.11-.23.46-.96 1.77-1.27.7-.17 1.04-.16 1.2-.16a6 6 0 0 1 .52.03c.11.01.22.04.33.08l-.1 1.62a3.06 3.06 0 0 0-.87-.13c-1 0-1.72.32-2.17.95-.45.64-.67 1.5-.67 2.6v4.67h-1.65V6.16zM98.95 11.12c-1.04 0-1.86.14-2.47.43-.6.29-.9.76-.9 1.4 0 .6.2 1.03.6 1.29.41.25.92.37 1.53.37.47 0 .88-.07 1.23-.23a2.59 2.59 0 0 0 1.42-1.53c.13-.35.2-1.03.2-1.42v-.31h-1.6zm-4.69-3.74c.5-.5 1.1-.87 1.78-1.11a6.3 6.3 0 0 1 2.08-.36c1.44 0 2.48.33 3.11 1 .64.67.96 1.68.96 3.05v4.1a8.9 8.9 0 0 0 .14 1.66h-1.55a3.29 3.29 0 0 1-.1-.73v-.7h-.05c-.32.49-.74.89-1.27 1.2-.54.32-1.18.47-1.92.47-.5 0-.97-.06-1.4-.18a3.5 3.5 0 0 1-1.14-.54 2.51 2.51 0 0 1-1.07-2.11c0-.8.2-1.42.62-1.87.42-.45.93-.78 1.55-1a7.7 7.7 0 0 1 1.99-.4c.7-.06 1.36-.09 1.96-.09h.62V9.5c0-.7-.21-1.22-.63-1.58a2.68 2.68 0 0 0-1.78-.53 4.8 4.8 0 0 0-1.54.26c-.5.17-.95.43-1.34.78l-1.02-1.04zM83.84.23h1.61v7.3h.04a3.35 3.35 0 0 1 1.15-1.06 4.24 4.24 0 0 1 3.6-.21 3.08 3.08 0 0 1 1.8 2.02c.15.48.22 1 .22 1.57v5.88h-1.6v-5.71c0-.8-.19-1.43-.54-1.9-.36-.45-.92-.68-1.67-.68-.53 0-.98.08-1.36.26a2.4 2.4 0 0 0-.93.75c-.24.33-.41.71-.53 1.16a5.9 5.9 0 0 0-.18 1.48v4.64h-1.6V.23zM80.77 8.6c-.34-.41-.72-.7-1.12-.9-.4-.17-.83-.26-1.32-.26-.53 0-1 .09-1.42.27-.41.18-.75.44-1.02.76-.27.33-.47.7-.61 1.13a4.44 4.44 0 0 0 .03 2.74c.16.43.38.8.66 1.13a2.96 2.96 0 0 0 2.36 1.04c1.06 0 1.88-.4 2.46-1.18l1.2 1.12a4.2 4.2 0 0 1-1.65 1.16c-.64.24-1.3.36-2 .36-.75 0-1.43-.12-2.05-.36a4.43 4.43 0 0 1-2.59-2.63 5.44 5.44 0 0 1-.36-2c0-.73.12-1.39.36-2a4.68 4.68 0 0 1 2.6-2.63 5.65 5.65 0 0 1 4.07-.01c.64.24 1.2.62 1.68 1.14l-1.28 1.11zM68.4 10.76c0-.75-.22-1.35-.66-1.82a2.4 2.4 0 0 0-1.84-.69c-.78 0-1.4.23-1.83.7a2.55 2.55 0 0 0-.65 1.81c0 .75.21 1.36.65 1.82.43.46 1.05.7 1.83.7.8 0 1.4-.24 1.84-.7.44-.46.65-1.07.65-1.82zm3.2 4.97h-2.86v-1.31h-.04a3.42 3.42 0 0 1-1.2 1.04 4.33 4.33 0 0 1-1.9.51c-.74 0-1.42-.12-2.03-.37A4.53 4.53 0 0 1 61 12.9a6.17 6.17 0 0 1-.03-4.06c.22-.62.52-1.18.91-1.67a4.14 4.14 0 0 1 3.37-1.61c.65 0 1.26.1 1.82.29.56.2 1.02.53 1.38 1.01h.04V.22h3.11v15.5zM55.85 15.73h3.1V5.8h-3.1v9.93zM55.6 1.98c0-.49.18-.9.53-1.25.36-.35.78-.52 1.28-.52s.92.17 1.27.52c.36.35.53.76.53 1.25 0 .5-.17.91-.53 1.26-.35.35-.77.52-1.27.52s-.92-.17-1.28-.52a1.7 1.7 0 0 1-.53-1.26zM52.11 9a1.91 1.91 0 0 0-1.53-.76c-.8.01-1.4.24-1.84.7a2.55 2.55 0 0 0-.65 1.82c0 .75.22 1.36.65 1.82.44.46 1.05.7 1.84.7.34 0 .64-.08.89-.23.25-.15.46-.33.64-.53l2.06 2.13c-.49.49-1.06.83-1.72 1.03a6.53 6.53 0 0 1-4.06-.07 4.93 4.93 0 0 1-3.41-4.84 4.94 4.94 0 0 1 3.41-4.84 6.44 6.44 0 0 1 4.06-.08c.66.2 1.23.54 1.72 1.03L52.1 9.01zM43.44 15.73h-3v-1.35h-.03c-.11.19-.25.38-.43.57-.17.2-.38.36-.63.51a3.7 3.7 0 0 1-1.89.51c-.79 0-1.43-.12-1.92-.35-.49-.24-.87-.57-1.14-1a3.85 3.85 0 0 1-.54-1.49 12 12 0 0 1-.13-1.86V5.8h3.11v4.86l.03.89c.02.3.08.59.19.85.1.26.26.47.48.63.21.16.52.25.92.25s.72-.08.97-.22.44-.33.57-.57c.13-.24.22-.5.26-.8.04-.3.06-.62.06-.95V5.8h3.12v9.93zM23.11.24h3.24V12.8h5.99v2.94h-9.23z"/><path fill="#F88D1E" d="M4.23 7.98a3.7 3.7 0 0 0 1.08 2.64 4.1 4.1 0 0 0 2.8 1.17c.53 0 1.07.2 1.48.6.83.82.83 2.14 0 2.95-.82.82-2.16.82-2.99 0a2.07 2.07 0 0 1-.62-1.5c-.04-1.01-.44-2-1.19-2.73a3.76 3.76 0 0 0-2.71-1.05c-.53-.01-1.06-.21-1.46-.61a2.06 2.06 0 0 1 0-2.95c.43-.42.99-.62 1.55-.6.96-.02 1.89-.34 2.62-1.06A4.07 4.07 0 0 0 6 2.12c-.02-.54.19-1.1.61-1.51a2.14 2.14 0 0 1 3 0c.82.81.82 2.13 0 2.95-.42.4-.96.6-1.5.6a4.1 4.1 0 0 0-2.8 1.17 3.7 3.7 0 0 0-1.07 2.65zm11.35 4.42a2.14 2.14 0 0 0-3 0 2.06 2.06 0 0 0 0 2.94c.83.82 2.17.82 3 0 .82-.81.82-2.13 0-2.94zm0-8.84c-.83.81-2.17.81-3 0a2.06 2.06 0 0 1 0-2.95 2.14 2.14 0 0 1 3 0c.82.81.82 2.13 0 2.95z"/></g></svg>