<svg xmlns="http://www.w3.org/2000/svg" width="44" height="44"><path fill="#F78D1E" fill-rule="evenodd" d="M28.31 31.05A11.02 11.02 0 0 0 22 11a11.01 11.01 0 0 0-6.24 20.1c.8-.34 3.01-.79 3.56-1.13.65-.41.44-2.65.44-2.65l-.15-.16a2.56 2.56 0 0 1-.44-.74l-.29-.86-.66-1.84s-.45-.77-.45-1.33.22-.89.22-.89-.22-1.58-.22-2.67c0-2 2.67-3.33 4.22-3.33 1.56 0 4.23 1.33 4.23 3.33 0 1.09-.23 2.67-.23 2.67s.23.33.23.89-.45 1.33-.45 1.33l-.67 1.84-.3.86a2.6 2.6 0 0 1-.44.74l-.14.16s.02 2.24.67 2.65c.52.33 2.54.75 3.42 1.08zM22 34a12 12 0 1 1 0-24 12 12 0 0 1 0 24z"/></svg>