<svg xmlns="http://www.w3.org/2000/svg" width="24" height="24"><path fill="#77818C" fill-rule="evenodd" d="M5.9 18.88a9.2 9.2 0 1 1 12.18.03c-.16-.05-.32-.1-.48-.12l-2.28-.42c-.52-.1-.94-.6-.94-1.13V15.9c.55-.63.71-1.6.9-2.66.3.07.39-.32.55-1.1.17-.77.68-1.56.22-1.66a.44.44 0 0 0-.18 0l.18-2.59c.07-1.08-.4-2.28-1.08-2.56-1.13-.48-1.48-.74-2.18-.87-.7-.14-1.4.05-2.12.29-.73.23-1.4.84-1.94 1.17-.55.33-.83 1.08-.77 1.97l.18 2.59h-.17c-.46.1.05.9.21 1.66.17.78.26 1.17.51 1.12.23 1.04.39 2 .94 2.64v1.35c0 .53-.43 1.02-.94 1.1l-2.11.35c-.24.04-.47.1-.69.2zM2 12a10 10 0 1 1 20 0 10 10 0 0 1-20 0z"/></svg>