<svg xmlns="http://www.w3.org/2000/svg" width="24" height="24"><path fill="#77818C" fill-rule="evenodd" d="M4.06 18.08a10 10 0 1 1 15.54.42l-.85-.16a.73.73 0 0 1-.58-.7v-.83c.34-.39.44-.98.55-1.64.19.05.24-.2.34-.68.1-.47.42-.96.14-1.02h-.11l.1-1.6c.05-.67-.24-1.4-.66-1.59-.7-.3-.91-.45-1.34-.53-.44-.09-.86.03-1.31.17-.46.15-.86.53-1.2.73-.34.2-.51.66-.48 1.22l.11 1.6h-.1c-.29.06.03.55.13 1.02.1.48.16.73.32.7.14.64.24 1.23.57 1.62v.84c0 .32-.26.63-.58.68l-.87.14a3.2 3.2 0 0 0-.97-.36l-1.77-.33a.91.91 0 0 1-.72-.87v-1.04c.42-.49.55-1.23.7-2.05.23.05.3-.25.42-.85.13-.6.53-1.2.17-1.28a.34.34 0 0 0-.14 0l.14-2c.06-.84-.3-1.76-.83-1.98-.87-.37-1.14-.57-1.69-.67a3.3 3.3 0 0 0-1.63.22c-.57.18-1.08.65-1.5.9-.42.26-.64.84-.6 1.53l.14 2h-.13c-.35.08.04.69.17 1.28.12.6.2.9.4.86.17.8.29 1.55.71 2.04v1.04a.9.9 0 0 1-.72.86l-1.63.26-.24.05zM1 12a11 11 0 1 1 22 0 11 11 0 0 1-22 0z"/></svg>