<svg xmlns="http://www.w3.org/2000/svg" width="44" height="44"><g fill="none" fill-rule="evenodd"><path d="M0 0h44v44H0z"/><path fill="#F78D1E" d="M16 9h12v2H16V9zM6 12h32v24H6V12zm1 1h30v22H7V13z"/><path fill="#F88D1E" d="M16.18 23.5c.01.9.33 1.8 1.06 2.48.75.7 1.73 1.08 2.77 1.1.53 0 1.06.2 1.47.58.81.76.81 2 0 2.77-.82.76-2.14.76-2.96 0a1.9 1.9 0 0 1-.6-1.43 3.74 3.74 0 0 0-1.19-2.55c-.74-.7-1.7-1-2.67-1-.53 0-1.05-.19-1.45-.56-.81-.77-.81-2.01 0-2.78.42-.39.98-.58 1.53-.57a3.8 3.8 0 0 0 2.6-.99 3.74 3.74 0 0 0 1.17-2.56c0-.5.2-1.02.61-1.42a2.19 2.19 0 0 1 2.96 0c.81.77.81 2 0 2.77-.4.39-.94.58-1.47.58-1.04.02-2.02.4-2.77 1.1a3.4 3.4 0 0 0-1.06 2.48zm11.2 4.16a2.2 2.2 0 0 0-2.95 0c-.81.76-.81 2 0 2.77.82.76 2.14.76 2.96 0 .81-.77.81-2.01 0-2.77zm0-8.32c-.8.77-2.13.77-2.95 0-.81-.76-.81-2 0-2.77a2.19 2.19 0 0 1 2.96 0c.81.77.81 2 0 2.77z"/></g></svg>