<svg width="24px" height="24px" viewBox="0 0 24 24" version="1.1" xmlns="http://www.w3.org/2000/svg" xmlns:xlink="http://www.w3.org/1999/xlink">
    <g id="Symbols" stroke="none" stroke-width="1" fill="none" fill-rule="evenodd">
        <g id="icon/wrench" fill="#F78D1E">
            <path d="M21.0710678,0.428932188 C22.2666706,1.1238057 23.0710678,2.4225766 23.0710678,3.92893219 C23.0710678,6.12964361 21.2802068,7.92893219 19.0710678,7.92893219 C16.8619288,7.92893219 15.0710678,6.12964361 15.0710678,3.92893219 C15.0710678,2.4225766 15.8754651,1.1238057 17.0710678,0.428932188 L17.0710678,3.92893219 L21.0710678,3.92893219 L21.0710678,0.428932188 L21.0710678,0.428932188 Z" id="icon" transform="translate(19.071068, 4.178932) rotate(45.000000) translate(-19.071068, -4.178932) "></path>
            <path d="M11.1715729,4.32842712 L11.1715729,5.44659782 C10.52764,5.72626475 9.83353013,5.86056858 9.12472935,5.82732936 L9.17157288,4.82842712 L9.17157288,5.82842712 C8.50961562,5.86056858 7.81550579,5.72626475 7.17157288,5.44659782 L7.17157288,4.32842712 C7.48107931,4.50714497 7.81680199,4.64565523 8.17157288,4.7318287 L8.17157288,21.8284271 C8.17157288,22.3815288 8.61868972,22.8284271 9.17157288,22.8284271 C9.72247439,22.8284271 10.1715729,22.3796456 10.1715729,21.8284271 L10.1715729,4.7318287 C10.5263438,4.64565523 10.8620664,4.50714497 11.1715729,4.32842712 Z M11.1715729,4.32842712 L11.1715729,21.8284271 C11.1715729,22.9327943 10.2738948,23.8284271 9.17157288,23.8284271 C8.06700338,23.8284271 7.17157288,22.9344118 7.17157288,21.8284271 L7.17157288,4.32842712 C7.75991961,4.66815532 8.44299859,4.86259362 9.17157288,4.82842712 C9.90014716,4.86259362 10.5832261,4.66815532 11.1715729,4.32842712 L11.1715729,4.32842712 L11.1715729,4.32842712 Z" id="Shape-Copy" transform="translate(9.171573, 14.078427) rotate(45.000000) translate(-9.171573, -14.078427) "></path>
        </g>
    </g>
</svg>