<svg width="22" height="22" xmlns="http://www.w3.org/2000/svg"><path d="M20.5 5.8c-.6.7-1.2 1.4-2 2V8c0 1 0 2-.4 3-.2 1-.6 2-1.2 3s-1.3 1.7-2.2 2.5c-.8.7-1.8 1.2-3 1.7-1.2.4-2.4.6-3.8.6-2 0-4-.6-5.8-1.7h1c1.7 0 3.2-.5 4.6-1.6-.8 0-1.5-.2-2.2-.7-.6-.5-1-1-1.3-2l.8.2c.3 0 .7 0 1-.2-1 0-1.6-.6-2.2-1.3-.6-.7-1-1.5-1-2.4.7.3 1.3.4 2 .5-.7-.4-1-.8-1.4-1.4-.3-.5-.4-1-.4-1.8 0-.7 0-1.3.5-2 1 1.3 2 2.2 3.4 3 1.4.6 2.8 1 4.4 1V8c0-1 .4-2 1-2.7.8-.6 1.7-1 2.8-1 1 0 2 .4 2.8 1.2.8-.2 1.6-.5 2.4-1-.3 1-1 1.7-1.7 2.2.7 0 1.4-.3 2.2-.6z" fill="#3D4752" fill-rule="evenodd"/></svg>