<svg width="18" height="18" xmlns="http://www.w3.org/2000/svg" xmlns:xlink="http://www.w3.org/1999/xlink"><path id="a" d="M15.97 12.847c-.04-.12-.29-.295-.755-.526-.126-.073-.305-.172-.537-.298-.232-.126-.443-.242-.632-.348-.19-.106-.366-.21-.532-.308-.026-.02-.11-.078-.248-.174-.14-.096-.257-.167-.353-.214-.096-.046-.19-.07-.284-.07-.133 0-.3.095-.498.284-.198.19-.38.394-.546.617-.166.22-.342.426-.527.615-.187.19-.34.283-.46.283-.06 0-.133-.016-.223-.05-.09-.032-.157-.06-.204-.084-.046-.023-.125-.07-.238-.14-.113-.07-.176-.107-.19-.113-.907-.503-1.686-1.08-2.336-1.73-.65-.65-1.227-1.428-1.73-2.336l-.115-.19c-.07-.112-.116-.19-.14-.238-.023-.046-.05-.114-.084-.204-.032-.09-.05-.164-.05-.223 0-.12.096-.273.285-.46.19-.184.394-.36.616-.526.223-.165.43-.348.618-.546.19-.2.283-.365.283-.497 0-.092-.022-.187-.07-.283-.045-.096-.116-.214-.212-.353-.097-.14-.155-.222-.174-.248-.1-.166-.202-.343-.31-.532l-.347-.632c-.126-.232-.225-.41-.298-.537-.233-.463-.408-.715-.528-.755-.046-.02-.116-.03-.21-.03-.178 0-.41.033-.7.1-.288.066-.515.135-.68.208-.332.14-.684.544-1.055 1.213C2.17 4.145 2 4.76 2 5.37c0 .18.012.353.035.522.023.17.064.36.124.572.06.212.107.37.143.472l.204.552c.1.265.16.428.18.487.23.65.506 1.23.824 1.74.525.85 1.24 1.726 2.144 2.63.905.905 1.78 1.62 2.63 2.143.51.318 1.09.593 1.74.826.06.02.222.08.487.18.267.098.45.166.553.202.103.037.26.085.472.145.213.06.403.102.572.125.17.023.343.035.522.035.61 0 1.226-.17 1.85-.507.668-.37 1.072-.723 1.212-1.054.073-.167.142-.394.208-.682.067-.29.1-.522.1-.7 0-.094-.01-.164-.03-.21z" fill="#3D4752" fill-rule="evenodd" /></svg>
