<svg width="22" height="22" xmlns="http://www.w3.org/2000/svg"><path d="M17.26 12.88l-1.43.48.5 1.48c.2.6-.13 1.24-.72 1.44-.12.04-.26.06-.4.06-.45 0-.88-.3-1.04-.78l-.5-1.47-2.93.97.5 1.47c.2.6-.13 1.25-.73 1.45-.13.03-.26.05-.4.05-.45-.02-.88-.3-1.04-.78l-.5-1.48-1.42.47c-.13.04-.26.06-.4.06-.46 0-.9-.3-1.04-.78-.2-.6.12-1.24.72-1.44l1.42-.47-.95-2.83-1.43.48c-.13.04-.26.06-.4.06-.46 0-.9-.3-1.04-.78-.2-.6.12-1.24.7-1.44l1.44-.48-.5-1.48c-.2-.6.13-1.24.72-1.44.6-.2 1.24.12 1.44.72l.5 1.47 2.93-.97-.5-1.47c-.2-.6.13-1.25.73-1.45.6-.2 1.24.13 1.44.73l.5 1.48 1.42-.47c.6-.2 1.24.12 1.44.72.2.6-.12 1.24-.72 1.44l-1.42.47.95 2.83 1.43-.48c.6-.2 1.25.12 1.44.72.2.6-.12 1.24-.7 1.44zm3.82-4.9C18.8.42 15.54-1.35 7.98.92.42 3.2-1.35 6.46.92 14.02c2.27 7.56 5.54 9.33 13.1 7.06 7.56-2.27 9.33-5.54 7.06-13.1zm-12.02 2.1L10 12.9l2.94-.98L12 9.1l-2.94.98z" fill="#3D4752" fill-rule="evenodd"/></svg>