<svg width="22" height="22" xmlns="http://www.w3.org/2000/svg"><g fill="none" fill-rule="evenodd"><path d="M8.2 2.4c2-.7 4.2-.7 6 0 1.2.5 2.2 1 3 2l-.8.8L14.7 7c-.5-.7-1.2-1-2-1.3-.8-.3-1.8-.3-2.6 0-1 0-2 .7-2.7 1.4-.6.7-1 1.5-1.3 2.3L3 7c1-2.2 3-3.8 5.2-4.6z" fill="#EA4335"/><path d="M2.2 9.3c.2-.8.4-1.6.8-2.4l3 2.3c-.4 1-.4 2.4 0 3.6-1 .6-2 1.4-3 2.2-1-1.8-1.2-4-.8-6z" fill="#FBBC05"/><path d="M11.2 9.3h8.6c.3 1.7.2 3.3-.3 5-.4 1.4-1.2 2.7-2.3 3.7l-3-2.2c1-.7 1.8-1.7 2-3h-5V9.4z" fill="#4285F4"/><path d="M3 15.2L6 13c.4 1 1 2 2 2.7l2 1h2.3c.7-.3 1.4-.5 2-1l3 2.3c-1 1-2.4 1.7-3.8 2-1.6.3-3.2.3-4.7 0-1.2-.4-2.4-1-3.3-1.8-1-.8-2-1.8-2.5-3z" fill="#34A853"/></g></svg>