<svg width="22" height="22" xmlns="http://www.w3.org/2000/svg"><path d="M16.67 15.257c1.534-1.06 2.71-2.54 3.33-4.257-1.26-3.487-4.814-6-9-6-1.366 0-2.664.267-3.837.75L4.707 3.292 3.293 4.707 5.33 6.743C3.795 7.803 2.62 9.283 2 11c1.26 3.487 4.814 6 9 6 1.366 0 2.664-.267 3.837-.75l2.456 2.457 1.414-1.414-2.036-2.036zM8.738 7.323C9.447 7.117 10.207 7 11 7c3.28 0 6 2 6.83 3.998-.42 1.012-1.393 2.024-2.64 2.777L8.736 7.323zm-1.963.865c-1.244.76-2.167 1.8-2.584 2.846C5 13 8.01 15 11 15c.757 0 1.514-.127 2.236-.35L6.774 8.188z" fill="#D2D2D2" fill-rule="evenodd"/></svg>