<svg width="22" height="22" xmlns="http://www.w3.org/2000/svg"><path d="M18.72 3.28c-1.704-1.707-4.495-1.707-6.2 0l-1.637 1.635s.732-.015 1.548.173c.817.188 1.428.513 1.428.513l.492-.49c.69-.69 1.852-.69 2.54 0 .69.688.69 1.85 0 2.54l-4.62 4.62c-.688.688-1.85.688-2.54 0-.148-.15-.258-.322-.342-.504l-1.87 1.868c.12.16.236.322.38.466 1.707 1.706 4.497 1.706 6.203 0l4.62-4.62c1.706-1.705 1.706-4.496 0-6.2zM9.273 17.052c-.822-.25-1.248-.537-1.248-.537l-.375.375c-.69.69-1.852.69-2.54 0-.69-.688-.69-1.85 0-2.54l4.62-4.62c.688-.688 1.85-.688 2.54 0 .148.15.258.322.342.504l1.87-1.868c-.12-.16-.237-.32-.382-.466-1.705-1.706-4.495-1.706-6.2 0l-4.62 4.62c-1.706 1.705-1.706 4.496 0 6.2 1.704 1.707 4.495 1.707 6.2 0l1.43-1.43s-.814.014-1.638-.237z" fill="#3D4752" fill-rule="evenodd"/></svg>