<svg width="22" height="22" xmlns="http://www.w3.org/2000/svg"><path d="M11 7c1.66 0 3-1.34 3-3s-1.34-3-3-3-3 1.34-3 3 1.34 3 3 3zm10 3h-6c0-1.1-.9-2-2-2H9c-1.1 0-2 .9-2 2H1c-.55 0-1 .45-1 1v3l1 2v4c0 .55.45 1 1 1h3c.55 0 1-.45 1-1v-4l1-2v-2l1 2v6c0 .55.45 1 1 1h4c.55 0 1-.45 1-1v-6l1-2v2l1 2v4c0 .55.45 1 1 1h3c.55 0 1-.45 1-1v-4l1-2v-3c0-.55-.45-1-1-1zm-2.5-1C19.88 9 21 7.88 21 6.5S19.88 4 18.5 4 16 5.12 16 6.5 17.12 9 18.5 9zm-15 0C4.88 9 6 7.88 6 6.5S4.88 4 3.5 4 1 5.12 1 6.5 2.12 9 3.5 9z" fill="#3D4752" fill-rule="evenodd"/></svg>