<?xml version="1.0" encoding="utf-8"?>
<!-- Generator: Adobe Illustrator 18.1.1, SVG Export Plug-In . SVG Version: 6.00 Build 0)  -->
<svg version="1.1" id="Layer_1" xmlns="http://www.w3.org/2000/svg" xmlns:xlink="http://www.w3.org/1999/xlink" x="0px" y="0px"
	 viewBox="0 0 22 22" enable-background="new 0 0 22 22" xml:space="preserve">
<path fill="#3D4752" d="M19,14h-0.5c0,0-0.1,0-0.5,0c-4,0-1.3-12-7-12C5.3,2,8,14,4,14c-0.3,0-0.4,0-0.5,0H3c-0.6,0-1,0.4-1,1v1
	c0,0.6,0.4,1,1,1h16c0.6,0,1-0.4,1-1v-1C20,14.4,19.6,14,19,14z"/>
<path fill="#3D4752" d="M12,20h-2c-0.6,0-1-0.4-1-1v0c0-0.6,0.4-1,1-1h2c0.6,0,1,0.4,1,1v0C13,19.6,12.6,20,12,20z"/>
</svg>
