<?xml version="1.0" encoding="UTF-8" standalone="no"?>
<svg width="22px" height="22px" viewBox="0 0 22 22" version="1.1" xmlns="http://www.w3.org/2000/svg" xmlns:xlink="http://www.w3.org/1999/xlink" xmlns:sketch="http://www.bohemiancoding.com/sketch/ns">
    <!-- Generator: Sketch 3.4.1 (15681) - http://www.bohemiancoding.com/sketch -->
    <title>colorpicker-image-22px</title>
    <desc>Created with Sketch.</desc>
    <defs></defs>
    <g id="top-toolbar-2" stroke="none" stroke-width="1" fill="none" fill-rule="evenodd" sketch:type="MSPage">
        <g id="colorpicker-image-22px" sketch:type="MSArtboardGroup">
            <g id="Fill-1-+-Fill-3-+-Fill-5" sketch:type="MSLayerGroup" transform="translate(1.000000, 2.000000)">
                <path d="M18,17 L2,17 C0.895,17 0,16.105 0,15 L0,11 L20,11 L20,15 C20,16.105 19.105,17 18,17" id="Fill-1" fill="#3D4752" sketch:type="MSShapeGroup"></path>
                <path d="M18,2 L14,2 L14,0 L6,0 L6,2 L2,2 C0.896,2 0,2.896 0,4 L0,11 L20,11 L20,4 C20,2.896 19.104,2 18,2" id="Fill-3" fill="#92979D" sketch:type="MSShapeGroup"></path>
                <path d="M15,9 C15,11.761 12.761,14 10,14 C7.239,14 5,11.761 5,9 C5,6.239 7.239,4 10,4 C12.761,4 15,6.239 15,9" id="Fill-5" fill="#D7D9DA" sketch:type="MSShapeGroup"></path>
            </g>
        </g>
    </g>
</svg>