<?xml version="1.0" encoding="UTF-8" standalone="no"?>
<svg width="19px" height="22px" viewBox="0 0 19 22" version="1.1" xmlns="http://www.w3.org/2000/svg" xmlns:xlink="http://www.w3.org/1999/xlink" xmlns:sketch="http://www.bohemiancoding.com/sketch/ns">
    <!-- Generator: Sketch 3.3.3 (12081) - http://www.bohemiancoding.com/sketch -->
    <title>Artboard 6</title>
    <desc>Created with Sketch.</desc>
    <defs></defs>
    <g id="SVG" stroke="none" stroke-width="1" fill="none" fill-rule="evenodd" sketch:type="MSPage">
        <g id="Artboard-6" sketch:type="MSArtboardGroup" fill="#77818C">
            <path d="M0,11.0048815 C0,9.89761602 0.893899798,9 2.0048815,9 L2.9951185,9 C4.10238398,9 5,9.8938998 5,11.0048815 L5,11.9951185 C5,13.102384 4.1061002,14 2.9951185,14 L2.0048815,14 C0.897616023,14 0,13.1061002 0,11.9951185 L0,11.0048815 Z M7,11.0048815 C7,9.89761602 7.8938998,9 9.0048815,9 L9.9951185,9 C11.102384,9 12,9.8938998 12,11.0048815 L12,11.9951185 C12,13.102384 11.1061002,14 9.9951185,14 L9.0048815,14 C7.89761602,14 7,13.1061002 7,11.9951185 L7,11.0048815 Z M14,11.0048815 C14,9.89761602 14.8938998,9 16.0048815,9 L16.9951185,9 C18.102384,9 19,9.8938998 19,11.0048815 L19,11.9951185 C19,13.102384 18.1061002,14 16.9951185,14 L16.0048815,14 C14.897616,14 14,13.1061002 14,11.9951185 L14,11.0048815 Z" id="Rectangle-71" sketch:type="MSShapeGroup"></path>
        </g>
    </g>
</svg>