<?xml version="1.0" encoding="utf-8"?>
<!-- Generator: Adobe Illustrator 18.1.1, SVG Export Plug-In . SVG Version: 6.00 Build 0)  -->
<svg version="1.1" id="Layer_1" xmlns="http://www.w3.org/2000/svg" xmlns:xlink="http://www.w3.org/1999/xlink" x="0px" y="0px"
	 viewBox="0 0 22 22" enable-background="new 0 0 22 22" xml:space="preserve">
<polygon fill="#FFFFFF" points="9,2 4,2 2,2 2,4 2,9 4,9 4,4 9,4 "/>
<polygon fill="#FFFFFF" points="18,2 13,2 13,4 18,4 18,9 20,9 20,4 20,2 "/>
<polygon fill="#FFFFFF" points="18,13 18,18 13,18 13,20 18,20 20,20 20,18 20,13 "/>
<polygon fill="#FFFFFF" points="4,18 4,13 2,13 2,18 2,20 4,20 9,20 9,18 "/>
<path fill="#FFFFFF" d="M14,8v6H8V8H14 M15,7H7v8h8V7L15,7z"/>
</svg>
