<?xml version="1.0" encoding="utf-8"?>
<!-- Generator: Adobe Illustrator 18.1.1, SVG Export Plug-In . SVG Version: 6.00 Build 0)  -->
<svg version="1.1" id="Layer_1" xmlns="http://www.w3.org/2000/svg" xmlns:xlink="http://www.w3.org/1999/xlink" x="0px" y="0px"
	 viewBox="0 0 22 22" enable-background="new 0 0 22 22" xml:space="preserve">
<g>
	<path fill="#3D4752" d="M16,4l-0.1,0.7c-0.2,0-0.5,0-0.8,0.1c-0.3,0.1-0.6,0.1-0.7,0.1c-0.3,0.1-0.5,0.2-0.6,0.4
		c-0.1,0.2-0.2,0.4-0.3,0.6l-2.4,10.2c0,0,0,0.1,0,0.2c0,0.1,0,0.1,0,0.2c0,0.2,0,0.3,0.1,0.4c0.1,0.1,0.2,0.2,0.4,0.3
		c0.1,0,0.3,0.1,0.6,0.2c0.3,0.1,0.6,0.1,0.7,0.1L12.8,18H6.5l0.1-0.7c0.2,0,0.4,0,0.8-0.1c0.3,0,0.6-0.1,0.7-0.1
		c0.3-0.1,0.4-0.2,0.6-0.4C8.9,16.6,9,16.4,9,16.2L11.4,6c0-0.1,0-0.1,0-0.2c0-0.1,0-0.1,0-0.2c0-0.1,0-0.2-0.1-0.3
		C11.3,5.2,11.1,5.1,11,5c-0.2-0.1-0.4-0.2-0.7-0.2C9.9,4.7,9.7,4.7,9.6,4.7L9.7,4H16z"/>
</g>
</svg>
