<?xml version="1.0" encoding="utf-8"?>
<!-- Generator: Adobe Illustrator 18.1.1, SVG Export Plug-In . SVG Version: 6.00 Build 0)  -->
<svg version="1.1" id="Layer_1" xmlns="http://www.w3.org/2000/svg" xmlns:xlink="http://www.w3.org/1999/xlink" x="0px" y="0px"
	 viewBox="0 0 22 22" enable-background="new 0 0 22 22" xml:space="preserve">
<path fill="#FFFFFF" d="M18.9,4C18.9,4,19,4.1,19,4.1v13.8c0,0.1-0.1,0.1-0.1,0.1H3.1C3.1,18,3,17.9,3,17.9V4.1C3,4.1,3.1,4,3.1,4
	H18.9 M18.9,2H3.1C1.9,2,1,2.9,1,4.1v13.8C1,19.1,1.9,20,3.1,20h15.8c1.2,0,2.1-0.9,2.1-2.1V4.1C21,2.9,20.1,2,18.9,2L18.9,2z"/>
<polygon fill="#FFFFFF" points="8,7 8,15 15,11 "/>
<g>
	<path fill="#3D4752" d="M17.5,8.5l1.7-1.7c0.4-0.4,0.4-1,0-1.4l-2.6-2.6c-0.4-0.4-1-0.4-1.4,0l-1.7,1.7L17.5,8.5z"/>
	<polygon fill="#3D4752" points="12.3,5.7 2,16 2,20 6.1,20 16.3,9.7 	"/>
</g>
</svg>
