<?xml version="1.0" encoding="utf-8"?>
<!-- Generator: Adobe Illustrator 18.1.1, SVG Export Plug-In . SVG Version: 6.00 Build 0)  -->
<svg version="1.1" id="Layer_1" xmlns="http://www.w3.org/2000/svg" xmlns:xlink="http://www.w3.org/1999/xlink" x="0px" y="0px"
	 viewBox="0 0 22 22" enable-background="new 0 0 22 22" xml:space="preserve">
<g>
	<path fill="#FFFFFF" d="M11,2c-5,0-9,4-9,9s4,9,9,9s9-4,9-9S16,2,11,2z M11,18c-3.9,0-7-3.1-7-7s3.1-7,7-7s7,3.1,7,7S14.9,18,11,18
		z"/>
	<polygon fill="#FFFFFF" points="12,7 10,7 10,10 7,10 7,12 10,12 10,15 12,15 12,12 15,12 15,10 12,10 	"/>
</g>
</svg>
