<?xml version="1.0" encoding="UTF-8" standalone="no"?>
<svg width="22px" height="22px" viewBox="0 0 22 22" version="1.1" xmlns="http://www.w3.org/2000/svg" xmlns:xlink="http://www.w3.org/1999/xlink" xmlns:sketch="http://www.bohemiancoding.com/sketch/ns">
    <!-- Generator: Sketch 3.3.3 (12081) - http://www.bohemiancoding.com/sketch -->
    <title>icon-close-dark-filled</title>
    <desc>Created with Sketch.</desc>
    <defs></defs>
    <g id="SVG" stroke="none" stroke-width="1" fill="none" fill-rule="evenodd" sketch:type="MSPage">
        <g id="icon-close-dark-filled" sketch:type="MSArtboardGroup">
            <path d="M11,2 C6,2 2,6 2,11 C2,16 6,20 11,20 C16,20 20,16 20,11 C20,6 16,2 11,2 L11,2 Z" id="Imported-Layers" fill="#5A5A5A" sketch:type="MSShapeGroup"></path>
            <path d="M15.4,14 C15.7,14.3 15.7,14.9 15.4,15.2 L15.1,15.5 C14.8,15.8 14.2,15.8 13.9,15.5 L11,12.6 L8.1,15.5 C7.8,15.8 7.2,15.8 6.9,15.5 L6.6,15.2 C6.3,14.9 6.3,14.3 6.6,14 L9.5,11.1 L6.7,8.2 C6.3,7.9 6.3,7.4 6.7,7 L7,6.7 C7.3,6.4 7.9,6.4 8.2,6.7 L11,9.6 L13.9,6.7 C14.2,6.4 14.8,6.4 15.1,6.7 L15.4,7 C15.7,7.3 15.7,7.9 15.4,8.2 L12.5,11.1 L15.4,14 L15.4,14 Z" id="Path" fill="#FFFFFF" sketch:type="MSShapeGroup"></path>
        </g>
    </g>
</svg>