<?xml version="1.0" encoding="UTF-8" standalone="no"?>
<svg width="103px" height="103px" viewBox="0 0 103 103" version="1.1" xmlns="http://www.w3.org/2000/svg" xmlns:xlink="http://www.w3.org/1999/xlink">
    <!-- Generator: Sketch 3.8.3 (29802) - http://www.bohemiancoding.com/sketch -->
    <title>Combined Shape</title>
    <desc>Created with Sketch.</desc>
    <defs></defs>
    <g id="ROLE-/-DIAGRAM-/-EXAMPLE" stroke="none" stroke-width="1" fill="none" fill-rule="evenodd">
        <g id="A00-Copy-9" transform="translate(-471.000000, -388.000000)" fill="#3D4752">
            <g id="Group-5-Copy-2" transform="translate(437.000000, 353.000000)">
                <g id="Group-4" transform="translate(34.000000, 35.000000)">
                    <path d="M51.5,103 C79.9426646,103 103,79.9426646 103,51.5 C103,23.0573354 79.9426646,0 51.5,0 C23.0573354,0 0,23.0573354 0,51.5 C0,79.9426646 23.0573354,103 51.5,103 Z M73.3630208,62.73606 L58.0264096,57.7614519 L58.0264096,52.1235626 C62.0272647,48.8071571 64.6945015,43.8325489 64.6945015,37.8630191 C64.6945015,28.5770838 62.3606693,21.2809917 51.3583178,21.2809917 C40.3559662,21.2809917 38.0221341,28.5770838 38.0221341,37.8630191 C38.0221341,43.8325489 40.6893708,49.1387976 44.6902259,52.1235626 L44.6902259,57.7614519 L29.3536147,62.73606 C26.686378,63.7309817 24.6859504,66.0524655 24.6859504,69.368871 L24.6859504,80.9762901 L78.0306851,80.9762901 L78.0306851,69.0372304 C78.0306851,66.3841061 76.0302576,63.7309817 73.3630208,62.4044195 L73.3630208,62.73606 Z" id="Combined-Shape"></path>
                </g>
            </g>
        </g>
    </g>
</svg>