<svg xmlns="http://www.w3.org/2000/svg" width="24" height="24"><path fill="#77818C" fill-rule="evenodd" d="M11.88 16a8.4 8.4 0 0 1-1.84-.2l1.53-3.83.3.03c.12 0 .22-.02.32-.03l1.53 3.82c-.58.13-1.2.21-1.84.21m0-10a2 2 0 1 1 0 4 2 2 0 0 1 0-4m7.88 7h-2.09a4.41 4.41 0 0 1-2.07 2.1l-1.51-3.77a4 4 0 0 0-1.21-7.19V2h-2v2.14a4 4 0 0 0-1.21 7.19l-1.51 3.78A4.41 4.41 0 0 1 6.08 13H4c.37 1.65 1.64 3.07 3.41 3.97l-1.46 3.66 1.86.74 1.48-3.7a10.36 10.36 0 0 0 5.18 0l1.48 3.7 1.86-.74-1.47-3.66c1.78-.9 3.05-2.32 3.42-3.97"/></svg>