<?xml version="1.0" encoding="UTF-8" standalone="no"?>
<svg width="22px" height="22px" viewBox="0 0 22 22" version="1.1" xmlns="http://www.w3.org/2000/svg" xmlns:xlink="http://www.w3.org/1999/xlink" xmlns:sketch="http://www.bohemiancoding.com/sketch/ns">
    <!-- Generator: Sketch 3.4.4 (17249) - http://www.bohemiancoding.com/sketch -->
    <title>icon-bell-22px</title>
    <desc>Created with Sketch.</desc>
    <defs></defs>
    <g id="22px" stroke="none" stroke-width="1" fill="none" fill-rule="evenodd" sketch:type="MSPage">
        <g id="icon-bell-22px" sketch:type="MSArtboardGroup" fill="#3D4752">
            <path d="M19,13 L18.5,13 L18,13 C14,13 16.7,2 11,2 C5.3,2 8,13 4,13 L3.5,13 L3,13 C2.4,13 2,13.4 2,14 L2,15 C2,15.6 2.4,16 3,16 L19,16 C19.6,16 20,15.6 20,15 L20,14 C20,13.4 19.6,13 19,13 L19,13 Z" id="Shape" sketch:type="MSShapeGroup"></path>
            <path d="M11.8,20 L10.2,20 C9.5,20 9,19.5 9,18.8 L9,18.2 C9,17.5 9.5,17 10.2,17 L11.8,17 C12.5,17 13,17.5 13,18.2 L13,18.8 C13,19.5 12.5,20 11.8,20 L11.8,20 Z" id="Shape" sketch:type="MSShapeGroup"></path>
        </g>
    </g>
</svg>