<?xml version="1.0" encoding="UTF-8" standalone="no"?>
<svg width="22px" height="22px" viewBox="0 0 22 22" version="1.1" xmlns="http://www.w3.org/2000/svg" xmlns:xlink="http://www.w3.org/1999/xlink" xmlns:sketch="http://www.bohemiancoding.com/sketch/ns">
    <!-- Generator: Sketch 3.4.4 (17249) - http://www.bohemiancoding.com/sketch -->
    <title>icon-present-22px</title>
    <desc>Created with Sketch.</desc>
    <defs></defs>
    <g id="22px" stroke="none" stroke-width="1" fill="none" fill-rule="evenodd" sketch:type="MSPage">
        <g id="icon-present-22px" sketch:type="MSArtboardGroup" fill="#3D4752">
            <path d="M18.9,4 C19,4 19,4.1 19,4.1 L19,17.9 C19,18 18.9,18 18.9,18 L3.1,18 C3,18 3,17.9 3,17.9 L3,4.1 C3,4 3.1,4 3.1,4 L18.9,4 L18.9,4 Z M18.9,2 L3.1,2 C1.9,2 1,2.9 1,4.1 L1,17.9 C1,19.1 1.9,20 3.1,20 L18.9,20 C20.1,20 21,19.1 21,17.9 L21,4.1 C21,2.9 20.1,2 18.9,2 L18.9,2 L18.9,2 Z" id="Shape" sketch:type="MSShapeGroup"></path>
            <path d="M8,7 L8,15 L15,11 L8,7 Z" id="Shape" sketch:type="MSShapeGroup"></path>
        </g>
    </g>
</svg>