<?xml version="1.0" encoding="UTF-8" standalone="no"?>
<svg width="22px" height="22px" viewBox="0 0 22 22" version="1.1" xmlns="http://www.w3.org/2000/svg" xmlns:xlink="http://www.w3.org/1999/xlink" xmlns:sketch="http://www.bohemiancoding.com/sketch/ns">
    <!-- Generator: Sketch 3.4.4 (17249) - http://www.bohemiancoding.com/sketch -->
    <title>icon-atlassian-22px</title>
    <desc>Created with Sketch.</desc>
    <defs></defs>
    <g id="22px" stroke="none" stroke-width="1" fill="none" fill-rule="evenodd" sketch:type="MSPage">
        <g id="icon-atlassian-22px" sketch:type="MSArtboardGroup" fill="#3D4752">
            <path d="M15.6,14.3 C15.3,13.7 15,13.2 14.6,12.6 C14.3,12.2 14,11.8 13.7,11.4 C13.6,11.2 13.6,11 13.7,10.9 C13.8,10.8 13.9,10.7 14,10.6 C15.3,9.2 16.7,7.8 17.7,6.3 C18.8,4.7 19.4,3.1 19.6,1.5 C19.6,1.3 19.5,1.2 19.4,1.1 C19.3,1 19.2,1 19.1,1 L18.9,1 C17.9,1.4 16.9,1.7 15.9,1.9 C15.7,1.9 15.6,2.1 15.5,2.3 C14.8,4.2 13.1,6 11.3,8 C11.2,8.1 11.1,8.2 11,8.2 C10.8,8.2 10.7,8.1 10.7,8 C8.9,6.1 7.1,4.3 6.5,2.4 C6.4,2.2 6.3,2.1 6.1,2 C5.2,1.8 4.1,1.4 3.1,1.1 L2.9,1.1 C2.8,1.1 2.7,1.1 2.6,1.2 C2.5,1.3 2.4,1.5 2.4,1.6 C2.6,3.2 3.2,4.8 4.3,6.4 C5.3,7.9 6.7,9.4 8,10.7 C10.4,13.2 12.7,15.6 12.9,18.4 C12.9,18.7 13.1,18.9 13.4,18.9 L16.2,18.9 C16.3,18.9 16.5,18.8 16.5,18.7 C16.6,18.6 16.6,18.5 16.6,18.3 C16.6,17.8 16.5,17.3 16.4,16.7 L16.4,16.7 L16.4,16.7 C16.4,16.6 16.5,16.4 16.6,16.4 L16.6,16.3 L16.6,16.3 C18.9,16.3 20.5,17.5 20.5,18.1 L20.5,18.1 C20.5,18.7 19.2,19.6 17,20.2 L17,20.2 C16.8,20.3 16.7,20.4 16.7,20.6 C16.7,20.9 16.9,21.1 17.2,21.1 L17.3,21.1 C20.2,20.4 22.1,19.3 22.1,18 C22,16.3 19.4,14.9 15.6,14.3 L15.6,14.3 Z" id="Shape" sketch:type="MSShapeGroup"></path>
            <path d="M8,12.8 C7.9,12.7 7.8,12.7 7.7,12.7 C7.5,12.7 7.4,12.8 7.3,12.9 C7,13.4 6.7,13.9 6.5,14.3 C2.7,14.9 0.1,16.2 0.1,17.7 C0.1,19 2,20.1 4.9,20.7 L4.9,20.7 L5,20.8 C5.3,20.8 5.5,20.6 5.5,20.4 C5.5,20.2 5.4,20 5.2,20 L5.2,20 C3.1,19.4 1.7,18.5 1.7,17.9 L1.7,17.9 C1.7,17.3 3.2,16.7 5.5,16.4 L5.5,16.4 C5.6,16.4 5.7,16.5 5.7,16.6 L5.7,16.6 L5.7,16.6 C5.6,17.1 5.5,17.6 5.5,18.2 C5.5,18.3 5.5,18.5 5.6,18.6 C5.7,18.7 5.8,18.8 5.9,18.8 L8.7,18.8 C8.9,18.8 9.1,18.6 9.2,18.3 C9.3,17.4 9.5,16.6 10,15.7 C10.2,15.4 10,15.1 9.9,15 C9.4,14.4 8.8,13.7 8,12.8 L8,12.8 Z" id="Shape" sketch:type="MSShapeGroup"></path>
            <path d="M10.7,5.3 C10.8,5.4 10.9,5.2 11,5.2 L11,5.2 C11.1,5.2 11.2,5.5 11.3,5.3 C12.3,4.3 12.8,3.3 13,2.9 C13,2.9 13,2.9 13,2.8 C13,2.5 12.8,2.1 12.6,2.1 C12.4,2.1 11.9,1.9 11,1.9 L11,1.9 C10.1,1.9 9.6,2.1 9.4,2.1 C9.2,2.1 9,2.4 9,2.7 L9,2.8 C9.1,3.2 9.7,4.3 10.7,5.3 L10.7,5.3 Z" id="Shape" sketch:type="MSShapeGroup"></path>
        </g>
    </g>
</svg>