<?xml version="1.0" encoding="UTF-8" standalone="no"?>
<svg width="22px" height="22px" viewBox="0 0 22 22" version="1.1" xmlns="http://www.w3.org/2000/svg" xmlns:xlink="http://www.w3.org/1999/xlink" xmlns:sketch="http://www.bohemiancoding.com/sketch/ns">
    <!-- Generator: Sketch 3.4.4 (17249) - http://www.bohemiancoding.com/sketch -->
    <title>icon-text-superscript-22px</title>
    <desc>Created with Sketch.</desc>
    <defs></defs>
    <g id="22px" stroke="none" stroke-width="1" fill="none" fill-rule="evenodd" sketch:type="MSPage">
        <g id="icon-text-superscript-22px" sketch:type="MSArtboardGroup" fill="#3D4752">
            <path d="M16.1,7.6 C17.9,5.8 19,4.8 19,3.8 C19,3.1 18.6,2.6 17.8,2.6 C17.3,2.6 16.8,2.9 16.5,3.3 L16,2.9 C16.5,2.4 17.1,2 17.9,2 C19,2 19.7,2.7 19.7,3.7 C19.7,4.8 17.7,7 17.7,7 L20,7 L20,8 L16,8 L16,7.6 L16.1,7.6 Z" id="Shape" sketch:type="MSShapeGroup"></path>
            <path d="M4.75,16 L8.23529412,11.3529412 L4.66666667,6 L3,6 L3,5 L8,5 L8,6 L6.66666667,6 L9.29411765,9.94117647 L12.25,6 L11,6 L11,5 L15,5 L15,6 L13.25,6 L9.76470588,10.6470588 L13.3333333,16 L15,16 L15,17 L10,17 L10,16 L11.3333333,16 L8.70588235,12.0588235 L5.75,16 L7,16 L7,17 L3,17 L3,16 L4.75,16 Z" id="Rectangle-path" sketch:type="MSShapeGroup"></path>
        </g>
    </g>
</svg>