<?xml version="1.0" encoding="UTF-8" standalone="no"?>
<svg width="22px" height="22px" viewBox="0 0 22 22" version="1.1" xmlns="http://www.w3.org/2000/svg" xmlns:xlink="http://www.w3.org/1999/xlink" xmlns:sketch="http://www.bohemiancoding.com/sketch/ns">
    <!-- Generator: Sketch 3.4.4 (17249) - http://www.bohemiancoding.com/sketch -->
    <title>icon-linepath-curve-22px</title>
    <desc>Created with Sketch.</desc>
    <defs></defs>
    <g id="22px" stroke="none" stroke-width="1" fill="none" fill-rule="evenodd" sketch:type="MSPage">
        <g id="icon-linepath-curve-22px" sketch:type="MSArtboardGroup" fill="#3D4752">
            <path d="M18,1 C16.7,1 15.6,1.8 15.2,3 C8.6,3.2 3.2,8.5 3,15.2 C1.8,15.6 1,16.7 1,18 C1,19.7 2.3,21 4,21 C5.7,21 7,19.7 7,18 C7,16.7 6.2,15.6 5,15.2 C5.2,9.7 9.6,5.2 15.2,5 C15.6,6.2 16.7,7 18,7 C19.7,7 21,5.7 21,4 C21,2.3 19.7,1 18,1 L18,1 Z" id="Shape" sketch:type="MSShapeGroup"></path>
        </g>
    </g>
</svg>