<?xml version="1.0" encoding="UTF-8" standalone="no"?>
<svg width="22px" height="22px" viewBox="0 0 22 22" version="1.1" xmlns="http://www.w3.org/2000/svg" xmlns:xlink="http://www.w3.org/1999/xlink" xmlns:sketch="http://www.bohemiancoding.com/sketch/ns">
    <!-- Generator: Sketch 3.4.4 (17249) - http://www.bohemiancoding.com/sketch -->
    <title>icon-iconfinder-22px</title>
    <desc>Created with Sketch.</desc>
    <defs></defs>
    <g id="22px" stroke="none" stroke-width="1" fill="none" fill-rule="evenodd" sketch:type="MSPage">
        <g id="icon-iconfinder-22px" sketch:type="MSArtboardGroup" fill="#000000">
            <path d="M10.9376522,9.51870588 C10.5531304,9.51870588 10.1868696,9.59838235 9.854,9.74158824 C10.3053043,9.90173529 10.6287826,10.3374412 10.6287826,10.8501765 C10.6287826,11.5000294 10.1109565,12.0252059 9.47104348,12.0252059 C8.96573913,12.0252059 8.53634783,11.6975 8.37852174,11.2387647 C8.23686957,11.5770588 8.15886957,11.9487059 8.15886957,12.3386176 C8.15886957,13.8964118 9.40321739,15.1582647 10.9373913,15.1582647 C12.472087,15.1582647 13.7161739,13.8961471 13.7161739,12.3386176 C13.7164348,10.7818824 12.4723478,9.51870588 10.9376522,9.51870588 L10.9376522,9.51870588 Z" id="Shape" sketch:type="MSShapeGroup"></path>
            <path d="M14.6915652,6.22073529 C12.9056522,5.09467647 10.673913,4.80614706 8.62426087,5.52561765 L8.62556522,5.52429412 C9.60408696,4.80111765 10.8095652,4.37388235 12.1136522,4.37388235 C12.8425217,4.37388235 13.5351304,4.48902941 14.1789565,4.73414706 C14.2206957,4.74923529 14.2757391,4.75929412 14.3007826,4.75929412 C14.4544348,4.75929412 14.5673913,4.65208824 14.5681739,4.50041176 C14.5686957,4.39691176 14.5183478,4.31114706 14.4531304,4.25 C12.7483478,2.65752941 10.9373913,2 10.9373913,2 C6.896,3.63958824 3.92391304,7.60620588 3.8386087,12.1385 C3.80208696,13.4278824 4.10547826,14.7426765 4.78791304,15.941 C5.19278261,16.6527941 5.6993913,17.2677059 6.27747826,17.7777941 C5.17086957,17.2788235 4.20434783,16.4330882 3.55217391,15.2874412 C3.18773913,14.6468529 2.93913043,13.9803235 2.82669565,13.2928824 C2.81913043,13.2484118 2.79982609,13.1952059 2.78730435,13.1729706 C2.7106087,13.0374412 2.56269565,12.9919118 2.43278261,13.0676176 C2.34408696,13.1187059 2.29634783,13.2060588 2.27730435,13.2936765 C1.76965217,15.5886765 2.11426087,17.5088529 2.11426087,17.5088529 C5.58434783,20.2803235 10.5489565,20.8867647 14.4883478,18.5787941 C16.3415652,17.4924412 17.530087,15.6882059 17.9086087,13.7111176 L17.9096522,13.7137647 C18.0372174,14.9364412 17.7987826,16.2083529 17.1468696,17.3545294 C16.7826957,17.9945882 16.3384348,18.5467647 15.8073043,18.9898824 C15.7728696,19.0182059 15.7368696,19.0621471 15.7246087,19.0838529 C15.647913,19.2183235 15.6826087,19.3723824 15.812,19.4483529 C15.9001739,19.5005 15.9982609,19.4983824 16.0825217,19.4721765 C18.2946957,18.7707059 19.7618261,17.5075294 19.7618261,17.5075294 C20.3813913,13.1494118 18.4945217,8.56788235 14.6915652,6.22073529 L14.6915652,6.22073529 Z M10.9376522,17.0376765 C7.69765217,17.0376765 5.07147826,14.7334118 5.07147826,11.8894118 C5.07147826,11.5868529 5.10304348,11.2898529 5.16017391,11.0010588 C6.37765217,9.73444118 8.50921739,8.89241176 10.9376522,8.89241176 C13.3658261,8.89241176 15.4973913,9.73444118 16.7148696,11.0010588 C16.7725217,11.2898529 16.804087,11.5868529 16.804087,11.8894118 C16.804087,14.7334118 14.1776522,17.0376765 10.9376522,17.0376765 L10.9376522,17.0376765 Z" id="Shape" sketch:type="MSShapeGroup"></path>
        </g>
    </g>
</svg>