<?xml version="1.0" encoding="UTF-8" standalone="no"?>
<svg width="22px" height="22px" viewBox="0 0 22 22" version="1.1" xmlns="http://www.w3.org/2000/svg" xmlns:xlink="http://www.w3.org/1999/xlink" xmlns:sketch="http://www.bohemiancoding.com/sketch/ns">
    <!-- Generator: Sketch 3.4.4 (17249) - http://www.bohemiancoding.com/sketch -->
    <title>icon-question-circle-22px</title>
    <desc>Created with Sketch.</desc>
    <defs></defs>
    <g id="22px" stroke="none" stroke-width="1" fill="none" fill-rule="evenodd" sketch:type="MSPage">
        <g id="icon-question-circle-22px" sketch:type="MSArtboardGroup" fill="#3D4752">
            <path d="M11,2 C6,2 2,6 2,11 C2,16 6,20 11,20 C16,20 20,16 20,11 C20,6 16,2 11,2 L11,2 Z M12,17 L10,17 L10,15 L12,15 L12,17 L12,17 Z M12,12 L12,14 L10,14 L10,12 C10,11 10.7,10.2 11.7,10 C12.7,9.8 13,9.8 13,8.5 C13,7.8 12.8,7 11,7 C10.2,7 9.4,7.3 9,7.9 C8.7,8.4 8.7,8.9 8.9,9.7 L7,10.4 C6.5,9.1 6.6,7.8 7.3,6.8 C8,5.7 9.4,5 10.9,5 C14.5,5 14.9,7.4 14.9,8.5 C15,11.5 13.1,11.8 12,12 L12,12 Z" id="Shape" sketch:type="MSShapeGroup"></path>
        </g>
    </g>
</svg>