<?xml version="1.0" encoding="UTF-8" standalone="no"?>
<svg width="22px" height="22px" viewBox="0 0 22 22" version="1.1" xmlns="http://www.w3.org/2000/svg" xmlns:xlink="http://www.w3.org/1999/xlink" xmlns:sketch="http://www.bohemiancoding.com/sketch/ns">
    <!-- Generator: Sketch 3.4.4 (17249) - http://www.bohemiancoding.com/sketch -->
    <title>icon-stalker-22px</title>
    <desc>Created with Sketch.</desc>
    <defs></defs>
    <g id="22px" stroke="none" stroke-width="1" fill="none" fill-rule="evenodd" sketch:type="MSPage">
        <g id="icon-stalker-22px" sketch:type="MSArtboardGroup" fill="#3D4752">
            <path d="M20.6,15.8 L17.5,14.8 L17.2,13.7 C18.3,13.1 19,11.8 19,10.3 C19,8.2 18.5,6.5 16,6.5 C13.5,6.5 13,8.2 13,10.3 C13,11.8 13.7,13.2 14.8,13.7 L14.5,14.8 L13,15.4 L9,13 L9,11.3 C10.2,10.4 11,8.8 11,7 C11,4.2 10.3,2 7,2 C3.7,2 3,4.2 3,7 C3,8.8 3.8,10.4 5,11.3 L5,13 L1,15.4 C0.4,15.8 0,16.4 0,17.1 L0,20 L11,20 L14,20 L22,20 L22,17.7 C22,16.8 21.4,16.1 20.6,15.8 L20.6,15.8 Z" id="Shape" sketch:type="MSShapeGroup"></path>
        </g>
    </g>
</svg>