<?xml version="1.0" encoding="UTF-8" standalone="no"?>
<svg width="22px" height="22px" viewBox="0 0 22 22" version="1.1" xmlns="http://www.w3.org/2000/svg" xmlns:xlink="http://www.w3.org/1999/xlink" xmlns:sketch="http://www.bohemiancoding.com/sketch/ns">
    <!-- Generator: Sketch 3.4.4 (17249) - http://www.bohemiancoding.com/sketch -->
    <title>icon-lucidchart-22px</title>
    <desc>Created with Sketch.</desc>
    <defs></defs>
    <g id="22px" stroke="none" stroke-width="1" fill="none" fill-rule="evenodd" sketch:type="MSPage">
        <g id="icon-lucidchart-22px" sketch:type="MSArtboardGroup" fill="#F78C1F">
            <path d="M10.883,15.365 L10.883,15.365 C9.7535,15.335 8.681,14.90225 7.862,14.08475 C7.052,13.27475 6.704,12.215 6.70025,11.1515 L6.6995,11.153 C6.68975,10.58075 6.46925,10.01075 6.032,9.5735 C5.14025,8.6825 3.69425,8.6825 2.8025,9.5735 C1.91,10.46675 1.91,11.91125 2.8025,12.8045 C3.23975,13.241 3.80825,13.46225 4.38125,13.47125 L4.379,13.472 C5.4485,13.472 6.491,13.811 7.30625,14.62775 C8.111,15.43175 8.54225,16.50425 8.594,17.606 C8.58425,18.20375 8.80625,18.806 9.26225,19.26275 C10.154,20.156 11.59925,20.156 12.49025,19.26275 C13.38275,18.37025 13.38275,16.925 12.49025,16.03325 C12.047,15.59 11.46575,15.3665 10.883,15.365" id="Fill-13" sketch:type="MSShapeGroup"></path>
            <path d="M10.883,7.01225 L10.883,7.013 C9.7535,7.043 8.681,7.475 7.862,8.2925 C7.052,9.10325 6.704,10.16225 6.70025,11.2265 L6.6995,11.225 C6.68975,11.7965 6.46925,12.3665 6.032,12.8045 C5.14025,13.69475 3.69425,13.69475 2.8025,12.8045 C1.91,11.91125 1.91,10.46675 2.8025,9.5735 C3.23975,9.13775 3.80825,8.915 4.38125,8.90675 L4.379,8.90525 C5.4485,8.90525 6.491,8.567 7.30625,7.75025 C8.111,6.9455 8.54225,5.873 8.594,4.772 C8.58425,4.1735 8.80625,3.57275 9.26225,3.1145 C10.154,2.2235 11.59925,2.2235 12.49025,3.1145 C13.38275,4.00775 13.38275,5.45225 12.49025,6.344 C12.047,6.7895 11.46575,7.0115 10.883,7.01225" id="Fill-15" sketch:type="MSShapeGroup"></path>
            <path d="M18.95075,16.03325 C18.059,15.14225 16.613,15.14225 15.72125,16.03325 C14.828,16.925 14.828,18.37025 15.72125,19.26275 C16.613,20.15525 18.059,20.15525 18.95075,19.26275 C19.8425,18.37025 19.8425,16.92575 18.95075,16.03325" id="Fill-14" sketch:type="MSShapeGroup"></path>
            <path d="M18.95075,6.344 C18.059,7.2365 16.613,7.2365 15.72125,6.344 C14.828,5.453 14.828,4.00775 15.72125,3.1145 C16.613,2.2235 18.059,2.2235 18.95075,3.1145 C19.8425,4.00775 19.8425,5.45225 18.95075,6.344" id="Fill-16" sketch:type="MSShapeGroup"></path>
        </g>
    </g>
</svg>