<?xml version="1.0" encoding="UTF-8" standalone="no"?>
<svg width="22px" height="22px" viewBox="0 0 22 22" version="1.1" xmlns="http://www.w3.org/2000/svg" xmlns:xlink="http://www.w3.org/1999/xlink" xmlns:sketch="http://www.bohemiancoding.com/sketch/ns">
    <!-- Generator: Sketch 3.4.4 (17249) - http://www.bohemiancoding.com/sketch -->
    <title>icon-team-22px</title>
    <desc>Created with Sketch.</desc>
    <defs></defs>
    <g id="22px" stroke="none" stroke-width="1" fill="none" fill-rule="evenodd" sketch:type="MSPage">
        <g id="icon-team-22px" sketch:type="MSArtboardGroup" fill="#3D4752">
            <path d="M11,7 C12.657,7 14,5.657 14,4 C14,2.343 12.657,1 11,1 C9.343,1 8,2.343 8,4 C8,5.657 9.343,7 11,7" id="Fill-1" sketch:type="MSShapeGroup"></path>
            <path d="M21,10 L15,10 C15,8.896 14.104,8 13,8 L9,8 C7.896,8 7,8.896 7,10 L1,10 C0.448,10 0,10.448 0,11 L0,14 L1,16 L1,20 C1,20.552 1.448,21 2,21 L5,21 C5.552,21 6,20.552 6,20 L6,16 L7,14 L7,12 L8,14 L8,20 C8,20.552 8.448,21 9,21 L13,21 C13.552,21 14,20.552 14,20 L14,14 L15,12 L15,14 L16,16 L16,20 C16,20.552 16.448,21 17,21 L20,21 C20.552,21 21,20.552 21,20 L21,16 L22,14 L22,11 C22,10.448 21.552,10 21,10" id="Fill-3" sketch:type="MSShapeGroup"></path>
            <path d="M18.5,9 C19.881,9 21,7.881 21,6.5 C21,5.119 19.881,4 18.5,4 C17.119,4 16,5.119 16,6.5 C16,7.881 17.119,9 18.5,9" id="Fill-5" sketch:type="MSShapeGroup"></path>
            <path d="M3.5,9 C4.881,9 6,7.881 6,6.5 C6,5.119 4.881,4 3.5,4 C2.119,4 1,5.119 1,6.5 C1,7.881 2.119,9 3.5,9" id="Fill-7" sketch:type="MSShapeGroup"></path>
        </g>
    </g>
</svg>