<?xml version="1.0" encoding="UTF-8" standalone="no"?>
<svg width="22px" height="22px" viewBox="0 0 22 22" version="1.1" xmlns="http://www.w3.org/2000/svg" xmlns:xlink="http://www.w3.org/1999/xlink" xmlns:sketch="http://www.bohemiancoding.com/sketch/ns">
    <!-- Generator: Sketch 3.4.4 (17249) - http://www.bohemiancoding.com/sketch -->
    <title>icon-finger-22px</title>
    <desc>Created with Sketch.</desc>
    <defs></defs>
    <g id="22px" stroke="none" stroke-width="1" fill="none" fill-rule="evenodd" sketch:type="MSPage">
        <g id="icon-finger-22px" sketch:type="MSArtboardGroup" fill="#3D4752">
            <path d="M8.4801,20 L5.8841,16.389 C5.8841,16.389 4.2071,14.02 4.1531,12.84 C4.0991,11.66 3.9491,11.171 4.0181,10.521 C4.1531,9.241 5.6941,9.171 5.9111,10.179 C6.3161,11.776 7.3261,12.858 7.3261,12.858 C7.3261,12.35 7.6151,11.888 7.6151,11.075 C7.6151,8.136 6.7491,4.339 6.7491,3.657 C6.7491,1.424 8.8641,1.508 9.3451,3.547 C9.5781,4.532 10.3801,8.345 10.3801,8.345 C10.3801,8.345 11.8101,7.143 12.8071,8.42 C13.1841,8.065 15.0251,8.121 15.4041,8.965 C16.6481,8.448 17.9731,10.561 17.9731,10.853 C17.9731,12.705 18.0001,12.413 18.0001,14.646 C18.0001,16.879 16.2691,20 16.2691,20 L8.4801,20 L8.4801,20 Z" id="Shape" sketch:type="MSShapeGroup"></path>
        </g>
    </g>
</svg>