<?xml version="1.0" encoding="UTF-8" standalone="no"?>
<svg width="22px" height="22px" viewBox="0 0 22 22" version="1.1" xmlns="http://www.w3.org/2000/svg" xmlns:xlink="http://www.w3.org/1999/xlink" xmlns:sketch="http://www.bohemiancoding.com/sketch/ns">
    <!-- Generator: Sketch 3.4.4 (17249) - http://www.bohemiancoding.com/sketch -->
    <title>icon-text-bold-22px</title>
    <desc>Created with Sketch.</desc>
    <defs></defs>
    <g id="22px" stroke="none" stroke-width="1" fill="none" fill-rule="evenodd" sketch:type="MSPage">
        <g id="icon-text-bold-22px" sketch:type="MSArtboardGroup" fill="#3D4752">
            <path d="M6,4 L11.2,4 C11.8,4 12.4,4 13,4.1 C13.6,4.2 14.2,4.4 14.7,4.6 C15.2,4.9 15.6,5.2 15.9,5.7 C16.2,6.2 16.4,6.8 16.4,7.5 C16.4,8.3 16.2,8.9 15.7,9.5 C15.3,10 14.7,10.4 13.9,10.6 L13.9,10.6 C14.4,10.7 14.8,10.8 15.2,11 C15.6,11.2 15.9,11.4 16.2,11.7 C16.5,12 16.7,12.3 16.8,12.7 C16.9,13.1 17,13.5 17,14 C17,14.7 16.8,15.4 16.5,15.8 C16.2,16.3 15.8,16.7 15.3,17 C14.8,17.3 14.2,17.5 13.6,17.7 C13,17.8 12.4,17.9 11.7,17.9 L6,17.9 L6,4 L6,4 Z M9.1,9.6 L11.3,9.6 C11.5,9.6 11.8,9.6 12,9.5 C12.2,9.4 12.4,9.4 12.6,9.2 C12.8,9.1 12.9,8.9 13,8.7 C13.1,8.5 13.2,8.3 13.2,8 C13.2,7.7 13.1,7.5 13,7.3 C12.9,7.1 12.7,7 12.5,6.9 C12.3,6.8 12.1,6.7 11.8,6.7 C11.5,6.7 11.3,6.6 11.1,6.6 L9,6.6 L9,9.6 L9.1,9.6 Z M9.1,15.4 L11.9,15.4 C12.1,15.4 12.4,15.4 12.6,15.3 C12.8,15.2 13.1,15.2 13.3,15 C13.5,14.9 13.7,14.7 13.8,14.5 C13.9,14.3 14,14 14,13.7 C14,13.4 13.9,13.1 13.8,12.9 C13.6,12.7 13.4,12.5 13.2,12.4 C12.9,12.3 12.7,12.2 12.4,12.2 C12.1,12.2 11.8,12.1 11.6,12.1 L9.3,12.1 L9.3,15.4 L9.1,15.4 Z" id="Shape" sketch:type="MSShapeGroup"></path>
        </g>
    </g>
</svg>