<?xml version="1.0" encoding="UTF-8" standalone="no"?>
<svg width="22px" height="22px" viewBox="0 0 22 22" version="1.1" xmlns="http://www.w3.org/2000/svg" xmlns:xlink="http://www.w3.org/1999/xlink" xmlns:sketch="http://www.bohemiancoding.com/sketch/ns">
    <!-- Generator: Sketch 3.4.4 (17249) - http://www.bohemiancoding.com/sketch -->
    <title>icon-text-italic-22px</title>
    <desc>Created with Sketch.</desc>
    <defs></defs>
    <g id="22px" stroke="none" stroke-width="1" fill="none" fill-rule="evenodd" sketch:type="MSPage">
        <g id="icon-text-italic-22px" sketch:type="MSArtboardGroup" fill="#3D4752">
            <path d="M15.5,4 L15.4,4.7 C15.2,4.7 14.9,4.7 14.6,4.8 C14.3,4.9 14,4.9 13.9,4.9 C13.6,5 13.4,5.1 13.3,5.3 C13.2,5.5 13.1,5.7 13,5.9 L10.6,16.1 L10.6,16.3 L10.6,16.5 C10.6,16.7 10.6,16.8 10.7,16.9 C10.8,17 10.9,17.1 11.1,17.2 C11.2,17.2 11.4,17.3 11.7,17.4 C12,17.5 12.3,17.5 12.4,17.5 L12.3,18.2 L6,18.2 L6.1,17.5 C6.3,17.5 6.5,17.5 6.9,17.4 C7.2,17.4 7.5,17.3 7.6,17.3 C7.9,17.2 8,17.1 8.2,16.9 C8.3,16.7 8.4,16.5 8.5,16.3 L10.9,6.1 L10.9,5.9 L10.9,5.7 C10.9,5.6 10.9,5.5 10.8,5.4 L10.5,5.1 C10.4,5 10.1,4.9 9.8,4.9 C9.5,4.8 9.3,4.8 9.1,4.8 L9.2,4.1 L15.5,4.1 L15.5,4 Z" id="Shape" sketch:type="MSShapeGroup"></path>
        </g>
    </g>
</svg>