<?xml version="1.0" encoding="UTF-8" standalone="no"?>
<svg width="22px" height="22px" viewBox="0 0 22 22" version="1.1" xmlns="http://www.w3.org/2000/svg" xmlns:xlink="http://www.w3.org/1999/xlink" xmlns:sketch="http://www.bohemiancoding.com/sketch/ns">
    <!-- Generator: Sketch 3.4.4 (17249) - http://www.bohemiancoding.com/sketch -->
    <title>icon-zoom-out-22px</title>
    <desc>Created with Sketch.</desc>
    <defs></defs>
    <g id="22px" stroke="none" stroke-width="1" fill="none" fill-rule="evenodd" sketch:type="MSPage">
        <g id="icon-zoom-out-22px" sketch:type="MSArtboardGroup" fill="#3D4752">
            <path d="M8.5,3 C11.533,3 14,5.467 14,8.5 C14,11.533 11.533,14 8.5,14 C5.467,14 3,11.533 3,8.5 C3,5.467 5.467,3 8.5,3 M8.5,1 C4.358,1 1,4.358 1,8.5 C1,12.642 4.358,16 8.5,16 C12.642,16 16,12.642 16,8.5 C16,4.358 12.642,1 8.5,1" id="Fill-1" sketch:type="MSShapeGroup"></path>
            <path d="M5,8 L5,9 L12,9 L12,8 L5,8 Z" id="Fill-2-Copy" sketch:type="MSShapeGroup"></path>
            <path d="M19,20.5 C18.616,20.5 18.232,20.354 17.939,20.061 L14.481,16.603 C13.895,16.017 13.895,15.068 14.481,14.482 C15.067,13.896 16.016,13.896 16.602,14.482 L20.061,17.94 C20.646,18.525 20.646,19.475 20.061,20.061 C19.768,20.354 19.384,20.5 19,20.5" id="Fill-2" sketch:type="MSShapeGroup"></path>
        </g>
    </g>
</svg>