<?xml version="1.0" encoding="UTF-8" standalone="no"?>
<svg width="22px" height="22px" viewBox="0 0 22 22" version="1.1" xmlns="http://www.w3.org/2000/svg" xmlns:xlink="http://www.w3.org/1999/xlink" xmlns:sketch="http://www.bohemiancoding.com/sketch/ns">
    <!-- Generator: Sketch 3.4.4 (17249) - http://www.bohemiancoding.com/sketch -->
    <title>icon-google-22px</title>
    <desc>Created with Sketch.</desc>
    <defs></defs>
    <g id="22px" stroke="none" stroke-width="1" fill="none" fill-rule="evenodd" sketch:type="MSPage">
        <g id="icon-google-22px" sketch:type="MSArtboardGroup">
            <path d="M8.25750769,3.25605093 C6.25926361,3.94189363 4.55656557,5.44189797 3.60817159,7.34013356 C3.27733648,7.99500272 3.0391352,8.68969499 2.89356775,9.41093602 C2.53185469,11.1985518 2.78328938,13.105637 3.60376045,14.7339603 C4.13750777,15.7959103 4.90504522,16.7428157 5.83138354,17.4817559 C6.70919936,18.1808729 7.72817151,18.7029983 8.81331067,18.9906098 C10.1807625,19.3578675 11.636437,19.3490179 13.012711,19.0348577 C14.256651,18.7472463 15.434424,18.1498994 16.3739957,17.2826402 C17.3665011,16.3667084 18.0766938,15.1631651 18.4516402,13.8667011 C18.8618758,12.4551926 18.9148094,10.9463387 18.6589636,9.49500706 L10.9394777,9.49500706 L10.9394777,12.7074057 L15.4123684,12.7074057 C15.2403341,13.7339574 14.6315975,14.6720132 13.7714262,15.2516609 C13.2288566,15.6189186 12.6068866,15.8534326 11.9628609,15.9684771 C11.3188352,16.0790969 10.6483428,16.0923713 10.0043171,15.9640524 C9.34705798,15.8313086 8.72508798,15.5569715 8.17810726,15.1720147 C7.30470256,14.5569686 6.63862121,13.6587359 6.29896383,12.6454587 C5.95048418,11.6144822 5.94607304,10.4684612 6.29896383,9.44190956 C6.54598738,8.71624374 6.95181178,8.04810021 7.48997023,7.49942606 C8.15164045,6.81800816 9.01181174,6.33128108 9.94256118,6.13216546 C10.7365655,5.96402338 11.5746811,5.99499692 12.3510408,6.22951088 C13.012711,6.4286265 13.6214476,6.7958842 14.1199059,7.27376169 C14.6227752,6.76933545 15.1256446,6.26490921 15.628514,5.76048297 C15.8931821,5.49057068 16.1710835,5.22950798 16.4269294,4.95074611 C15.663803,4.24277946 14.7639315,3.67198134 13.7846596,3.30914843 C12.0202057,2.65427928 10.035195,2.6410049 8.25750769,3.25605093 L8.25750769,3.25605093 Z" id="Shape" fill="#FFFFFF" sketch:type="MSShapeGroup"></path>
            <path d="M8.25750769,3.25605093 C10.0307839,2.6410049 12.0202057,2.65427928 13.7846596,3.30472364 C14.7639315,3.66755655 15.6593919,4.23392987 16.4269294,4.94632132 C16.1710835,5.22508319 15.8931821,5.48614589 15.628514,5.75605818 C15.1256446,6.26048442 14.6227752,6.76491066 14.1199059,7.2693369 C13.6214476,6.79145941 13.012711,6.4286265 12.3510408,6.22508608 C11.5746811,5.99057213 10.7365655,5.9551738 9.94256118,6.12774067 C9.01622287,6.32685629 8.15605158,6.81358336 7.48997023,7.49500127 C6.95181178,8.03925063 6.54598738,8.71181895 6.29896383,9.43748477 C5.40350346,8.7383677 4.50804309,8.04367542 3.60817159,7.34455835 C4.55656557,5.44189797 6.25926361,3.94189363 8.25750769,3.25605093 L8.25750769,3.25605093 Z" id="Shape" fill="#EA4335" sketch:type="MSShapeGroup"></path>
            <path d="M2.89797888,9.40651123 C3.04354633,8.68969499 3.28174761,7.99057792 3.61258272,7.33570877 C4.50804309,8.03482584 5.40350346,8.72951812 6.30337496,9.42863519 C5.95048418,10.4596116 5.95048418,11.6056326 6.30337496,12.6321843 C5.40791459,13.3313014 4.51245423,14.0304184 3.61699386,14.7251107 C2.78770051,13.1012122 2.53626583,11.194127 2.89797888,9.40651123 L2.89797888,9.40651123 Z" id="Shape" fill="#FBBC05" sketch:type="MSShapeGroup"></path>
            <path d="M10.9394777,9.49058227 L18.6589636,9.49058227 C18.9148094,10.9374891 18.8574646,12.446343 18.4516402,13.8622764 C18.0766938,15.1587403 17.3665011,16.3622836 16.3739957,17.2782155 C15.5050022,16.6012223 14.6360086,15.9242292 13.7670151,15.2472361 C14.6271864,14.6675884 15.235923,13.7295326 15.4079572,12.702981 L10.9350665,12.702981 C10.9394777,11.6321814 10.9394777,10.5613818 10.9394777,9.49058227 L10.9394777,9.49058227 Z" id="Shape" fill="#4285F4" sketch:type="MSShapeGroup"></path>
            <path d="M3.60817159,14.7295355 C4.50363196,14.0348432 5.39909232,13.3357262 6.29455269,12.6366091 C6.63862121,13.6498864 7.30029143,14.548119 8.17369612,15.1631651 C8.72067684,15.5481219 9.34705798,15.822459 9.99990594,15.9552028 C10.6439316,16.0879465 11.310013,16.0702473 11.9584498,15.9596276 C12.6024755,15.844583 13.2244455,15.610069 13.7670151,15.2428113 C14.6360086,15.9198044 15.5050022,16.5967975 16.3739957,17.2737907 C15.434424,18.1454746 14.256651,18.7383967 13.012711,19.0260081 C11.636437,19.3401683 10.1807625,19.3490179 8.81331067,18.9817602 C7.72817151,18.6941488 6.70919936,18.1764481 5.83138354,17.4729063 C4.90945636,16.7383909 4.1419189,15.7914855 3.60817159,14.7295355 L3.60817159,14.7295355 Z" id="Shape" fill="#34A853" sketch:type="MSShapeGroup"></path>
        </g>
    </g>
</svg>