<?xml version="1.0" encoding="UTF-8" standalone="no"?>
<svg width="18px" height="18px" viewBox="0 0 18 18" version="1.1" xmlns="http://www.w3.org/2000/svg" xmlns:xlink="http://www.w3.org/1999/xlink" xmlns:sketch="http://www.bohemiancoding.com/sketch/ns">
    <!-- Generator: Sketch 3.4.4 (17249) - http://www.bohemiancoding.com/sketch -->
    <title>icon-gear-18px</title>
    <desc>Created with Sketch.</desc>
    <defs></defs>
    <g id="18px" stroke="none" stroke-width="1" fill="none" fill-rule="evenodd" sketch:type="MSPage">
        <g id="icon-gear-18px" sketch:type="MSArtboardGroup" fill="#5A5A5A">
            <path d="M9,10.689 C7.926,10.689 7.056,9.818 7.056,8.745 C7.056,7.671 7.926,6.8 9,6.8 C10.074,6.8 10.944,7.671 10.944,8.745 C10.944,9.818 10.074,10.689 9,10.689 L9,10.689 Z M15.821,10.745 C15.934,9.745 16,9.28 16,8.745 C16,8.209 15.934,7.745 15.821,6.745 L13.396,6.745 C13.203,6.745 12.914,5.923 12.545,5.493 L13.756,3.507 C12.995,2.801 12.082,2.313 11.066,2 L9.851,4.131 C9.575,4.08 9.291,4.064 9,4.064 C8.709,4.064 8.425,4.101 8.149,4.152 L6.934,2.052 C5.918,2.365 5.005,2.911 4.244,3.617 L5.455,5.492 C5.086,5.922 4.797,6.745 4.604,6.745 L2.179,6.745 C2.066,7.745 2,8.209 2,8.745 C2,9.28 2.066,9.745 2.179,10.745 L4.604,10.745 C4.797,10.745 5.086,11.566 5.455,11.996 L4.244,13.982 C5.005,14.688 5.918,15.176 6.934,15.489 L8.149,13.358 C8.425,13.409 8.709,13.425 9,13.425 C9.291,13.425 9.575,13.388 9.851,13.337 L11.066,15.437 C12.082,15.124 12.995,14.578 13.756,13.872 L12.545,11.997 C12.914,11.567 13.203,10.745 13.396,10.745 L15.821,10.745 Z" id="Page-1" sketch:type="MSShapeGroup"></path>
        </g>
    </g>
</svg>