<?xml version="1.0" encoding="UTF-8" standalone="no"?>
<svg width="22px" height="22px" viewBox="0 0 22 22" version="1.1" xmlns="http://www.w3.org/2000/svg" xmlns:xlink="http://www.w3.org/1999/xlink" xmlns:sketch="http://www.bohemiancoding.com/sketch/ns">
    <!-- Generator: Sketch 3.4.4 (17249) - http://www.bohemiancoding.com/sketch -->
    <title>icon-linepath-double-22px</title>
    <desc>Created with Sketch.</desc>
    <defs></defs>
    <g id="22px" stroke="none" stroke-width="1" fill="none" fill-rule="evenodd" sketch:type="MSPage">
        <g id="icon-linepath-double-22px" sketch:type="MSArtboardGroup" fill="#3D4752">
            <path d="M20,19 C14,19 12,16.1 10.2,13.6 C8.5,11.1 7,9 2,9 L2,7 C8,7 10,9.9 11.8,12.4 C13.5,14.9 15,17 20,17 L20,19 L20,19 Z" id="Shape" sketch:type="MSShapeGroup"></path>
            <path d="M20,15 C15.4,15 13.7,12.6 12.1,10.2 C10.3,7.6 8.5,5 2,5 L2,3 C9.6,3 11.9,6.4 13.8,9.1 C15.3,11.3 16.4,13 20,13 L20,15 L20,15 Z" id="Shape" sketch:type="MSShapeGroup"></path>
        </g>
    </g>
</svg>