<?xml version="1.0" encoding="UTF-8" standalone="no"?>
<svg width="22px" height="22px" viewBox="0 0 22 22" version="1.1" xmlns="http://www.w3.org/2000/svg" xmlns:xlink="http://www.w3.org/1999/xlink" xmlns:sketch="http://www.bohemiancoding.com/sketch/ns">
    <!-- Generator: Sketch 3.4.4 (17249) - http://www.bohemiancoding.com/sketch -->
    <title>icon-sort-22px</title>
    <desc>Created with Sketch.</desc>
    <defs></defs>
    <g id="22px" stroke="none" stroke-width="1" fill="none" fill-rule="evenodd" sketch:type="MSPage">
        <g id="icon-sort-22px" sketch:type="MSArtboardGroup" fill="#3D4752">
            <path d="M1.4,19.1 L4.3,14.7 L1.7,14.7 L1.7,13.5 L6.1,13.5 L6.1,14.4 L3.2,18.8 L6.1,18.8 L6.1,20 L1.4,20 L1.4,19.1 L1.4,19.1 Z M4.6,5.8 L4.4,5.2 C4.2,4.6 4,3.8 3.9,3.1 L3.9,3.1 C3.7,3.8 3.6,4.5 3.4,5.2 L3.2,5.8 L4.6,5.8 L4.6,5.8 Z M4.9,7 L2.9,7 L2.5,8.5 L1,8.5 L3,2 L4.8,2 L6.8,8.5 L5.2,8.5 L4.9,7 L4.9,7 Z M20,20 L10.1,20 C9.5,20 9.1,19.6 9.1,19 L9.1,18 C9.1,17.4 9.5,17 10.1,17 L20,17 C20.6,17 21,17.4 21,18 L21,19 C21,19.6 20.6,20 20,20 L20,20 Z M17,15 L10.1,15 C9.5,15 9.1,14.6 9.1,14 L9.1,13 C9.1,12.4 9.5,12 10.1,12 L17,12 C17.6,12 18,12.4 18,13 L18,14 C18,14.6 17.6,15 17,15 L17,15 Z M15,10 L10.1,10 C9.5,10 9.1,9.6 9.1,9 L9.1,8 C9.1,7.4 9.5,7 10.1,7 L15,7 C15.6,7 16,7.4 16,8 L16,9 C16,9.6 15.6,10 15,10 L15,10 Z M13.1,5 L10.1,5 C9.5,5 9.1,4.6 9.1,4 L9.1,3 C9.1,2.4 9.5,2 10.1,2 L13.1,2 C13.7,2 14.1,2.4 14.1,3 L14.1,4 C14.1,4.6 13.6,5 13.1,5 L13.1,5 Z" id="SVGID_1_" sketch:type="MSShapeGroup"></path>
        </g>
    </g>
</svg>