<?xml version="1.0" encoding="UTF-8" standalone="no"?>
<svg width="22px" height="22px" viewBox="0 0 22 22" version="1.1" xmlns="http://www.w3.org/2000/svg" xmlns:xlink="http://www.w3.org/1999/xlink" xmlns:sketch="http://www.bohemiancoding.com/sketch/ns">
    <!-- Generator: Sketch 3.4.4 (17249) - http://www.bohemiancoding.com/sketch -->
    <title>icon-text-strikethrough-22px</title>
    <desc>Created with Sketch.</desc>
    <defs></defs>
    <g id="22px" stroke="none" stroke-width="1" fill="none" fill-rule="evenodd" sketch:type="MSPage">
        <g id="icon-text-strikethrough-22px" sketch:type="MSArtboardGroup" fill="#3D4752">
            <path d="M10.1536941,11 C10.2363025,11.0353784 10.3185439,11.0686707 10.4,11.1 L12.4,11.9 C13.7,12.5 14.7,12.9 14.7,14.3 C14.7,15.6 13.6,16.5 11.8,16.5 C10.4,16.5 9,15.8 8,14.8 L7,16 C8.2,17.2 9.9,18 11.8,18 C14.7,18 16.5,16.2 16.5,14.1 C16.5,12.5395003 15.7694522,11.6486694 14.6883632,11 L18,11 L18,10 L12.5125,10 L11.8,9.7 C10.7,9.3 9.5,8.8 9.5,7.5 C9.5,6.3 10.5,5.5 12,5.5 C13.3,5.5 14.3,6 15.1,6.8 L16,5.7 C15,4.7 13.5,4 11.9,4 C9.4,4 7.6,5.5 7.6,7.6 C7.6,8.6527748 8.01562554,9.42846591 8.59892591,10 L4,10 L4,11 L10.1536941,11 Z" id="Shape" sketch:type="MSShapeGroup"></path>
        </g>
    </g>
</svg>