<?xml version="1.0" encoding="UTF-8" standalone="no"?>
<svg width="22px" height="22px" viewBox="0 0 22 22" version="1.1" xmlns="http://www.w3.org/2000/svg" xmlns:xlink="http://www.w3.org/1999/xlink" xmlns:sketch="http://www.bohemiancoding.com/sketch/ns">
    <!-- Generator: Sketch 3.4.4 (17249) - http://www.bohemiancoding.com/sketch -->
    <title>icon-pin-22px</title>
    <desc>Created with Sketch.</desc>
    <defs></defs>
    <g id="22px" stroke="none" stroke-width="1" fill="none" fill-rule="evenodd" sketch:type="MSPage">
        <g id="icon-pin-22px" sketch:type="MSArtboardGroup" fill="#3D4752">
            <path d="M15.1299,6.69765144 C13.7919,5.35965144 12.3129,4.66965144 11.8269,5.15565144 C11.5249,5.45765144 11.6769,6.14065144 12.1539,6.93565144 L8.2549,9.82465144 C7.2339,9.12165144 6.4019,8.81965144 6.1009,9.11965144 C5.6149,9.60665144 6.6989,11.4796514 8.5239,13.3046514 C10.3479,15.1286514 12.2209,16.2136514 12.7079,15.7266514 C13.0079,15.4256514 12.7059,14.5946514 12.0029,13.5726514 L14.8919,9.67365144 C15.6869,10.1506514 16.3699,10.3026514 16.6719,10.0006514 C17.1579,9.51465144 16.4679,8.03565144 15.1299,6.69765144 Z M5,16.8277514 L9.184,13.9647514 L8.523,13.3047514 L7.863,12.6437514 L5,16.8277514 Z" id="Fill-1" sketch:type="MSShapeGroup"></path>
        </g>
    </g>
</svg>