<?xml version="1.0" encoding="UTF-8" standalone="no"?>
<svg width="22px" height="22px" viewBox="0 0 22 22" version="1.1" xmlns="http://www.w3.org/2000/svg" xmlns:xlink="http://www.w3.org/1999/xlink" xmlns:sketch="http://www.bohemiancoding.com/sketch/ns">
    <!-- Generator: Sketch 3.4.4 (17249) - http://www.bohemiancoding.com/sketch -->
    <title>icon-comment-alert-22px</title>
    <desc>Created with Sketch.</desc>
    <defs></defs>
    <g id="22px" stroke="none" stroke-width="1" fill="none" fill-rule="evenodd" sketch:type="MSPage">
        <g id="icon-comment-alert-22px" sketch:type="MSArtboardGroup">
            <path d="M0,3 L4,5.8 L4,19 L22,19 L22,3 L0,3 L0,3 Z" id="Shape" fill="#ED6058" sketch:type="MSShapeGroup"></path>
            <path d="M8,11.5 C8,8.2 10.6,6 13.6,6 C16.3,6 18,7.7 18,10.1 C18,12.3 16.5,13.4 15.3,13.4 C14.6,13.4 14,13.1 13.9,12.5 L13.9,12.5 C13.5,13 12.9,13.3 12.3,13.3 C11.4,13.3 10.7,12.7 10.7,11.5 C10.7,10.2 11.7,8.6 13.3,8.6 C13.8,8.6 14.1,8.8 14.4,9.2 L14.4,9.2 L14.5,8.7 L15.2,8.7 L14.7,11.2 C14.4,12.2 14.7,12.7 15.4,12.7 C16.2,12.7 17.2,11.7 17.2,10.1 C17.2,8.1 15.9,6.6 13.5,6.6 C11.1,6.6 8.8,8.5 8.8,11.4 C8.8,13.8 10.5,15.2 12.8,15.2 C13.6,15.2 14.4,15 15,14.6 L15.3,15.2 C14.5,15.6 13.7,15.8 12.7,15.8 C10.1,16 8,14.4 8,11.5 L8,11.5 Z M13.7,11.9 L14.1,9.9 C13.8,9.5 13.6,9.4 13.2,9.4 C12.1,9.4 11.5,10.6 11.5,11.5 C11.5,12.3 11.9,12.6 12.4,12.6 C12.9,12.7 13.3,12.4 13.7,11.9 L13.7,11.9 Z" id="Shape" fill="#FFFFFF" sketch:type="MSShapeGroup"></path>
        </g>
    </g>
</svg>