<?xml version="1.0" encoding="UTF-8" standalone="no"?>
<svg width="22px" height="22px" viewBox="0 0 22 22" version="1.1" xmlns="http://www.w3.org/2000/svg" xmlns:xlink="http://www.w3.org/1999/xlink" xmlns:sketch="http://www.bohemiancoding.com/sketch/ns">
    <!-- Generator: Sketch 3.4.4 (17249) - http://www.bohemiancoding.com/sketch -->
    <title>icon-search-thin-22px</title>
    <desc>Created with Sketch.</desc>
    <defs></defs>
    <g id="22px" stroke="none" stroke-width="1" fill="none" fill-rule="evenodd" sketch:type="MSPage">
        <g id="icon-search-thin-22px" sketch:type="MSArtboardGroup" fill="#5A5B5B">
            <path d="M2,7.9 C2,11.2 4.7,13.9 8,13.9 C9.1,13.9 10.2,13.6 11,13.1 L17.4,19.5 C17.7,19.8 18.1,19.9 18.5,19.9 C18.9,19.9 19.3,19.8 19.6,19.5 C20.2,18.9 20.2,18 19.6,17.4 L13.2,11 C13.7,10.1 14,9.1 14,8 C14,4.7 11.3,2 8,2 C4.7,2 2,4.6 2,7.9 L2,7.9 Z M4,7.9 C4,5.7 5.8,3.9 8,3.9 C10.2,3.9 12,5.7 12,7.9 C12,10.1 10.2,11.9 8,11.9 C5.8,11.9 4,10.1 4,7.9 L4,7.9 Z" id="Shape" sketch:type="MSShapeGroup"></path>
        </g>
    </g>
</svg>