<?xml version="1.0" encoding="UTF-8" standalone="no"?>
<svg width="22px" height="22px" viewBox="0 0 22 22" version="1.1" xmlns="http://www.w3.org/2000/svg" xmlns:xlink="http://www.w3.org/1999/xlink" xmlns:sketch="http://www.bohemiancoding.com/sketch/ns">
    <!-- Generator: Sketch 3.4.4 (17249) - http://www.bohemiancoding.com/sketch -->
    <title>icon-paintbrush-22px</title>
    <desc>Created with Sketch.</desc>
    <defs></defs>
    <g id="22px" stroke="none" stroke-width="1" fill="none" fill-rule="evenodd" sketch:type="MSPage">
        <g id="icon-paintbrush-22px" sketch:type="MSArtboardGroup" fill="#3D4752">
            <path d="M18.7,14.6 L18.9,14.1 L19.4,13.2 C19.7,12.7 19.5,12.1 19,11.9 L16.4,10.4 L19.9,4.4 C20.2,3.9 20,3.3 19.5,3.1 L17.8,2.1 C17.3,1.8 16.7,2 16.4,2.5 L12.9,8.5 L10.3,7 C9.8,6.7 9.2,6.9 8.9,7.4 L8.4,8.3 L8.4,8.3 L18.7,14.6 L18.7,14.6 Z" id="Shape" sketch:type="MSShapeGroup"></path>
            <path d="M7.7,9.6 C6.6,11.5 4.7,16 4,17 C3,18.4 1,19 1,19 L13.9,19.7 C15.2,19.9 16.4,19.2 17,18 L18,16 L7.7,9.6 L7.7,9.6 Z" id="Shape" sketch:type="MSShapeGroup"></path>
        </g>
    </g>
</svg>