<?xml version="1.0" encoding="UTF-8" standalone="no"?>
<svg width="22px" height="22px" viewBox="0 0 22 22" version="1.1" xmlns="http://www.w3.org/2000/svg" xmlns:xlink="http://www.w3.org/1999/xlink" xmlns:sketch="http://www.bohemiancoding.com/sketch/ns">
    <!-- Generator: Sketch 3.4.4 (17249) - http://www.bohemiancoding.com/sketch -->
    <title>icon-flickr-22px</title>
    <desc>Created with Sketch.</desc>
    <defs></defs>
    <g id="22px" stroke="none" stroke-width="1" fill="none" fill-rule="evenodd" sketch:type="MSPage">
        <g id="icon-flickr-22px" sketch:type="MSArtboardGroup">
            <path d="M18,2 L4,2 C2.9,2 2,2.9 2,4 L2,18 C2,19.1 2.9,20 4,20 L18,20 C19.1,20 20,19.1 20,18 L20,4 C20,2.9 19.1,2 18,2 L18,2 Z M15,14 C13.3,14 12,12.7 12,11 C12,9.3 13.3,8 15,8 C16.7,8 18,9.3 18,11 C18,12.7 16.7,14 15,14 L15,14 Z" id="Shape" fill="#3D4752" sketch:type="MSShapeGroup"></path>
            <circle id="Oval" fill="#8794A0" sketch:type="MSShapeGroup" cx="7" cy="11" r="3"></circle>
        </g>
    </g>
</svg>