<?xml version="1.0" encoding="UTF-8" standalone="no"?>
<svg width="22px" height="22px" viewBox="0 0 22 22" version="1.1" xmlns="http://www.w3.org/2000/svg" xmlns:xlink="http://www.w3.org/1999/xlink" xmlns:sketch="http://www.bohemiancoding.com/sketch/ns">
    <!-- Generator: Sketch 3.4.4 (17249) - http://www.bohemiancoding.com/sketch -->
    <title>icon-facebook-22px</title>
    <desc>Created with Sketch.</desc>
    <defs></defs>
    <g id="22px" stroke="none" stroke-width="1" fill="none" fill-rule="evenodd" sketch:type="MSPage">
        <g id="icon-facebook-22px" sketch:type="MSArtboardGroup" fill="#3D4752">
            <path d="M18,2 L4,2 C2.9,2 2,2.9 2,4 L2,18 C2,19.1 2.9,20 4,20 L11,20 L11,13 L8,13 L8,10 L11,10 L11,8.3 C11,6 12.3,4.7 14.4,4.7 C15.4,4.7 16.8,4.9 17,5 L17,8 C17,8 16.6,7.5 15.5,7.6 C14.4,7.6 14,8.4 14,9.1 L14,10 L17,10 L16.5,13 L14,13 L14,20 L18,20 C19.1,20 20,19.1 20,18 L20,4 C20,2.9 19.1,2 18,2 L18,2 Z" id="Shape" sketch:type="MSShapeGroup"></path>
        </g>
    </g>
</svg>