<?xml version="1.0" encoding="UTF-8" standalone="no"?>
<svg width="22px" height="22px" viewBox="0 0 22 22" version="1.1" xmlns="http://www.w3.org/2000/svg" xmlns:xlink="http://www.w3.org/1999/xlink" xmlns:sketch="http://www.bohemiancoding.com/sketch/ns">
    <!-- Generator: Sketch 3.4.4 (17249) - http://www.bohemiancoding.com/sketch -->
    <title>icon-border-options-22px</title>
    <desc>Created with Sketch.</desc>
    <defs></defs>
    <g id="22px" stroke="none" stroke-width="1" fill="none" fill-rule="evenodd" sketch:type="MSPage">
        <g id="icon-border-options-22px" sketch:type="MSArtboardGroup" fill="#3D4752">
            <path d="M11,2 C6,2 2,6 2,11 L2,20 L4,20 L4,18 L4,17 L4,11 C4,7.1 7.1,4 11,4 L16,4 L18,4 L20,4 L20,2 L11,2 L11,2 Z" id="Shape" sketch:type="MSShapeGroup"></path>
            <rect id="Rectangle-path" sketch:type="MSShapeGroup" x="18" y="6" width="2" height="2"></rect>
            <rect id="Rectangle-path" sketch:type="MSShapeGroup" x="18" y="10" width="2" height="2"></rect>
            <rect id="Rectangle-path" sketch:type="MSShapeGroup" x="18" y="14" width="2" height="2"></rect>
            <rect id="Rectangle-path" sketch:type="MSShapeGroup" x="18" y="18" width="2" height="2"></rect>
            <rect id="Rectangle-path" sketch:type="MSShapeGroup" x="6" y="18" width="2" height="2"></rect>
            <rect id="Rectangle-path" sketch:type="MSShapeGroup" x="10" y="18" width="2" height="2"></rect>
            <rect id="Rectangle-path" sketch:type="MSShapeGroup" x="14" y="18" width="2" height="2"></rect>
        </g>
    </g>
</svg>