<?xml version="1.0" encoding="UTF-8" standalone="no"?>
<svg width="22px" height="22px" viewBox="0 0 22 22" version="1.1" xmlns="http://www.w3.org/2000/svg" xmlns:xlink="http://www.w3.org/1999/xlink" xmlns:sketch="http://www.bohemiancoding.com/sketch/ns">
    <!-- Generator: Sketch 3.4.4 (17249) - http://www.bohemiancoding.com/sketch -->
    <title>icon-link-22px</title>
    <desc>Created with Sketch.</desc>
    <defs></defs>
    <g id="22px" stroke="none" stroke-width="1" fill="none" fill-rule="evenodd" sketch:type="MSPage">
        <g id="icon-link-22px" sketch:type="MSArtboardGroup" fill="#3D4752">
            <path d="M18.7,3.3 C17,1.6 14.2,1.6 12.5,3.3 L10.9,4.9 C10.9,4.9 11.6,4.9 12.4,5.1 C13.2,5.3 13.8,5.6 13.8,5.6 L14.3,5.1 C15,4.4 16.2,4.4 16.8,5.1 C17.5,5.8 17.5,7 16.8,7.6 L12.2,12.2 C11.5,12.9 10.3,12.9 9.7,12.2 C9.6,12.1 9.4,11.9 9.4,11.7 L7.5,13.6 C7.6,13.8 7.7,13.9 7.9,14.1 C9.6,15.8 12.4,15.8 14.1,14.1 L18.7,9.5 C20.4,7.8 20.4,5 18.7,3.3 L18.7,3.3 Z" id="Shape" sketch:type="MSShapeGroup"></path>
            <path d="M9.3,17.1 C8.5,16.8 8.1,16.6 8.1,16.6 L7.7,17 C7,17.7 5.8,17.7 5.2,17 C4.5,16.3 4.5,15.1 5.2,14.5 L9.8,9.9 C10.5,9.2 11.7,9.2 12.3,9.9 C12.4,10 12.6,10.2 12.6,10.4 L14.5,8.5 C14.4,8.3 14.3,8.2 14.1,8 C12.4,6.3 9.6,6.3 7.9,8 L3.3,12.6 C1.6,14.3 1.6,17.1 3.3,18.8 C5,20.5 7.8,20.5 9.5,18.8 L10.9,17.4 C10.9,17.3 10.1,17.3 9.3,17.1 L9.3,17.1 Z" id="Shape" sketch:type="MSShapeGroup"></path>
        </g>
    </g>
</svg>