<?xml version="1.0" encoding="UTF-8" standalone="no"?>
<svg width="22px" height="22px" viewBox="0 0 22 22" version="1.1" xmlns="http://www.w3.org/2000/svg" xmlns:xlink="http://www.w3.org/1999/xlink" xmlns:sketch="http://www.bohemiancoding.com/sketch/ns">
    <!-- Generator: Sketch 3.4.4 (17249) - http://www.bohemiancoding.com/sketch -->
    <title>icon-crop-22px</title>
    <desc>Created with Sketch.</desc>
    <defs></defs>
    <g id="22px" stroke="none" stroke-width="1" fill="none" fill-rule="evenodd" sketch:type="MSPage">
        <g id="icon-crop-22px" sketch:type="MSArtboardGroup" fill="#3D4752">
            <path d="M18,5.4 L19.7,3.7 C20.1,3.3 20.1,2.7 19.7,2.3 C19.3,1.9 18.7,1.9 18.3,2.3 L16.6,4 L15,4 L7,4 L7,2 L4,2 L4,4 L2,4 L2,7 L4,7 L4,15 L4,17 L4,18 L15,18 L15,20 L18,20 L18,18 L20,18 L20,15 L18,15 L18,5.4 L18,5.4 Z M13.6,7 L7,13.6 L7,7 L13.6,7 L13.6,7 Z M8.4,15 L15,8.4 L15,15 L8.4,15 L8.4,15 Z" id="Shape" sketch:type="MSShapeGroup"></path>
        </g>
    </g>
</svg>