<?xml version="1.0" encoding="UTF-8" standalone="no"?>
<svg width="22px" height="22px" viewBox="0 0 22 22" version="1.1" xmlns="http://www.w3.org/2000/svg" xmlns:xlink="http://www.w3.org/1999/xlink" xmlns:sketch="http://www.bohemiancoding.com/sketch/ns">
    <!-- Generator: Sketch 3.4.4 (17249) - http://www.bohemiancoding.com/sketch -->
    <title>icon-magnet-22px</title>
    <desc>Created with Sketch.</desc>
    <defs></defs>
    <g id="22px" stroke="none" stroke-width="1" fill="none" fill-rule="evenodd" sketch:type="MSPage">
        <g id="icon-magnet-22px" sketch:type="MSArtboardGroup" fill="#3D4752">
            <path d="M9,14 L9,10.5 C9,8.7 9.3,8.4 11,8.4 C12.7,8.4 13,8.8 13,10.5 L13,14 L17.7,14 L18,10.7 C18,6.6 14.9,3.1 11,3.1 C7.1,3.1 4,6.6 4,10.7 L4.3,14 L9,14 L9,14 Z" id="Shape" sketch:type="MSShapeGroup"></path>
            <path d="M13,15 L13,19 L17,19 L17.6,15 L13,15 Z" id="Shape" sketch:type="MSShapeGroup"></path>
            <path d="M4.4,15 L5,19 L9,19 L9,15 L4.4,15 Z" id="Shape" sketch:type="MSShapeGroup"></path>
        </g>
    </g>
</svg>