<?xml version="1.0" encoding="UTF-8" standalone="no"?>
<svg width="22px" height="22px" viewBox="0 0 22 22" version="1.1" xmlns="http://www.w3.org/2000/svg" xmlns:xlink="http://www.w3.org/1999/xlink" xmlns:sketch="http://www.bohemiancoding.com/sketch/ns">
    <!-- Generator: Sketch 3.4.4 (17249) - http://www.bohemiancoding.com/sketch -->
    <title>icon-lock-unlocked-22px</title>
    <desc>Created with Sketch.</desc>
    <defs></defs>
    <g id="22px" stroke="none" stroke-width="1" fill="none" fill-rule="evenodd" sketch:type="MSPage">
        <g id="icon-lock-unlocked-22px" sketch:type="MSArtboardGroup" fill="#3D4752">
            <path d="M12,9 L12,5 C12,3.3 10.7,2 9,2 L6,2 C4.3,2 3,3.3 3,5 L3,9 L5,9 L5,5 C5,4.4 5.4,4 6,4 L9,4 C9.6,4 10,4.4 10,5 L10,9 L7,9 L7,20 L19,20 L19,9 L12,9 L12,9 Z M17,18 L9,18 L9,11 L17,11 L17,18 L17,18 Z" id="Shape" sketch:type="MSShapeGroup"></path>
            <rect id="Rectangle-path" sketch:type="MSShapeGroup" x="12" y="12" width="2" height="5"></rect>
        </g>
    </g>
</svg>