<?xml version="1.0" encoding="UTF-8" standalone="no"?>
<svg width="22px" height="22px" viewBox="0 0 22 22" version="1.1" xmlns="http://www.w3.org/2000/svg" xmlns:xlink="http://www.w3.org/1999/xlink" xmlns:sketch="http://www.bohemiancoding.com/sketch/ns">
    <!-- Generator: Sketch 3.4.4 (17249) - http://www.bohemiancoding.com/sketch -->
    <title>icon-dropbox-22px</title>
    <desc>Created with Sketch.</desc>
    <defs></defs>
    <g id="22px" stroke="none" stroke-width="1" fill="none" fill-rule="evenodd" sketch:type="MSPage">
        <g id="icon-dropbox-22px" sketch:type="MSArtboardGroup" fill="#3D4752">
            <path d="M6.27025,8.401875 L-0.22975,4.276875 L4.27025,0.776875 L10.77025,4.776875 L6.27025,8.401875 L6.27025,8.401875 Z" id="path2997" sketch:type="MSShapeGroup" transform="translate(5.270250, 4.589375) scale(1, -1) translate(-5.270250, -4.589375) "></path>
            <path d="M-0.267125,11.85025 L5.857875,8.35025 L10.732875,11.35025 L4.232875,15.35025 L-0.267125,11.85025 L-0.267125,11.85025 Z" id="path3001" sketch:type="MSShapeGroup" transform="translate(5.232875, 11.850250) scale(1, -1) translate(-5.232875, -11.850250) "></path>
            <path d="M10.81075,11.27525 L15.56075,8.40025 L21.81075,11.65025 L17.31075,15.15025 L10.81075,11.27525 L10.81075,11.27525 Z" id="path3005" sketch:type="MSShapeGroup" transform="translate(16.310750, 11.775250) scale(1, -1) translate(-16.310750, -11.775250) "></path>
            <path d="M21.763625,4.334 L15.263625,8.459 L10.763625,4.709 L17.263625,0.709 L21.763625,4.334 L21.763625,4.334 Z" id="path3009" sketch:type="MSShapeGroup" transform="translate(16.263625, 4.584000) scale(1, -1) translate(-16.263625, -4.584000) "></path>
            <path d="M10.7615,20.80425 L6.0115,18.05425 L3.7615,18.92925 L3.7615,17.42925 L10.7615,14.05425 L17.7615,17.42925 L17.7615,18.92925 L15.5115,18.05425 L10.7615,20.80425 L10.7615,20.80425 Z" id="path3013" sketch:type="MSShapeGroup" transform="translate(10.761500, 17.429250) scale(1, -1) translate(-10.761500, -17.429250) "></path>
        </g>
    </g>
</svg>