<?xml version="1.0" encoding="UTF-8" standalone="no"?>
<svg width="22px" height="22px" viewBox="0 0 22 22" version="1.1" xmlns="http://www.w3.org/2000/svg" xmlns:xlink="http://www.w3.org/1999/xlink" xmlns:sketch="http://www.bohemiancoding.com/sketch/ns">
    <!-- Generator: Sketch 3.4.4 (17249) - http://www.bohemiancoding.com/sketch -->
    <title>icon-search-large-22px</title>
    <desc>Created with Sketch.</desc>
    <defs></defs>
    <g id="22px" stroke="none" stroke-width="1" fill="none" fill-rule="evenodd" sketch:type="MSPage">
        <g id="icon-search-large-22px" sketch:type="MSArtboardGroup" fill="#3D4752">
            <path d="M8.5,3 C11.5,3 14,5.5 14,8.5 C14,11.5 11.5,14 8.5,14 C5.5,14 3,11.5 3,8.5 C3,5.5 5.5,3 8.5,3 L8.5,3 Z M8.5,1 C4.4,1 1,4.4 1,8.5 C1,12.6 4.4,16 8.5,16 C12.6,16 16,12.6 16,8.5 C16,4.4 12.6,1 8.5,1 L8.5,1 L8.5,1 Z" id="Shape" sketch:type="MSShapeGroup"></path>
            <path d="M19,20.5 C18.6,20.5 18.2,20.4 17.9,20.1 L14.4,16.6 C13.8,16 13.8,15.1 14.4,14.5 C15,13.9 15.9,13.9 16.5,14.5 L20,18 C20.6,18.6 20.6,19.5 20,20.1 C19.8,20.4 19.4,20.5 19,20.5 L19,20.5 Z" id="Shape" sketch:type="MSShapeGroup"></path>
        </g>
    </g>
</svg>