<?xml version="1.0" encoding="utf-8"?>
<!-- Generator: Adobe Illustrator 18.1.1, SVG Export Plug-In . SVG Version: 6.00 Build 0)  -->
<svg version="1.1" id="Layer_1" xmlns="http://www.w3.org/2000/svg" xmlns:xlink="http://www.w3.org/1999/xlink" x="0px" y="0px"
	 viewBox="0 0 22 22" enable-background="new 0 0 22 22" xml:space="preserve">
<path fill="#77818C" d="M18.9,12h-2.1c-0.3,0.8-1.1,1.6-2.1,2.1l-1.5-3.8C14.3,9.6,15,8.4,15,7c0-1.9-1.3-3.4-3-3.9V1h-2v2.1
	C8.3,3.6,7,5.1,7,7c0,1.4,0.7,2.6,1.8,3.3l-1.5,3.8c-1-0.5-1.7-1.3-2.1-2.1H3.1c0.4,1.6,1.6,3.1,3.4,4l-1.5,3.7l1.9,0.7l1.5-3.7
	C9.2,16.9,10.1,17,11,17s1.8-0.1,2.6-0.3l1.5,3.7l1.9-0.7L15.5,16C17.2,15.1,18.5,13.6,18.9,12z M11,5c1.1,0,2,0.9,2,2s-0.9,2-2,2
	S9,8.1,9,7S9.9,5,11,5z M11,15c-0.6,0-1.3-0.1-1.8-0.2l1.5-3.8c0.1,0,0.2,0,0.3,0s0.2,0,0.3,0l1.5,3.8C12.3,14.9,11.6,15,11,15z"/>
</svg>
