<?xml version="1.0" encoding="utf-8"?>
<!-- Generator: Adobe Illustrator 18.1.1, SVG Export Plug-In . SVG Version: 6.00 Build 0)  -->
<svg version="1.1" id="Layer_1" xmlns="http://www.w3.org/2000/svg" xmlns:xlink="http://www.w3.org/1999/xlink" x="0px" y="0px"
	 viewBox="0 0 22 22" enable-background="new 0 0 22 22" xml:space="preserve">
<g>
	<path fill="#3D4752" d="M8.5,3c3,0,5.5,2.5,5.5,5.5S11.5,14,8.5,14S3,11.5,3,8.5S5.5,3,8.5,3 M8.5,1C4.4,1,1,4.4,1,8.5
		S4.4,16,8.5,16S16,12.6,16,8.5S12.6,1,8.5,1L8.5,1z"/>
	<path fill="#3D4752" d="M19,20.5c-0.4,0-0.8-0.1-1.1-0.4l-3.5-3.5c-0.6-0.6-0.6-1.5,0-2.1s1.5-0.6,2.1,0l3.5,3.5
		c0.6,0.6,0.6,1.5,0,2.1C19.8,20.4,19.4,20.5,19,20.5z"/>
</g>
</svg>
