<?xml version="1.0" encoding="utf-8"?>
<!-- Generator: Adobe Illustrator 18.1.1, SVG Export Plug-In . SVG Version: 6.00 Build 0)  -->
<svg version="1.1" id="Layer_1" xmlns="http://www.w3.org/2000/svg" xmlns:xlink="http://www.w3.org/1999/xlink" x="0px" y="0px"
	 viewBox="0 0 22 22" enable-background="new 0 0 22 22" xml:space="preserve">
<path fill="#FFFFFF" d="M13,11l4.6-4.6c0.6-0.6,0.6-1.4,0-2c-0.6-0.6-1.4-0.6-2,0L11,9L6.4,4.4c-0.6-0.6-1.4-0.6-2,0
	c-0.6,0.6-0.6,1.4,0,2L9,11l-4.6,4.6c-0.6,0.6-0.6,1.4,0,2c0.6,0.6,1.4,0.6,2,0L11,13l4.6,4.6c0.6,0.6,1.4,0.6,2,0
	c0.6-0.6,0.6-1.4,0-2L13,11z"/>
</svg>
