<?xml version="1.0" encoding="UTF-8" standalone="no"?>
<svg width="285px" height="31px" viewBox="0 0 285 31" version="1.1" xmlns="http://www.w3.org/2000/svg" xmlns:xlink="http://www.w3.org/1999/xlink">
    <!-- Generator: Sketch 39.1 (31720) - http://www.bohemiancoding.com/sketch -->
    <title>lucidsoftware-logo-2015</title>
    <desc>Created with Sketch.</desc>
    <defs></defs>
    <g id="Components" stroke="none" stroke-width="1" fill="none" fill-rule="evenodd">
        <g id="A01-Copy-4" transform="translate(-131.000000, -753.000000)">
            <g id="lucidsoftware-logo-2015" transform="translate(131.000000, 753.000000)">
                <g id="Layer_1">
                    <g id="Group">
                        <g transform="translate(43.737336, 0.000000)" id="Shape" fill="#FFFFFF">
                            <polygon points="0.195838817 0.652631579 6.29948195 0.652631579 6.29948195 24.7021053 17.6254935 24.7021053 17.6254935 30.3473684 0.195838817 30.3473684"></polygon>
                            <path d="M38.580247,30.3473684 L32.9335611,30.3473684 L32.9335611,27.7694737 L32.8682815,27.7694737 C32.6724427,28.1284211 32.3786844,28.4873684 32.0522864,28.8789474 C31.7258884,29.2378947 31.3342107,29.5642105 30.8446137,29.8578947 C30.3876565,30.1515789 29.8327798,30.38 29.2452634,30.5757895 C28.6577469,30.7715789 28.0049509,30.8368421 27.2868752,30.8368421 C25.7854443,30.8368421 24.5777716,30.6084211 23.6638571,30.1515789 C22.7499426,29.6947368 22.0318669,29.0747368 21.5096301,28.2589474 C20.9873932,27.4431579 20.6609952,26.4968421 20.4977962,25.3873684 C20.3345972,24.2778947 20.2366778,23.1031579 20.2366778,21.8305263 L20.2366778,11.3231579 L26.1118423,11.3231579 L26.1118423,20.6557895 C26.1118423,21.2105263 26.1444821,21.7652632 26.1771219,22.3526316 C26.2097617,22.94 26.3403209,23.4947368 26.5361597,23.9842105 C26.7319985,24.4736842 27.0257568,24.8978947 27.4500742,25.1915789 C27.8417518,25.5178947 28.4292683,25.6484211 29.1799838,25.6484211 C29.9306992,25.6484211 30.5508555,25.5178947 31.0078127,25.2242105 C31.46477,24.9631579 31.8238078,24.5715789 32.0849262,24.1147368 C32.3460446,23.6578947 32.5092437,23.1357895 32.5745233,22.5810526 C32.6398029,21.9936842 32.7050825,21.4063158 32.7050825,20.7863158 L32.7050825,11.3231579 L38.580247,11.3231579 L38.580247,30.3473684 L38.580247,30.3473684 Z"></path>
                            <path d="M54.965428,17.4578947 C54.6716698,17.0336842 54.2799922,16.7073684 53.7577553,16.4136842 C53.2355185,16.1526316 52.6806418,15.9894737 52.0604856,15.9894737 C50.5590546,15.9894737 49.4166615,16.4463158 48.6006665,17.3273684 C47.7846714,18.2084211 47.360354,19.3831579 47.360354,20.8189474 C47.360354,22.2547368 47.7846714,23.4294737 48.6006665,24.3105263 C49.4166615,25.1915789 50.5916944,25.6484211 52.0604856,25.6484211 C52.7132816,25.6484211 53.2681583,25.5178947 53.7577553,25.2242105 C54.2147126,24.9305263 54.63903,24.6042105 54.965428,24.2126316 L58.8495646,28.2915789 C57.9356501,29.2378947 56.8585366,29.8905263 55.6182241,30.2821053 C54.3779116,30.6736842 53.2028787,30.8368421 52.0604856,30.8368421 C50.5916944,30.8368421 49.2208227,30.6084211 47.9152306,30.1189474 C46.6096385,29.6621053 45.4998852,28.9768421 44.5533309,28.0957895 C43.6067766,27.2147368 42.8560612,26.1705263 42.3011845,24.9305263 C41.7463079,23.6905263 41.4851894,22.32 41.4851894,20.8189474 C41.4851894,19.3178947 41.7463079,17.9473684 42.3011845,16.7073684 C42.8560612,15.4673684 43.6067766,14.4231579 44.5533309,13.5421053 C45.4998852,12.6610526 46.6422783,12.0084211 47.9152306,11.5189474 C49.2208227,11.0621053 50.5916944,10.8010526 52.0604856,10.8010526 C53.1702389,10.8010526 54.3779116,10.9968421 55.6182241,11.3557895 C56.8585366,11.7473684 57.9356501,12.4 58.8495646,13.3463158 L54.965428,17.4578947 L54.965428,17.4578947 Z"></path>
                            <path d="M61.5586682,3.98105263 C61.5586682,3.03473684 61.8850662,2.25157895 62.5705021,1.56631579 C63.2232981,0.913684211 64.0392932,0.554736842 64.9858475,0.554736842 C65.9324018,0.554736842 66.715757,0.881052632 67.4011929,1.56631579 C68.053989,2.21894737 68.4130268,3.03473684 68.4130268,3.98105263 C68.4130268,4.92736842 68.0866288,5.71052632 67.4011929,6.39578947 C66.7483969,7.04842105 65.9324018,7.40736842 64.9858475,7.40736842 C64.0392932,7.40736842 63.2559379,7.08105263 62.5705021,6.39578947 C61.8850662,5.74315789 61.5586682,4.92736842 61.5586682,3.98105263 L61.5586682,3.98105263 Z M62.0156254,11.3231579 L67.89079,11.3231579 L67.89079,30.3473684 L62.0156254,30.3473684 L62.0156254,11.3231579 L62.0156254,11.3231579 Z"></path>
                            <path d="M91.7831256,30.3473684 L86.3649184,30.3473684 L86.3649184,27.8347368 L86.2996388,27.8347368 C86.0711601,28.1610526 85.7447621,28.52 85.3857243,28.8789474 C84.9940467,29.2378947 84.5697292,29.5642105 84.0474924,29.8252632 C83.5252555,30.1189474 82.9703789,30.3473684 82.3502226,30.5431579 C81.7300664,30.7389474 81.1099101,30.8042105 80.4571141,30.8042105 C79.0536025,30.8042105 77.7806502,30.5757895 76.6056173,30.0863158 C75.4632242,29.5968421 74.4840301,28.9115789 73.6353953,28.0631579 C72.8194002,27.1821053 72.1666041,26.1378947 71.7422867,24.9631579 C71.2853295,23.7557895 71.0894906,22.4505263 71.0894906,21.0147368 C71.0894906,19.6768421 71.2853295,18.4042105 71.7096469,17.1968421 C72.1013245,15.9894737 72.688841,14.9126316 73.4395564,13.9663158 C74.1902719,13.02 75.1041864,12.2694737 76.1486601,11.7147368 C77.2257736,11.16 78.4334463,10.8663158 79.804318,10.8663158 C81.0446305,10.8663158 82.1870236,11.0621053 83.2314973,11.4210526 C84.275971,11.8126316 85.1572457,12.4326316 85.8426815,13.3463158 L85.9079611,13.3463158 L85.9079611,0.62 L91.7831256,0.62 L91.7831256,30.3473684 L91.7831256,30.3473684 Z M85.7121223,20.8189474 C85.7121223,19.3831579 85.2878049,18.2084211 84.4718098,17.3273684 C83.6558147,16.4463158 82.4807818,15.9894737 81.0119907,15.9894737 C79.5105598,15.9894737 78.3681667,16.4463158 77.5521716,17.3273684 C76.7361765,18.2084211 76.3118591,19.3831579 76.3118591,20.8189474 C76.3118591,22.2547368 76.7361765,23.4294737 77.5521716,24.3105263 C78.3681667,25.1915789 79.5431996,25.6484211 81.0119907,25.6484211 C82.5134216,25.6484211 83.6558147,25.1915789 84.4718098,24.3105263 C85.3204447,23.4294737 85.7121223,22.2547368 85.7121223,20.8189474 L85.7121223,20.8189474 Z"></path>
                            <path d="M98.017328,25.5178947 C98.6048444,26.2684211 99.2902803,26.8884211 100.008356,27.3126316 C100.726432,27.7694737 101.640346,27.9652632 102.71746,27.9652632 C103.174417,27.9652632 103.664014,27.9 104.153611,27.8021053 C104.643208,27.7042105 105.067525,27.5410526 105.459203,27.28 C105.850881,27.0515789 106.177279,26.7578947 106.405757,26.3989474 C106.634236,26.04 106.764795,25.6157895 106.764795,25.1263158 C106.764795,24.6368421 106.666876,24.2126316 106.438397,23.9189474 C106.209919,23.5926316 105.91616,23.3315789 105.557122,23.1031579 C105.198085,22.8747368 104.773767,22.7115789 104.31681,22.5810526 C103.859853,22.4505263 103.370256,22.32 102.880659,22.2221053 C102.032024,22.0263158 101.183389,21.8305263 100.400034,21.6021053 C99.6166783,21.3736842 98.9312425,21.0473684 98.343726,20.6884211 C97.7562096,20.2968421 97.2992523,19.8073684 96.9402145,19.22 C96.5811767,18.6326316 96.4179777,17.8494737 96.4179777,16.9031579 C96.4179777,16.0221053 96.6138165,15.2389474 97.0054941,14.5536842 C97.3971717,13.8684211 97.9194086,13.3136842 98.5722046,12.8568421 C99.2250007,12.4 99.9430764,12.0736842 100.759071,11.8452632 C101.575067,11.6168421 102.391062,11.4863158 103.272336,11.4863158 C104.577928,11.4863158 105.785601,11.7473684 106.895354,12.2694737 C108.005108,12.7915789 108.886382,13.64 109.506539,14.8147368 L106.960634,16.5115789 C106.568956,15.8589474 106.046719,15.3368421 105.426563,14.9126316 C104.773767,14.5210526 104.023052,14.2926316 103.109137,14.2926316 C102.68482,14.2926316 102.260502,14.3578947 101.836185,14.4557895 C101.411867,14.5536842 101.02019,14.7168421 100.693792,14.9126316 C100.367394,15.1084211 100.073636,15.4021053 99.845157,15.7284211 C99.6166783,16.0547368 99.5187589,16.4136842 99.5187589,16.8378947 C99.5187589,17.2294737 99.6493181,17.5557895 99.8777968,17.8494737 C100.138915,18.1105263 100.465313,18.3715789 100.889631,18.5673684 C101.313948,18.7631579 101.803545,18.9589474 102.391062,19.1221053 C102.945938,19.2852632 103.533455,19.4157895 104.120971,19.5136842 C104.936966,19.6768421 105.687682,19.8726316 106.438397,20.1336842 C107.156473,20.3947368 107.809269,20.7210526 108.364146,21.1452632 C108.919022,21.5694737 109.34334,22.0915789 109.669738,22.7115789 C109.996136,23.3315789 110.126695,24.1147368 110.126695,25.0284211 C110.126695,26.0726316 109.930856,26.9536842 109.506539,27.7042105 C109.082221,28.4221053 108.527345,29.0421053 107.841909,29.4989474 C107.156473,29.9557895 106.373118,30.2821053 105.491843,30.5105263 C104.610568,30.7063158 103.729293,30.8368421 102.815379,30.8368421 C101.248668,30.8368421 99.9104366,30.6084211 98.7680435,30.1189474 C97.6256504,29.6294737 96.6138165,28.7484211 95.699902,27.4431579 L98.017328,25.5178947 L98.017328,25.5178947 Z"></path>
                            <path d="M112.280922,21.1778947 C112.280922,19.7421053 112.54204,18.4368421 113.031637,17.2621053 C113.521234,16.0873684 114.20667,15.0757895 115.055305,14.2273684 C115.90394,13.3789474 116.948414,12.7263158 118.156086,12.2368421 C119.363759,11.78 120.669351,11.5189474 122.072863,11.5189474 C123.476374,11.5189474 124.781966,11.7473684 125.989639,12.2368421 C127.197312,12.6936842 128.209146,13.3789474 129.09042,14.2273684 C129.939055,15.0757895 130.624491,16.0873684 131.114088,17.2621053 C131.603685,18.4368421 131.864804,19.7421053 131.864804,21.1778947 C131.864804,22.6136842 131.603685,23.9189474 131.114088,25.0936842 C130.624491,26.2684211 129.939055,27.28 129.09042,28.1284211 C128.241785,28.9768421 127.197312,29.6294737 125.989639,30.1189474 C124.781966,30.5757895 123.476374,30.8368421 122.072863,30.8368421 C120.669351,30.8368421 119.363759,30.6084211 118.156086,30.1189474 C116.948414,29.6621053 115.93658,28.9768421 115.055305,28.1284211 C114.20667,27.28 113.521234,26.2684211 113.031637,25.0936842 C112.54204,23.9189474 112.280922,22.6136842 112.280922,21.1778947 L112.280922,21.1778947 Z M115.577542,21.1778947 C115.577542,22.1568421 115.740741,23.0378947 116.034499,23.8536842 C116.328257,24.6694737 116.785215,25.3873684 117.340091,26.0073684 C117.927608,26.6273684 118.613044,27.1168421 119.396399,27.4431579 C120.179754,27.8021053 121.093669,27.9652632 122.072863,27.9652632 C123.052057,27.9652632 123.965971,27.8021053 124.749327,27.4431579 C125.532682,27.0842105 126.218118,26.5947368 126.805634,26.0073684 C127.393151,25.3873684 127.817468,24.6694737 128.111226,23.8536842 C128.404984,23.0378947 128.568183,22.1242105 128.568183,21.1778947 C128.568183,20.1989474 128.404984,19.3178947 128.111226,18.5021053 C127.817468,17.6863158 127.360511,16.9684211 126.805634,16.3484211 C126.218118,15.7284211 125.532682,15.2389474 124.749327,14.9126316 C123.965971,14.5536842 123.052057,14.3905263 122.072863,14.3905263 C121.093669,14.3905263 120.179754,14.5536842 119.396399,14.9126316 C118.613044,15.2715789 117.927608,15.7610526 117.340091,16.3484211 C116.752575,16.9684211 116.328257,17.6863158 116.034499,18.5021053 C115.740741,19.3178947 115.577542,20.1989474 115.577542,21.1778947 L115.577542,21.1778947 Z"></path>
                            <path d="M137.544129,14.5863158 L133.562073,14.5863158 L133.562073,12.0084211 L137.544129,12.0084211 L137.544129,7.89684211 C137.544129,6.78736842 137.642049,5.74315789 137.870527,4.82947368 C138.066366,3.91578947 138.425404,3.1 138.947641,2.41473684 C139.469878,1.72947368 140.122674,1.20736842 140.971309,0.815789474 C141.819943,0.424210526 142.831777,0.261052632 144.07209,0.261052632 C144.463767,0.261052632 144.888085,0.293684211 145.312402,0.391578947 C145.76936,0.456842105 146.128397,0.587368421 146.422156,0.750526316 L145.997838,3.49157895 C145.279763,3.23052632 144.561687,3.1 143.908891,3.1 C143.125536,3.1 142.505379,3.23052632 142.081062,3.52421053 C141.624105,3.78526316 141.297707,4.17684211 141.069228,4.66631579 C140.840749,5.15578947 140.71019,5.74315789 140.67755,6.39578947 C140.644911,7.08105263 140.612271,7.79894737 140.612271,8.58210526 L140.612271,12.0410526 L145.083924,12.0410526 L145.083924,14.6189474 L140.612271,14.6189474 L140.612271,30.3473684 L137.544129,30.3473684 L137.544129,14.5863158 L137.544129,14.5863158 Z"></path>
                            <path d="M158.98848,14.5863158 L153.570272,14.5863158 L153.570272,23.7557895 C153.570272,24.3431579 153.570272,24.8978947 153.602912,25.42 C153.635552,25.9421053 153.733471,26.3663158 153.92931,26.7578947 C154.125149,27.1494737 154.386268,27.4431579 154.745305,27.6715789 C155.104343,27.9 155.62658,27.9978947 156.312016,27.9978947 C156.768973,27.9978947 157.22593,27.9326316 157.682888,27.8347368 C158.139845,27.7368421 158.596802,27.5736842 159.02112,27.3778947 L159.151679,30.1515789 C158.629442,30.38 158.041925,30.5431579 157.421769,30.6736842 C156.768973,30.7715789 156.181457,30.8368421 155.59394,30.8368421 C154.484187,30.8368421 153.635552,30.7063158 152.982756,30.4126316 C152.32996,30.1189474 151.807723,29.7273684 151.448685,29.2052632 C151.089647,28.6831579 150.828529,28.0305263 150.73061,27.28 C150.60005,26.4968421 150.567411,25.6484211 150.567411,24.7021053 L150.567411,14.5863158 L146.585355,14.5863158 L146.585355,12.0084211 L150.567411,12.0084211 L150.567411,6.78736842 L153.635552,6.78736842 L153.635552,12.0084211 L159.053759,12.0084211 L159.053759,14.5863158 L158.98848,14.5863158 Z"></path>
                            <polygon points="182.423858 30.3473684 179.420996 30.3473684 174.198628 16.2505263 174.133348 16.2505263 169.498496 30.3473684 166.365075 30.3473684 160.424631 12.0084211 163.786531 12.0084211 167.964426 26.1052632 168.029705 26.1052632 172.762477 12.0084211 175.961177 12.0084211 180.791868 26.1052632 180.857148 26.1052632 185.002403 12.0084211 188.331663 12.0084211"></polygon>
                            <path d="M190.877567,14.3578947 C191.824121,13.3789474 192.933875,12.6936842 194.239467,12.2368421 C195.545059,11.78 196.850651,11.5515789 198.188883,11.5515789 C200.897987,11.5515789 202.856375,12.2042105 204.064047,13.4768421 C205.27172,14.7494737 205.859237,16.7073684 205.859237,19.3178947 L205.859237,27.1821053 C205.859237,27.7042105 205.891876,28.2589474 205.924516,28.8136842 C205.989796,29.3684211 206.055075,29.8905263 206.120355,30.3473684 L203.182773,30.3473684 C203.084853,29.9231579 203.019574,29.4663158 203.019574,28.9442105 C203.019574,28.4221053 202.986934,27.9978947 202.986934,27.6063158 L202.921654,27.6063158 C202.334138,28.5526316 201.518143,29.3031579 200.506309,29.9231579 C199.494475,30.5105263 198.286802,30.8368421 196.883291,30.8368421 C195.936737,30.8368421 195.055462,30.7063158 194.239467,30.4778947 C193.423472,30.2494737 192.705396,29.8905263 192.08524,29.4336842 C191.465084,28.9768421 190.975487,28.4221053 190.616449,27.7368421 C190.257411,27.0515789 190.061572,26.2684211 190.061572,25.3873684 C190.061572,23.8863158 190.45325,22.6789474 191.236605,21.8305263 C192.01996,20.9821053 192.999154,20.3294737 194.141547,19.9052632 C195.31658,19.4810526 196.556893,19.22 197.895125,19.1221053 C199.233357,19.0242105 200.473669,18.9589474 201.583422,18.9589474 L202.758455,18.9589474 L202.758455,18.4042105 C202.758455,17.0663158 202.366778,16.0547368 201.550783,15.4021053 C200.767427,14.7168421 199.625034,14.3905263 198.188883,14.3905263 C197.209689,14.3905263 196.230495,14.5536842 195.283941,14.88 C194.337386,15.2063158 193.488751,15.6957895 192.770676,16.3810526 L190.877567,14.3578947 L190.877567,14.3578947 Z M199.755594,21.5368421 C197.797205,21.5368421 196.230495,21.7978947 195.088102,22.3526316 C193.945709,22.9073684 193.358192,23.7884211 193.358192,25.0610526 C193.358192,26.2031579 193.74987,27.0189474 194.500585,27.5084211 C195.283941,27.9978947 196.230495,28.2263158 197.372888,28.2263158 C198.254163,28.2263158 199.037518,28.0631579 199.690314,27.7694737 C200.34311,27.4757895 200.897987,27.0842105 201.354944,26.5621053 C201.811901,26.0726316 202.138299,25.4852632 202.366778,24.8326316 C202.595256,24.18 202.725816,22.8747368 202.758455,22.1242105 L202.758455,21.5368421 L199.755594,21.5368421 L199.755594,21.5368421 Z"></path>
                            <path d="M210.037131,12.0084211 L213.137913,12.0084211 L213.137913,14.26 C213.333752,13.8031579 213.986548,12.4326316 216.499812,11.8126316 C217.805404,11.4863158 218.458201,11.5189474 218.784599,11.5189474 C219.013077,11.5189474 219.535314,11.5515789 219.763793,11.5842105 C219.959631,11.6168421 220.18811,11.6494737 220.383949,11.7473684 L220.18811,14.8473684 C219.665873,14.6842105 219.110997,14.6189474 218.55612,14.6189474 C216.663011,14.6189474 215.324779,15.2389474 214.476145,16.4463158 C213.62751,17.6536842 213.203192,19.3178947 213.203192,21.4389474 L213.203192,30.3473684 L210.102411,30.3473684 C210.037131,30.3473684 210.037131,12.6284211 210.037131,12.0084211 L210.037131,12.0084211 Z"></path>
                            <path d="M239.608793,27.0189474 C238.49904,28.4221053 237.324007,29.4010526 236.018414,29.9884211 C234.712822,30.5431579 233.211391,30.8368421 231.481482,30.8368421 C230.045331,30.8368421 228.739738,30.5757895 227.597345,30.0863158 C226.454952,29.5642105 225.475758,28.8789474 224.692403,28.0305263 C223.909048,27.1821053 223.288891,26.1378947 222.864574,24.9631579 C222.440257,23.7884211 222.211778,22.5484211 222.211778,21.2105263 C222.211778,19.8073684 222.440257,18.5021053 222.929854,17.3273684 C223.386811,16.1526316 224.039607,15.1084211 224.888242,14.26 C225.736877,13.4115789 226.716071,12.7589474 227.858464,12.2694737 C229.000857,11.8126316 230.273809,11.5515789 231.612041,11.5515789 C232.884993,11.5515789 234.060026,11.78 235.13714,12.2042105 C236.214253,12.6284211 237.128168,13.2484211 237.911523,14.0968421 C238.694878,14.9126316 239.282395,15.9242105 239.706712,17.0989474 C240.13103,18.2736842 240.326868,19.6442105 240.326868,21.1452632 L240.326868,22.1242105 L225.508398,22.1242105 C225.573678,22.9073684 225.736877,23.6578947 226.063275,24.3757895 C226.389673,25.0936842 226.81399,25.7136842 227.336227,26.2684211 C227.858464,26.7905263 228.47862,27.2147368 229.164056,27.5410526 C229.882132,27.8673684 230.632847,27.9978947 231.481482,27.9978947 C232.819714,27.9978947 233.929467,27.7694737 234.843382,27.28 C235.757296,26.8231579 236.573291,26.1052632 237.324007,25.1915789 L239.608793,27.0189474 L239.608793,27.0189474 Z M236.997609,19.5463158 C236.932329,17.98 236.442732,16.74 235.463538,15.7936842 C234.484344,14.8473684 233.178752,14.3905263 231.481482,14.3905263 C229.784212,14.3905263 228.41334,14.8473684 227.368867,15.7936842 C226.324393,16.74 225.704237,17.98 225.475758,19.5463158 L236.997609,19.5463158 L236.997609,19.5463158 Z"></path>
                        </g>
                        <g id="Shape" fill="#29AAE1">
                            <path d="M15.569186,22.8094737 L15.569186,22.8094737 C13.578158,22.7442105 11.7176892,21.9936842 10.2815379,20.5578947 C8.87802638,19.1547368 8.25787012,17.2947368 8.25787012,15.4347368 L8.25787012,15.4347368 C8.22523032,14.4231579 7.86619249,13.4442105 7.08283722,12.6610526 C5.51612668,11.0947368 3.00286186,11.0947368 1.43615133,12.6610526 C-0.130559211,14.2273684 -0.130559211,16.74 1.43615133,18.3063158 C2.18686679,19.0568421 3.19870068,19.4484211 4.21053457,19.4810526 L4.21053457,19.4810526 C6.07100333,19.4810526 7.89883229,20.0684211 9.33498362,21.5042105 C10.7384951,22.9073684 11.4892106,24.8 11.58713,26.7252632 C11.5544902,27.7694737 11.9461678,28.8136842 12.7621629,29.6294737 C14.3288735,31.1957895 16.8421383,31.1957895 18.4088488,29.6294737 C19.9755594,28.0631579 19.9755594,25.5505263 18.4088488,23.9842105 C17.6254935,23.2010526 16.6136597,22.8094737 15.569186,22.8094737 L15.569186,22.8094737 Z"></path>
                            <path d="M29.7022206,23.9842105 C28.1355101,22.4178947 25.6222452,22.4178947 24.0555347,23.9842105 C22.4888242,25.5505263 22.4888242,28.0631579 24.0555347,29.6294737 C25.6222452,31.1957895 28.1355101,31.1957895 29.7022206,29.6294737 C31.2689311,28.0631579 31.2689311,25.5178947 29.7022206,23.9842105 L29.7022206,23.9842105 Z"></path>
                            <path d="M7.11547702,7.01578947 C5.54876649,8.58210526 3.03550167,8.58210526 1.46879113,7.01578947 C-0.0979194086,5.44947368 -0.0979194086,2.93684211 1.46879113,1.37052632 C3.03550167,-0.195789474 5.54876649,-0.195789474 7.11547702,1.37052632 C8.64954776,2.93684211 8.64954776,5.48210526 7.11547702,7.01578947 L7.11547702,7.01578947 Z"></path>
                            <path d="M7.11547702,29.6294737 C5.54876649,31.1957895 3.03550167,31.1957895 1.46879113,29.6294737 C-0.0979194086,28.0631579 -0.0979194086,25.5505263 1.46879113,23.9842105 C3.03550167,22.4178947 5.54876649,22.4178947 7.11547702,23.9842105 C8.64954776,25.5505263 8.64954776,28.0631579 7.11547702,29.6294737 L7.11547702,29.6294737 Z"></path>
                        </g>
                    </g>
                </g>
            </g>
        </g>
    </g>
</svg>