<?xml version="1.0" encoding="UTF-8" standalone="no"?>
<svg width="1281px" height="124px" viewBox="0 0 1281 124" version="1.1" xmlns="http://www.w3.org/2000/svg" xmlns:xlink="http://www.w3.org/1999/xlink" xmlns:sketch="http://www.bohemiancoding.com/sketch/ns">
    <!-- Generator: Sketch 3.4.4 (17249) - http://www.bohemiancoding.com/sketch -->
    <title>lucid-particle-logos</title>
    <desc>Created with Sketch.</desc>
    <defs></defs>
    <g id="Page-1" stroke="none" stroke-width="1" fill="none" fill-rule="evenodd" sketch:type="MSPage">
        <g id="lucid-particle-logos" sketch:type="MSArtboardGroup" fill="#FFFFFF">
            <path d="M465.56,10.04 L490.76,10.04 C494.68002,10.04 498.419982,10.4199962 501.98,11.18 C505.540018,11.9400038 508.699986,13.219991 511.46,15.02 C514.220014,16.820009 516.419992,19.219985 518.06,22.22 C519.700008,25.220015 520.52,28.919978 520.52,33.32 C520.52,37.9600232 519.640009,41.7999848 517.88,44.84 C516.119991,47.8800152 513.860014,50.2799912 511.1,52.04 C508.339986,53.8000088 505.320016,55.0399964 502.04,55.76 C498.759984,56.4800036 495.640015,56.84 492.68,56.84 L475.64,56.84 L475.64,95 L465.56,95 L465.56,10.04 Z M475.64,47.48 L492.68,47.48 C497.720025,47.48 501.819984,46.3400114 504.98,44.06 C508.140016,41.7799886 509.72,38.240024 509.72,33.44 C509.72,28.639976 508.140016,25.1000114 504.98,22.82 C501.819984,20.5399886 497.720025,19.4 492.68,19.4 L475.64,19.4 L475.64,47.48 Z M532.12,46.04 C535.000014,43.0799852 538.41998,40.900007 542.38,39.5 C546.34002,38.099993 550.35998,37.4 554.44,37.4 C562.760042,37.4 568.759982,39.3599804 572.44,43.28 C576.120018,47.2000196 577.96,53.15996 577.96,61.16 L577.96,85.28 C577.96,86.880008 578.039999,88.5399914 578.2,90.26 C578.360001,91.9800086 578.559999,93.5599928 578.8,95 L569.8,95 C569.479998,93.7199936 569.3,92.3000078 569.26,90.74 C569.22,89.1799922 569.2,87.800006 569.2,86.6 L568.96,86.6 C567.119991,89.4800144 564.660015,91.8399908 561.58,93.68 C558.499985,95.5200092 554.800022,96.44 550.48,96.44 C547.599986,96.44 544.900013,96.0800036 542.38,95.36 C539.859987,94.6399964 537.660009,93.580007 535.78,92.18 C533.899991,90.779993 532.400006,89.0400104 531.28,86.96 C530.159994,84.8799896 529.6,82.4800136 529.6,79.76 C529.6,75.1199768 530.799988,71.4800132 533.2,68.84 C535.600012,66.1999868 538.579982,64.2400064 542.14,62.96 C545.700018,61.6799936 549.539979,60.8800016 553.66,60.56 C557.780021,60.2399984 561.559983,60.08 565,60.08 L568.6,60.08 L568.6,58.4 C568.6,54.3199796 567.380012,51.2400104 564.94,49.16 C562.499988,47.0799896 559.080022,46.04 554.68,46.04 C551.639985,46.04 548.660015,46.539995 545.74,47.54 C542.819985,48.540005 540.240011,50.0799896 538,52.16 L532.12,46.04 Z M559.24,68 C553.23997,68 548.480018,68.8399916 544.96,70.52 C541.439982,72.2000084 539.68,74.9599808 539.68,78.8 C539.68,82.3200176 540.859988,84.8199926 543.22,86.3 C545.580012,87.7800074 548.519982,88.52 552.04,88.52 C554.760014,88.52 557.13999,88.0600046 559.18,87.14 C561.22001,86.2199954 562.919993,85.0000076 564.28,83.48 C565.640007,81.9599924 566.679996,80.1800102 567.4,78.14 C568.120004,76.0999898 568.52,73.9200116 568.6,71.6 L568.6,68 L559.24,68 Z M595.92,52.16 C595.92,49.5999872 595.840001,47.2000112 595.68,44.96 C595.519999,42.7199888 595.44,40.6800092 595.44,38.84 L604.32,38.84 C604.32,40.3600076 604.36,41.8799924 604.44,43.4 C604.52,44.9200076 604.56,46.479992 604.56,48.08 L604.8,48.08 C605.440003,46.7199932 606.339994,45.4000064 607.5,44.12 C608.660006,42.8399936 610.039992,41.700005 611.64,40.7 C613.240008,39.699995 615.03999,38.900003 617.04,38.3 C619.04001,37.699997 621.199988,37.4 623.52,37.4 C624.160003,37.4 624.799997,37.4399996 625.44,37.52 C626.080003,37.6000004 626.719997,37.7599988 627.36,38 L626.76,47.48 C625.159992,46.9999976 623.480009,46.76 621.72,46.76 C615.959971,46.76 611.780013,48.6199814 609.18,52.34 C606.579987,56.0600186 605.28,61.1599676 605.28,67.64 L605.28,95 L595.92,95 L595.92,52.16 Z M674.68,46.76 L658.12,46.76 L658.12,74.84 C658.12,76.6800092 658.16,78.3799922 658.24,79.94 C658.32,81.5000078 658.639997,82.8599942 659.2,84.02 C659.760003,85.1800058 660.599994,86.0999966 661.72,86.78 C662.840006,87.4600034 664.43999,87.8 666.52,87.8 C667.880007,87.8 669.279993,87.6400016 670.72,87.32 C672.160007,86.9999984 673.519994,86.5200032 674.8,85.88 L675.16,94.4 C673.559992,95.1200036 671.78001,95.6399984 669.82,95.96 C667.85999,96.2800016 666.000009,96.44 664.24,96.44 C660.879983,96.44 658.20001,96.0000044 656.2,95.12 C654.19999,94.2399956 652.640006,93.000008 651.52,91.4 C650.399994,89.799992 649.660002,87.8200118 649.3,85.46 C648.939998,83.0999882 648.76,80.4800144 648.76,77.6 L648.76,46.76 L636.52,46.76 L636.52,38.84 L648.76,38.84 L648.76,22.88 L658.12,22.88 L658.12,38.84 L674.68,38.84 L674.68,46.76 Z M688.96,38.84 L698.32,38.84 L698.32,95 L688.96,95 L688.96,38.84 Z M686.8,16.88 C686.8,15.0399908 687.459993,13.4400068 688.78,12.08 C690.100007,10.7199932 691.71999,10.04 693.64,10.04 C695.56001,10.04 697.179993,10.7199932 698.5,12.08 C699.820007,13.4400068 700.48,15.0399908 700.48,16.88 C700.48,18.88001 699.840006,20.5199936 698.56,21.8 C697.279994,23.0800064 695.64001,23.72 693.64,23.72 C691.63999,23.72 690.000006,23.0800064 688.72,21.8 C687.439994,20.5199936 686.8,18.88001 686.8,16.88 L686.8,16.88 Z M755.68,52.88 C753.67999,50.479988 751.520012,48.7400054 749.2,47.66 C746.879988,46.5799946 744.320014,46.04 741.52,46.04 C738.399984,46.04 735.640012,46.5799946 733.24,47.66 C730.839988,48.7400054 728.860008,50.2399904 727.3,52.16 C725.739992,54.0800096 724.560004,56.2999874 723.76,58.82 C722.959996,61.3400126 722.56,64.0399856 722.56,66.92 C722.56,69.8000144 723.019995,72.4999874 723.94,75.02 C724.860005,77.5400126 726.139992,79.7599904 727.78,81.68 C729.420008,83.6000096 731.399988,85.0999946 733.72,86.18 C736.040012,87.2600054 738.639986,87.8 741.52,87.8 C747.680031,87.8 752.439983,85.4800232 755.8,80.84 L762.76,87.44 C760.039986,90.5600156 756.840018,92.8399928 753.16,94.28 C749.479982,95.7200072 745.60002,96.44 741.52,96.44 C737.199978,96.44 733.240018,95.7200072 729.64,94.28 C726.039982,92.8399928 722.980013,90.8000132 720.46,88.16 C717.939987,85.5199868 715.980007,82.400018 714.58,78.8 C713.179993,75.199982 712.48,71.2400216 712.48,66.92 C712.48,62.6799788 713.179993,58.760018 714.58,55.16 C715.980007,51.559982 717.959987,48.4400132 720.52,45.8 C723.080013,43.1599868 726.139982,41.1000074 729.7,39.62 C733.260018,38.1399926 737.199978,37.4 741.52,37.4 C745.680021,37.4 749.619981,38.1199928 753.34,39.56 C757.060019,41.0000072 760.319986,43.2399848 763.12,46.28 L755.68,52.88 Z M774.2,4.28 L783.56,4.28 L783.56,95 L774.2,95 L774.2,4.28 Z M853.12,84.8 C849.759983,89.1200216 846.08002,92.1399914 842.08,93.86 C838.07998,95.5800086 833.440026,96.44 828.16,96.44 C823.759978,96.44 819.800018,95.6600078 816.28,94.1 C812.759982,92.5399922 809.780012,90.4400132 807.34,87.8 C804.899988,85.1599868 803.020007,82.040018 801.7,78.44 C800.379993,74.839982 799.72,71.0000204 799.72,66.92 C799.72,62.5999784 800.439993,58.6200182 801.88,54.98 C803.320007,51.3399818 805.319987,48.220013 807.88,45.62 C810.440013,43.019987 813.479982,41.0000072 817,39.56 C820.520018,38.1199928 824.359979,37.4 828.52,37.4 C832.44002,37.4 836.039984,38.0599934 839.32,39.38 C842.600016,40.7000066 845.419988,42.6199874 847.78,45.14 C850.140012,47.6600126 851.959994,50.7399818 853.24,54.38 C854.520006,58.0200182 855.16,62.1599768 855.16,66.8 L855.16,69.8 L809.8,69.8 C809.960001,72.200012 810.539995,74.499989 811.54,76.7 C812.540005,78.900011 813.839992,80.8199918 815.44,82.46 C817.040008,84.1000082 818.919989,85.3999952 821.08,86.36 C823.240011,87.3200048 825.599987,87.8 828.16,87.8 C832.24002,87.8 835.679986,87.0800072 838.48,85.64 C841.280014,84.1999928 843.799989,82.080014 846.04,79.28 L853.12,84.8 Z M845.08,61.88 C844.919999,57.079976 843.360015,53.2400144 840.4,50.36 C837.439985,47.4799856 833.360026,46.04 828.16,46.04 C822.959974,46.04 818.760016,47.4799856 815.56,50.36 C812.359984,53.2400144 810.440003,57.079976 809.8,61.88 L845.08,61.88 Z M904.76,10.04 L937.4,10.04 C940.200014,10.04 943.159985,10.3599968 946.28,11 C949.400016,11.6400032 952.499985,12.659993 955.58,14.06 C958.660016,15.460007 961.619986,17.2799888 964.46,19.52 C967.300014,21.7600112 969.799989,24.4599842 971.96,27.62 C974.120011,30.7800158 975.839994,34.4199794 977.12,38.54 C978.400007,42.6600206 979.04,47.319974 979.04,52.52 C979.04,57.720026 978.400007,62.3799794 977.12,66.5 C975.839994,70.6200206 974.120011,74.2599842 971.96,77.42 C969.799989,80.5800158 967.300014,83.2799888 964.46,85.52 C961.619986,87.7600112 958.660016,89.579993 955.58,90.98 C952.499985,92.380007 949.400016,93.3999968 946.28,94.04 C943.159985,94.6800032 940.200014,95 937.4,95 L904.76,95 L904.76,10.04 Z M914.84,85.64 L934.04,85.64 C938.920025,85.64 943.439979,85.0000064 947.6,83.72 C951.760021,82.4399936 955.359985,80.4600134 958.4,77.78 C961.440015,75.0999866 963.839991,71.6800208 965.6,67.52 C967.360009,63.3599792 968.24,58.3600292 968.24,52.52 C968.24,46.6799708 967.360009,41.6800208 965.6,37.52 C963.839991,33.3599792 961.440015,29.9400134 958.4,27.26 C955.359985,24.5799866 951.760021,22.6000064 947.6,21.32 C943.439979,20.0399936 938.920025,19.4 934.04,19.4 L914.84,19.4 L914.84,85.64 Z M1044.52,84.8 C1041.15998,89.1200216 1037.48002,92.1399914 1033.48,93.86 C1029.47998,95.5800086 1024.84003,96.44 1019.56,96.44 C1015.15998,96.44 1011.20002,95.6600078 1007.68,94.1 C1004.15998,92.5399922 1001.18001,90.4400132 998.74,87.8 C996.299988,85.1599868 994.420007,82.040018 993.1,78.44 C991.779994,74.839982 991.12,71.0000204 991.12,66.92 C991.12,62.5999784 991.839993,58.6200182 993.28,54.98 C994.720007,51.3399818 996.719987,48.220013 999.28,45.62 C1001.84001,43.019987 1004.87998,41.0000072 1008.4,39.56 C1011.92002,38.1199928 1015.75998,37.4 1019.92,37.4 C1023.84002,37.4 1027.43998,38.0599934 1030.72,39.38 C1034.00002,40.7000066 1036.81999,42.6199874 1039.18,45.14 C1041.54001,47.6600126 1043.35999,50.7399818 1044.64,54.38 C1045.92001,58.0200182 1046.56,62.1599768 1046.56,66.8 L1046.56,69.8 L1001.2,69.8 C1001.36,72.200012 1001.94,74.499989 1002.94,76.7 C1003.94001,78.900011 1005.23999,80.8199918 1006.84,82.46 C1008.44001,84.1000082 1010.31999,85.3999952 1012.48,86.36 C1014.64001,87.3200048 1016.99999,87.8 1019.56,87.8 C1023.64002,87.8 1027.07999,87.0800072 1029.88,85.64 C1032.68001,84.1999928 1035.19999,82.080014 1037.44,79.28 L1044.52,84.8 Z M1036.48,61.88 C1036.32,57.079976 1034.76001,53.2400144 1031.8,50.36 C1028.83999,47.4799856 1024.76003,46.04 1019.56,46.04 C1014.35997,46.04 1010.16002,47.4799856 1006.96,50.36 C1003.75998,53.2400144 1001.84,57.079976 1001.2,61.88 L1036.48,61.88 Z M1063.08,80.24 C1064.92001,82.5600116 1066.93999,84.3999932 1069.14,85.76 C1071.34001,87.1200068 1074.11998,87.8 1077.48,87.8 C1078.92001,87.8 1080.37999,87.6400016 1081.86,87.32 C1083.34001,86.9999984 1084.67999,86.4800036 1085.88,85.76 C1087.08001,85.0399964 1088.04,84.1400054 1088.76,83.06 C1089.48,81.9799946 1089.84,80.6800076 1089.84,79.16 C1089.84,77.6399924 1089.5,76.4000048 1088.82,75.44 C1088.14,74.4799952 1087.24001,73.6600034 1086.12,72.98 C1084.99999,72.2999966 1083.72001,71.760002 1082.28,71.36 C1080.83999,70.959998 1079.36001,70.6000016 1077.84,70.28 C1075.19999,69.7199972 1072.68001,69.0800036 1070.28,68.36 C1067.87999,67.6399964 1065.78001,66.7000058 1063.98,65.54 C1062.17999,64.3799942 1060.74001,62.8800092 1059.66,61.04 C1058.57999,59.1999908 1058.04,56.8400144 1058.04,53.96 C1058.04,51.2399864 1058.63999,48.8400104 1059.84,46.76 C1061.04001,44.6799896 1062.63999,42.9600068 1064.64,41.6 C1066.64001,40.2399932 1068.87999,39.2000036 1071.36,38.48 C1073.84001,37.7599964 1076.39999,37.4 1079.04,37.4 C1083.04002,37.4 1086.73998,38.199992 1090.14,39.8 C1093.54002,41.400008 1096.19999,43.999982 1098.12,47.6 L1090.32,52.76 C1089.11999,50.75999 1087.54001,49.1400062 1085.58,47.9 C1083.61999,46.6599938 1081.24001,46.04 1078.44,46.04 C1077.15999,46.04 1075.86001,46.1999984 1074.54,46.52 C1073.21999,46.8400016 1072.04001,47.3199968 1071,47.96 C1069.95999,48.6000032 1069.1,49.419995 1068.42,50.42 C1067.74,51.420005 1067.4,52.5599936 1067.4,53.84 C1067.4,55.040006 1067.78,56.0599958 1068.54,56.9 C1069.3,57.7400042 1070.33999,58.4799968 1071.66,59.12 C1072.98001,59.7600032 1074.49999,60.3199976 1076.22,60.8 C1077.94001,61.2800024 1079.71999,61.6799984 1081.56,62 C1084.04001,62.4800024 1086.39999,63.0999962 1088.64,63.86 C1090.88001,64.6200038 1092.83999,65.6399936 1094.52,66.92 C1096.20001,68.2000064 1097.52,69.7999904 1098.48,71.72 C1099.44,73.6400096 1099.92,75.999986 1099.92,78.8 C1099.92,82.000016 1099.28001,84.7199888 1098,86.96 C1096.71999,89.2000112 1095.02001,91.019993 1092.9,92.42 C1090.77999,93.820007 1088.38001,94.8399968 1085.7,95.48 C1083.01999,96.1200032 1080.28001,96.44 1077.48,96.44 C1072.67998,96.44 1068.54002,95.7000074 1065.06,94.22 C1061.57998,92.7399926 1058.44001,90.00002 1055.64,86 L1063.08,80.24 Z M1115.64,38.84 L1125,38.84 L1125,95 L1115.64,95 L1115.64,38.84 Z M1113.48,16.88 C1113.48,15.0399908 1114.13999,13.4400068 1115.46,12.08 C1116.78001,10.7199932 1118.39999,10.04 1120.32,10.04 C1122.24001,10.04 1123.85999,10.7199932 1125.18,12.08 C1126.50001,13.4400068 1127.16,15.0399908 1127.16,16.88 C1127.16,18.88001 1126.52001,20.5199936 1125.24,21.8 C1123.95999,23.0800064 1122.32001,23.72 1120.32,23.72 C1118.31999,23.72 1116.68001,23.0800064 1115.4,21.8 C1114.11999,20.5199936 1113.48,18.88001 1113.48,16.88 L1113.48,16.88 Z M1199.44,92.48 C1199.44,102.720051 1196.82003,110.499973 1191.58,115.82 C1186.33997,121.140027 1178.76005,123.8 1168.84,123.8 C1163.31997,123.8 1158.34002,123.000008 1153.9,121.4 C1149.45998,119.799992 1145.24002,117.04002 1141.24,113.12 L1147.96,105.44 C1150.92001,108.640016 1154.05998,111.059992 1157.38,112.7 C1160.70002,114.340008 1164.51998,115.16 1168.84,115.16 C1173.00002,115.16 1176.45999,114.540006 1179.22,113.3 C1181.98001,112.059994 1184.15999,110.380011 1185.76,108.26 C1187.36001,106.139989 1188.48,103.720014 1189.12,101 C1189.76,98.2799864 1190.08,95.4400148 1190.08,92.48 L1190.08,85.28 L1189.84,85.28 C1187.59999,88.880018 1184.68002,91.5199916 1181.08,93.2 C1177.47998,94.8800084 1173.80002,95.72 1170.04,95.72 C1165.63998,95.72 1161.60002,95.0000072 1157.92,93.56 C1154.23998,92.1199928 1151.08001,90.1200128 1148.44,87.56 C1145.79999,84.9999872 1143.76001,81.9600176 1142.32,78.44 C1140.87999,74.9199824 1140.16,71.0800208 1140.16,66.92 C1140.16,62.3599772 1140.87999,58.2400184 1142.32,54.56 C1143.76001,50.8799816 1145.77999,47.7800126 1148.38,45.26 C1150.98001,42.7399874 1154.11998,40.8000068 1157.8,39.44 C1161.48002,38.0799932 1165.55998,37.4 1170.04,37.4 C1171.96001,37.4 1173.87999,37.6199978 1175.8,38.06 C1177.72001,38.5000022 1179.57999,39.1799954 1181.38,40.1 C1183.18001,41.0200046 1184.79999,42.179993 1186.24,43.58 C1187.68001,44.980007 1188.88,46.5999908 1189.84,48.44 L1190.08,48.44 L1190.08,38.84 L1199.44,38.84 L1199.44,92.48 Z M1150.24,66.92 C1150.24,69.8000144 1150.75999,72.4599878 1151.8,74.9 C1152.84001,77.3400122 1154.25999,79.459991 1156.06,81.26 C1157.86001,83.060009 1159.95999,84.4799948 1162.36,85.52 C1164.76001,86.5600052 1167.31999,87.08 1170.04,87.08 C1173.24002,87.08 1176.07999,86.5200056 1178.56,85.4 C1181.04001,84.2799944 1183.13999,82.7800094 1184.86,80.9 C1186.58001,79.0199906 1187.88,76.8600122 1188.76,74.42 C1189.64,71.9799878 1190.08,69.4000136 1190.08,66.68 C1190.08,63.6399848 1189.6,60.8600126 1188.64,58.34 C1187.68,55.8199874 1186.32001,53.6400092 1184.56,51.8 C1182.79999,49.9599908 1180.68001,48.540005 1178.2,47.54 C1175.71999,46.539995 1173.00001,46.04 1170.04,46.04 C1167.07999,46.04 1164.38001,46.5799946 1161.94,47.66 C1159.49999,48.7400054 1157.42001,50.2199906 1155.7,52.1 C1153.97999,53.9800094 1152.64,56.1799874 1151.68,58.7 C1150.72,61.2200126 1150.24,63.9599852 1150.24,66.92 L1150.24,66.92 Z M1217.52,52.16 C1217.52,49.5999872 1217.44,47.2000112 1217.28,44.96 C1217.12,42.7199888 1217.04,40.6800092 1217.04,38.84 L1225.92,38.84 C1225.92,40.3600076 1225.96,41.8799924 1226.04,43.4 C1226.12,44.9200076 1226.16,46.479992 1226.16,48.08 L1226.4,48.08 C1227.04,46.7199932 1227.93999,45.4000064 1229.1,44.12 C1230.26001,42.8399936 1231.63999,41.700005 1233.24,40.7 C1234.84001,39.699995 1236.63999,38.900003 1238.64,38.3 C1240.64001,37.699997 1242.79999,37.4 1245.12,37.4 C1248.80002,37.4 1251.97999,37.9599944 1254.66,39.08 C1257.34001,40.2000056 1259.55999,41.75999 1261.32,43.76 C1263.08001,45.76001 1264.38,48.1799858 1265.22,51.02 C1266.06,53.8600142 1266.48,56.9599832 1266.48,60.32 L1266.48,95 L1257.12,95 L1257.12,61.28 C1257.12,56.5599764 1256.08001,52.8400136 1254,50.12 C1251.91999,47.3999864 1248.68002,46.04 1244.28,46.04 C1241.23998,46.04 1238.62001,46.5599948 1236.42,47.6 C1234.21999,48.6400052 1232.42001,50.1199904 1231.02,52.04 C1229.61999,53.9600096 1228.58,56.2399868 1227.9,58.88 C1227.22,61.5200132 1226.88,64.439984 1226.88,67.64 L1226.88,95 L1217.52,95 L1217.52,52.16 Z" id="Particle-Design" sketch:type="MSShapeGroup"></path>
            <g id="lucid" sketch:type="MSLayerGroup" transform="translate(134.000000, 3.000000)">
                <path d="M117.8,91.7 L100.5,91.7 L100.5,83.8 L100.3,83.8 C99.7,84.9 98.8,86 97.8,87.2 C96.8,88.3 95.6,89.3 94.1,90.2 C92.7,91.1 91,91.8 89.2,92.4 C87.4,93 85.4,93.2 83.2,93.2 C78.6,93.2 74.9,92.5 72.1,91.1 C69.3,89.7 67.1,87.8 65.5,85.3 C63.9,82.8 62.9,79.9 62.4,76.5 C61.9,73.1 61.6,69.5 61.6,65.6 L61.6,33.4 L79.6,33.4 L79.6,62 C79.6,63.7 79.7,65.4 79.8,67.2 C79.9,69 80.3,70.7 80.9,72.2 C81.5,73.7 82.4,75 83.7,75.9 C84.9,76.9 86.7,77.3 89,77.3 C91.3,77.3 93.2,76.9 94.6,76 C96,75.2 97.1,74 97.9,72.6 C98.7,71.2 99.2,69.6 99.4,67.9 C99.6,66.1 99.8,64.3 99.8,62.4 L99.8,33.4 L117.8,33.4 L117.8,91.7 L117.8,91.7 Z" id="Shape" sketch:type="MSShapeGroup"></path>
                <path d="M0.2,0.7 L18.9,0.7 L18.9,74.4 L53.6,74.4 L53.6,91.7 L0.2,91.7 L0.2,0.7 L0.2,0.7 Z" id="Shape" sketch:type="MSShapeGroup"></path>
                <path d="M168,52.2 C167.1,50.9 165.9,49.9 164.3,49 C162.7,48.2 161,47.7 159.1,47.7 C154.5,47.7 151,49.1 148.5,51.8 C146,54.5 144.7,58.1 144.7,62.5 C144.7,66.9 146,70.5 148.5,73.2 C151,75.9 154.6,77.3 159.1,77.3 C161.1,77.3 162.8,76.9 164.3,76 C165.7,75.1 167,74.1 168,72.9 L179.9,85.4 C177.1,88.3 173.8,90.3 170,91.5 C166.2,92.7 162.6,93.2 159.1,93.2 C154.6,93.2 150.4,92.5 146.4,91 C142.4,89.6 139,87.5 136.1,84.8 C133.2,82.1 130.9,78.9 129.2,75.1 C127.5,71.3 126.7,67.1 126.7,62.5 C126.7,57.9 127.5,53.7 129.2,49.9 C130.9,46.1 133.2,42.9 136.1,40.2 C139,37.5 142.5,35.5 146.4,34 C150.4,32.6 154.6,31.8 159.1,31.8 C162.5,31.8 166.2,32.4 170,33.5 C173.8,34.7 177.1,36.7 179.9,39.6 L168,52.2 L168,52.2 Z" id="Shape" sketch:type="MSShapeGroup"></path>
                <path d="M188.2,10.9 C188.2,8 189.2,5.6 191.3,3.5 C193.3,1.5 195.8,0.4 198.7,0.4 C201.6,0.4 204,1.4 206.1,3.5 C208.1,5.5 209.2,8 209.2,10.9 C209.2,13.8 208.2,16.2 206.1,18.3 C204.1,20.3 201.6,21.4 198.7,21.4 C195.8,21.4 193.4,20.4 191.3,18.3 C189.3,16.3 188.2,13.8 188.2,10.9 L188.2,10.9 Z M189.6,33.4 L207.6,33.4 L207.6,91.7 L189.6,91.7 L189.6,33.4 L189.6,33.4 Z" id="Shape" sketch:type="MSShapeGroup"></path>
                <path d="M280.8,91.7 L264.2,91.7 L264.2,84 L264,84 C263.3,85 262.3,86.1 261.2,87.2 C260,88.3 258.7,89.3 257.1,90.1 C255.5,91 253.8,91.7 251.9,92.3 C250,92.9 248.1,93.1 246.1,93.1 C241.8,93.1 237.9,92.4 234.3,90.9 C230.8,89.4 227.8,87.3 225.2,84.7 C222.7,82 220.7,78.8 219.4,75.2 C218,71.5 217.4,67.5 217.4,63.1 C217.4,59 218,55.1 219.3,51.4 C220.5,47.7 222.3,44.4 224.6,41.5 C226.9,38.6 229.7,36.3 232.9,34.6 C236.2,32.9 239.9,32 244.1,32 C247.9,32 251.4,32.6 254.6,33.7 C257.8,34.9 260.5,36.8 262.6,39.6 L262.8,39.6 L262.8,0.6 L280.8,0.6 L280.8,91.7 L280.8,91.7 Z M262.3,62.5 C262.3,58.1 261,54.5 258.5,51.8 C256,49.1 252.4,47.7 247.9,47.7 C243.3,47.7 239.8,49.1 237.3,51.8 C234.8,54.5 233.5,58.1 233.5,62.5 C233.5,66.9 234.8,70.5 237.3,73.2 C239.8,75.9 243.4,77.3 247.9,77.3 C252.5,77.3 256,75.9 258.5,73.2 C261,70.5 262.3,66.9 262.3,62.5 L262.3,62.5 Z" id="Shape" sketch:type="MSShapeGroup"></path>
            </g>
            <g id="logo" sketch:type="MSLayerGroup" transform="translate(48.000000, 49.000000) rotate(-270.000000) translate(-48.000000, -49.000000) translate(2.000000, 3.000000)">
                <path d="M45.9258374,68.0259104 C39.9974803,67.8707622 34.360924,65.598949 30.0688674,61.31021 C25.8137475,57.0584104 23.992763,51.4952396 23.970601,45.9135987 L23.9669073,45.9209867 C23.9151958,42.9177609 22.7553801,39.9256172 20.4616045,37.6316404 C15.7817115,32.9550306 8.19119821,32.9550306 3.51130509,37.6316404 C-1.16858801,42.3119442 -1.17228169,49.9031236 3.51130509,54.5871215 C5.80508061,56.8774044 8.79326808,58.0447096 11.799924,58.0890377 L11.7888429,58.0964259 C17.4032372,58.0927318 22.8661905,59.8769359 27.1508598,64.1582874 C31.3764302,68.3805345 33.6369626,74.0101978 33.9139886,79.7950088 C33.8585834,82.9312188 35.0183991,86.0932867 37.4155977,88.4870016 C42.0954908,93.1709993 49.6860041,93.1709993 54.365897,88.4870016 C59.0457903,83.8066979 59.0457903,76.2229065 54.365897,71.5389083 C52.0314912,69.2079919 48.9805111,68.036992 45.9258374,68.0259104" id="wn-goo" sketch:type="MSShapeGroup"></path>
                <path d="M3.08256511,74.0360725 C-1.02914288,78.1451708 -1.02590021,84.8066452 3.08256511,88.9157435 C7.19103043,93.0280855 13.8547212,93.0280855 17.9631865,88.9157435 C22.0748945,84.8066452 22.0716518,78.1451708 17.9631865,74.0360725 C13.8547212,69.9269737 7.19103043,69.9269737 3.08256511,74.0360725" id="nw-circle" sketch:type="MSShapeGroup"></path>
                <path d="M38.2223336,72.2673106 C33.9241941,76.5627221 33.9275838,83.5262385 38.2223336,87.82165 C42.5170834,92.1204522 49.4829166,92.1204522 53.7776664,87.82165 C58.0758059,83.5262385 58.0724162,76.5627221 53.7776664,72.2673106 C49.4829166,67.9718986 42.5170834,67.9718986 38.2223336,72.2673106" id="w-circle" sketch:type="MSShapeGroup"></path>
                <path d="M17.9642246,20.5171801 C22.0729273,16.4087939 22.0729273,9.74523143 17.9642246,5.63684522 C13.8555218,1.528459 7.19144598,1.528459 3.08274324,5.63684522 C-1.02595949,9.74523143 -1.02920235,16.4087939 3.08274324,20.5204227 C7.19144598,24.6288089 13.8555218,24.6288089 17.9642246,20.5171801" id="ne-circle" sketch:type="MSShapeGroup"></path>
                <path d="M88.257333,74.0360725 C84.1485509,69.9269737 77.4908326,69.9269737 73.3820511,74.0360725 C69.2667832,78.1451708 69.2667832,84.8066452 73.3820511,88.9157435 C77.4908326,93.0280855 84.1517941,93.0280855 88.257333,88.9157435 C92.3693577,84.8066452 92.3693577,78.1484139 88.257333,74.0360725" id="sw-circle" sketch:type="MSShapeGroup"></path>
                <path d="M88.2197512,5.63737967 C84.1109691,1.52828085 77.4532508,1.52828085 73.3444692,5.63737967 C69.2292014,9.74647797 69.2292014,16.4079524 73.3444692,20.5170507 C77.4532508,24.6293927 84.1142122,24.6293927 88.2197512,20.5170507 C92.3317759,16.4079524 92.3317759,9.74972112 88.2197512,5.63737967" id="se-circle" sketch:type="MSShapeGroup"></path>
                <path d="M33.9017274,11.9499796 C33.7465791,17.8783367 31.474766,23.514893 27.186027,27.8069496 C22.9342274,32.0620695 17.3710566,33.883054 11.7894157,33.905216 L11.7968037,33.9089097 C8.79357791,33.9606212 5.80143421,35.1204369 3.50745733,37.4142125 C-1.16915244,42.0941055 -1.16915244,49.6846188 3.50745733,54.3645119 C8.18776116,59.044405 15.7789406,59.0480987 20.4629385,54.3645119 C22.7532213,52.0707364 23.9205266,49.0825489 23.9648547,46.075893 L23.9722428,46.0869741 C23.9685488,40.4725798 25.7527529,35.0096265 30.0341043,30.7249572 C34.2563514,26.4993868 39.8860148,24.2388544 45.6708258,23.9618284 C48.8070358,24.0172336 51.9691037,22.8574179 54.3628186,20.4602193 C59.0468163,15.7803262 59.0468163,8.18981293 54.3628186,3.50991996 C49.6825149,-1.16997332 42.0987235,-1.16997332 37.4147253,3.50991996 C35.0838088,5.84432583 33.912809,8.89530588 33.9017274,11.9499796" id="ne-goo" sketch:type="MSShapeGroup"></path>
                <path d="M67.9064491,46.0741625 C67.7513009,52.0025195 65.4794878,57.6390759 61.1907487,61.9311325 C56.9389492,66.1862524 51.3757783,68.0072368 45.7941374,68.0293989 L45.8015254,68.0330926 C42.7982997,68.0848041 39.806156,69.2446198 37.5121791,71.5383953 C32.8355693,76.2182884 32.8355693,83.8088017 37.5121791,88.4886948 C42.1924829,93.1685879 49.7836624,93.1722816 54.4676602,88.4886948 C56.7579431,86.1949193 57.9252483,83.2067318 57.9695765,80.2000759 L57.9769646,80.211157 C57.9732705,74.5967627 59.7574746,69.1338093 64.0388261,64.8491401 C68.2610732,60.6235696 73.8907365,58.3630372 79.6755475,58.0860112 C82.8117576,58.1414164 85.9738255,56.9816007 88.3675403,54.5844022 C93.051538,49.9045091 93.051538,42.3139958 88.3675403,37.6341028 C83.6872366,32.9542096 76.1034453,32.9542096 71.419447,37.6341028 C69.0885306,39.9685087 67.9175308,43.0194888 67.9064491,46.0741625" id="ws-goo" sketch:type="MSShapeGroup"></path>
                <path d="M3.08256511,74.0360725 C-1.02914288,78.1451708 -1.02590021,84.8066452 3.08256511,88.9157435 C7.19103043,93.0280855 13.8547212,93.0280855 17.9631865,88.9157435 C22.0748945,84.8066452 22.0716518,78.1451708 17.9631865,74.0360725 C13.8547212,69.9269737 7.19103043,69.9269737 3.08256511,74.0360725" id="nw-circle-copy" sketch:type="MSShapeGroup"></path>
                <path d="M87.9617328,38.5360725 C83.8529508,34.4269737 77.1952325,34.4269737 73.0864509,38.5360725 C68.971183,42.6451708 68.971183,49.3066452 73.0864509,53.4157435 C77.1952325,57.5280855 83.8561939,57.5280855 87.9617328,53.4157435 C92.0737575,49.3066452 92.0737575,42.6484139 87.9617328,38.5360725" id="s-circle-copy" sketch:type="MSShapeGroup"></path>
                <path d="M88.2197512,5.63737967 C84.1109691,1.52828085 77.4532508,1.52828085 73.3444692,5.63737967 C69.2292014,9.74647797 69.2292014,16.4079524 73.3444692,20.5170507 C77.4532508,24.6293927 84.1142122,24.6293927 88.2197512,20.5170507 C92.3317759,16.4079524 92.3317759,9.74972112 88.2197512,5.63737967" id="se-circle-copy" sketch:type="MSShapeGroup"></path>
                <path d="M38.2223336,72.2673106 C33.9241941,76.5627221 33.9275838,83.5262385 38.2223336,87.82165 C42.5170834,92.1204522 49.4829166,92.1204522 53.7776664,87.82165 C58.0758059,83.5262385 58.0724162,76.5627221 53.7776664,72.2673106 C49.4829166,67.9718986 42.5170834,67.9718986 38.2223336,72.2673106" id="w-circle-copy" sketch:type="MSShapeGroup"></path>
            </g>
        </g>
    </g>
</svg>