<?xml version="1.0" encoding="UTF-8" standalone="no"?>
<svg width="92px" height="92px" viewBox="0 0 92 92" version="1.1" xmlns="http://www.w3.org/2000/svg" xmlns:xlink="http://www.w3.org/1999/xlink" xmlns:sketch="http://www.bohemiancoding.com/sketch/ns">
    <!-- Generator: Sketch 3.4.4 (17249) - http://www.bohemiancoding.com/sketch -->
    <title>lucid-logos</title>
    <desc>Created with Sketch.</desc>
    <defs></defs>
    <g id="Page-1" stroke="none" stroke-width="1" fill="none" fill-rule="evenodd" sketch:type="MSPage">
        <g id="lucid-logos" sketch:type="MSLayerGroup" transform="translate(46.000000, 46.000000) rotate(90.000000) translate(-46.000000, -46.000000) translate(-0.000000, 0.000000)" fill="#1BA9E3">
            <path d="M45.9258374,68.0259104 C39.9974803,67.8707622 34.360924,65.598949 30.0688674,61.31021 C25.8137475,57.0584104 23.992763,51.4952396 23.970601,45.9135987 L23.9669073,45.9209867 C23.9151958,42.9177609 22.7553801,39.9256172 20.4616045,37.6316404 C15.7817115,32.9550306 8.19119821,32.9550306 3.51130509,37.6316404 C-1.16858801,42.3119442 -1.17228169,49.9031236 3.51130509,54.5871215 C5.80508061,56.8774044 8.79326808,58.0447096 11.799924,58.0890377 L11.7888429,58.0964259 C17.4032372,58.0927318 22.8661905,59.8769359 27.1508598,64.1582874 C31.3764302,68.3805345 33.6369626,74.0101978 33.9139886,79.7950088 C33.8585834,82.9312188 35.0183991,86.0932867 37.4155977,88.4870016 C42.0954908,93.1709993 49.6860041,93.1709993 54.365897,88.4870016 C59.0457903,83.8066979 59.0457903,76.2229065 54.365897,71.5389083 C52.0314912,69.2079919 48.9805111,68.036992 45.9258374,68.0259104" id="wn-goo" sketch:type="MSShapeGroup"></path>
            <path d="M3.08256511,74.0360725 C-1.02914288,78.1451708 -1.02590021,84.8066452 3.08256511,88.9157435 C7.19103043,93.0280855 13.8547212,93.0280855 17.9631865,88.9157435 C22.0748945,84.8066452 22.0716518,78.1451708 17.9631865,74.0360725 C13.8547212,69.9269737 7.19103043,69.9269737 3.08256511,74.0360725" id="nw-circle" sketch:type="MSShapeGroup"></path>
            <path d="M38.2223336,72.2673106 C33.9241941,76.5627221 33.9275838,83.5262385 38.2223336,87.82165 C42.5170834,92.1204522 49.4829166,92.1204522 53.7776664,87.82165 C58.0758059,83.5262385 58.0724162,76.5627221 53.7776664,72.2673106 C49.4829166,67.9718986 42.5170834,67.9718986 38.2223336,72.2673106" id="w-circle" sketch:type="MSShapeGroup"></path>
            <path d="M17.9642246,20.5171801 C22.0729273,16.4087939 22.0729273,9.74523143 17.9642246,5.63684522 C13.8555218,1.528459 7.19144598,1.528459 3.08274324,5.63684522 C-1.02595949,9.74523143 -1.02920235,16.4087939 3.08274324,20.5204227 C7.19144598,24.6288089 13.8555218,24.6288089 17.9642246,20.5171801" id="ne-circle" sketch:type="MSShapeGroup"></path>
            <path d="M88.257333,74.0360725 C84.1485509,69.9269737 77.4908326,69.9269737 73.3820511,74.0360725 C69.2667832,78.1451708 69.2667832,84.8066452 73.3820511,88.9157435 C77.4908326,93.0280855 84.1517941,93.0280855 88.257333,88.9157435 C92.3693577,84.8066452 92.3693577,78.1484139 88.257333,74.0360725" id="sw-circle" sketch:type="MSShapeGroup"></path>
            <path d="M88.2197512,5.63737967 C84.1109691,1.52828085 77.4532508,1.52828085 73.3444692,5.63737967 C69.2292014,9.74647797 69.2292014,16.4079524 73.3444692,20.5170507 C77.4532508,24.6293927 84.1142122,24.6293927 88.2197512,20.5170507 C92.3317759,16.4079524 92.3317759,9.74972112 88.2197512,5.63737967" id="se-circle" sketch:type="MSShapeGroup"></path>
            <path d="M33.9017274,11.9499796 C33.7465791,17.8783367 31.474766,23.514893 27.186027,27.8069496 C22.9342274,32.0620695 17.3710566,33.883054 11.7894157,33.905216 L11.7968037,33.9089097 C8.79357791,33.9606212 5.80143421,35.1204369 3.50745733,37.4142125 C-1.16915244,42.0941055 -1.16915244,49.6846188 3.50745733,54.3645119 C8.18776116,59.044405 15.7789406,59.0480987 20.4629385,54.3645119 C22.7532213,52.0707364 23.9205266,49.0825489 23.9648547,46.075893 L23.9722428,46.0869741 C23.9685488,40.4725798 25.7527529,35.0096265 30.0341043,30.7249572 C34.2563514,26.4993868 39.8860148,24.2388544 45.6708258,23.9618284 C48.8070358,24.0172336 51.9691037,22.8574179 54.3628186,20.4602193 C59.0468163,15.7803262 59.0468163,8.18981293 54.3628186,3.50991996 C49.6825149,-1.16997332 42.0987235,-1.16997332 37.4147253,3.50991996 C35.0838088,5.84432583 33.912809,8.89530588 33.9017274,11.9499796" id="ne-goo" sketch:type="MSShapeGroup"></path>
            <path d="M67.9064491,46.0741625 C67.7513009,52.0025195 65.4794878,57.6390759 61.1907487,61.9311325 C56.9389492,66.1862524 51.3757783,68.0072368 45.7941374,68.0293989 L45.8015254,68.0330926 C42.7982997,68.0848041 39.806156,69.2446198 37.5121791,71.5383953 C32.8355693,76.2182884 32.8355693,83.8088017 37.5121791,88.4886948 C42.1924829,93.1685879 49.7836624,93.1722816 54.4676602,88.4886948 C56.7579431,86.1949193 57.9252483,83.2067318 57.9695765,80.2000759 L57.9769646,80.211157 C57.9732705,74.5967627 59.7574746,69.1338093 64.0388261,64.8491401 C68.2610732,60.6235696 73.8907365,58.3630372 79.6755475,58.0860112 C82.8117576,58.1414164 85.9738255,56.9816007 88.3675403,54.5844022 C93.051538,49.9045091 93.051538,42.3139958 88.3675403,37.6341028 C83.6872366,32.9542096 76.1034453,32.9542096 71.419447,37.6341028 C69.0885306,39.9685087 67.9175308,43.0194888 67.9064491,46.0741625" id="ws-goo" sketch:type="MSShapeGroup"></path>
        </g>
    </g>
</svg>