<?xml version="1.0" encoding="UTF-8" standalone="no"?>
<svg width="208px" height="24px" viewBox="0 0 208 24" version="1.1" xmlns="http://www.w3.org/2000/svg" xmlns:xlink="http://www.w3.org/1999/xlink" xmlns:sketch="http://www.bohemiancoding.com/sketch/ns">
    <!-- Generator: Sketch 3.4.4 (17249) - http://www.bohemiancoding.com/sketch -->
    <title>Lucid Particle Desig + Imported Layers</title>
    <desc>Created with Sketch.</desc>
    <defs></defs>
    <g id="Page-3" stroke="none" stroke-width="1" fill="none" fill-rule="evenodd" sketch:type="MSPage">
        <g id="B00-Copy-28" sketch:type="MSArtboardGroup" transform="translate(-19.000000, -25.000000)">
            <g id="Lucid-Particle-Desig-+-Imported-Layers" sketch:type="MSLayerGroup" transform="translate(19.000000, 25.000000)">
                <path d="M12.6963806,17.5672007 C11.0574627,17.5255709 9.49921422,16.9159913 8.31265807,15.765224 C7.13631325,14.6243685 6.63289485,13.1316419 6.62676806,11.6339594 L6.62574692,11.6359418 C6.61145107,10.8301073 6.29081541,10.0272464 5.65669203,9.41171965 C4.36291696,8.15687776 2.26448935,8.15687776 0.97071427,9.41171965 C-0.323060807,10.6675527 -0.324081939,12.7044406 0.97071427,13.9612649 C1.60483765,14.5758004 2.43093397,14.8890153 3.26213595,14.9009095 L3.25907255,14.9028919 C4.81119419,14.9019007 6.32144939,15.3806437 7.50596328,16.5294287 C8.67413903,17.6623546 9.29907222,19.1729226 9.37565717,20.7251204 C9.36034018,21.5666376 9.68097583,22.4150931 10.3436909,23.0573818 C11.637466,24.3142061 13.7358936,24.3142061 15.0296687,23.0573818 C16.3234438,21.8015487 16.3234438,19.7666432 15.0296687,18.5098189 C14.3843129,17.8843804 13.5408573,17.5701743 12.6963806,17.5672007" id="Fill-1" fill="#A9DDF3" sketch:type="MSShapeGroup"></path>
                <path d="M0.852187395,19.1798653 C-0.284510646,20.2824309 -0.283614196,22.0698576 0.852187395,23.1724232 C1.98798899,24.2758589 3.83019283,24.2758589 4.96599442,23.1724232 C6.10269246,22.0698576 6.10179601,20.2824309 4.96599442,19.1798653 C3.83019283,18.0772998 1.98798899,18.0772998 0.852187395,19.1798653" id="Fill-2" fill="#A9DDF3" sketch:type="MSShapeGroup"></path>
                <path d="M4.9662814,4.81951666 C6.10214863,3.71714222 6.10214863,1.92915527 4.9662814,0.826780828 C3.83041417,-0.275593609 1.98810387,-0.275593609 0.852236642,0.826780828 C-0.283630586,1.92915527 -0.284527087,3.71714222 0.852236642,4.82038672 C1.98810387,5.92276116 3.83041417,5.92276116 4.9662814,4.81951666" id="Fill-3" fill="#A9DDF3" sketch:type="MSShapeGroup"></path>
                <path d="M23.8746835,19.1798653 C22.7387944,18.0772998 20.8982416,18.0772998 19.7623525,19.1798653 C18.6246704,20.2824309 18.6246704,22.0698576 19.7623525,23.1724232 C20.8982416,24.2758589 22.7396909,24.2758589 23.8746835,23.1724232 C25.0114691,22.0698576 25.0114691,20.2833011 23.8746835,19.1798653" id="Fill-4" fill="#A9DDF3" sketch:type="MSShapeGroup"></path>
                <path d="M35.6101818,2.18541176 L39.9214545,2.18541176 L39.9214545,17.3138824 L47.9083636,17.3138824 L47.9083636,21.1764706 L35.6101818,21.1764706 L35.6101818,2.18541176 Z M63.3219173,21.1764706 L59.3422809,21.1764706 L59.3422809,19.4061176 L59.2870082,19.4061176 C59.1396135,19.6564718 58.9507669,19.9068223 58.7204627,20.1571765 C58.4901585,20.4075307 58.2091917,20.6310578 57.8775536,20.8277647 C57.5459156,21.0244716 57.1682224,21.1854111 56.7444627,21.3105882 C56.320703,21.4357653 55.8601016,21.4983529 55.3626445,21.4983529 C54.3124575,21.4983529 53.4603448,21.3418839 52.8062809,21.0289412 C52.152217,20.7159984 51.6455554,20.2823557 51.2862809,19.728 C50.9270064,19.1736443 50.6874936,18.5209449 50.5677355,17.7698824 C50.4479773,17.0188198 50.3880991,16.2051809 50.3880991,15.3289412 L50.3880991,8.14023529 L54.5335536,8.14023529 L54.5335536,14.5242353 C54.5335536,14.8997666 54.5473717,15.2887039 54.5750082,15.6910588 C54.6026447,16.0934138 54.6855529,16.4644689 54.8237355,16.8042353 C54.961918,17.1440017 55.1737946,17.4211754 55.4593718,17.6357647 C55.744949,17.850354 56.1548843,17.9576471 56.68919,17.9576471 C57.2234957,17.9576471 57.6564611,17.8637656 57.9880991,17.676 C58.3197371,17.4882344 58.5730679,17.2378839 58.7480991,16.9249412 C58.9231303,16.6119984 59.0382806,16.2588255 59.0935536,15.8654118 C59.1488266,15.471998 59.1764627,15.060708 59.1764627,14.6315294 L59.1764627,8.14023529 L63.3219173,8.14023529 L63.3219173,21.1764706 Z M75.9718346,12.3515294 C75.7691669,12.0654103 75.483594,11.8284715 75.1151073,11.6407059 C74.7466206,11.4529402 74.3505033,11.3590588 73.9267436,11.3590588 C72.8765566,11.3590588 72.061292,11.6630558 71.4809255,12.2710588 C70.9005589,12.8790619 70.61038,13.6748186 70.61038,14.6583529 C70.61038,15.6418873 70.9005589,16.437644 71.4809255,17.0456471 C72.061292,17.6536501 72.8765566,17.9576471 73.9267436,17.9576471 C74.387352,17.9576471 74.7834693,17.8592951 75.1151073,17.6625882 C75.4467453,17.4658814 75.7323182,17.2334131 75.9718346,16.9651765 L78.7078346,19.7548235 C78.0629828,20.3985915 77.3029904,20.8501164 76.4278346,21.1094118 C75.5526787,21.3687072 74.71899,21.4983529 73.9267436,21.4983529 C72.8949809,21.4983529 71.9231118,21.3374134 71.0111073,21.0155294 C70.0991027,20.6936454 69.3068682,20.2331795 68.63438,19.6341176 C67.9618918,19.0350558 67.4322001,18.3152983 67.0452891,17.4748235 C66.6583781,16.6343487 66.4649255,15.6955346 66.4649255,14.6583529 C66.4649255,13.6211713 66.6583781,12.6823571 67.0452891,11.8418824 C67.4322001,11.0014076 67.9618918,10.2816501 68.63438,9.68258824 C69.3068682,9.08352642 70.0991027,8.62306043 71.0111073,8.30117647 C71.9231118,7.97929251 72.8949809,7.81835294 73.9267436,7.81835294 C74.71899,7.81835294 75.5526787,7.9479987 76.4278346,8.20729412 C77.3029904,8.46658953 78.0629828,8.91811443 78.7078346,9.56188235 L75.9718346,12.3515294 Z M80.88357,8.14023529 L85.0290246,8.14023529 L85.0290246,21.1764706 L80.88357,21.1764706 L80.88357,8.14023529 Z M80.5519336,4.03623529 C80.5519336,3.39246737 80.7868404,2.84259052 81.2566609,2.38658824 C81.7264815,1.93058596 82.2930212,1.70258824 82.9562973,1.70258824 C83.6195733,1.70258824 84.1861131,1.93058596 84.6559336,2.38658824 C85.1257542,2.84259052 85.3606609,3.39246737 85.3606609,4.03623529 C85.3606609,4.68000322 85.1257542,5.22988007 84.6559336,5.68588235 C84.1861131,6.14188463 83.6195733,6.36988235 82.9562973,6.36988235 C82.2930212,6.36988235 81.7264815,6.14188463 81.2566609,5.68588235 C80.7868404,5.22988007 80.5519336,4.68000322 80.5519336,4.03623529 L80.5519336,4.03623529 Z M102.736396,21.1764706 L98.9225782,21.1764706 L98.9225782,19.4597647 L98.8673055,19.4597647 C98.7014865,19.6922365 98.4850038,19.9291753 98.2178509,20.1705882 C97.9506981,20.4120012 97.6374891,20.6310578 97.2782146,20.8277647 C96.91894,21.0244716 96.5228228,21.1854111 96.0898509,21.3105882 C95.6568791,21.4357653 95.2100957,21.4983529 94.7494873,21.4983529 C93.7545732,21.4983529 92.8517944,21.3329428 92.0411237,21.0021176 C91.2304529,20.6712925 90.5349447,20.2063559 89.9545782,19.6072941 C89.3742117,19.0082323 88.9274282,18.2974159 88.6142146,17.4748235 C88.3010009,16.6522312 88.1443964,15.7491814 88.1443964,14.7656471 C88.1443964,13.8536425 88.2871828,12.9818865 88.57276,12.1503529 C88.8583372,11.3188194 89.2636665,10.5811797 89.78876,9.93741176 C90.3138535,9.29364384 90.9540896,8.77953133 91.7094873,8.39505882 C92.464885,8.01058631 93.3216037,7.81835294 94.2796691,7.81835294 C95.1456128,7.81835294 95.9516654,7.9479987 96.6978509,8.20729412 C97.4440365,8.46658953 98.0566364,8.90917334 98.5356691,9.53505882 L98.5909418,9.53505882 L98.5909418,0.897882353 L102.736396,0.897882353 L102.736396,21.1764706 Z M98.9225782,14.6583529 C98.9225782,13.6748186 98.6323993,12.8790619 98.0520327,12.2710588 C97.4716662,11.6630558 96.6564016,11.3590588 95.6062146,11.3590588 C94.5560275,11.3590588 93.7407629,11.6630558 93.1603964,12.2710588 C92.5800298,12.8790619 92.2898509,13.6748186 92.2898509,14.6583529 C92.2898509,15.6418873 92.5800298,16.437644 93.1603964,17.0456471 C93.7407629,17.6536501 94.5560275,17.9576471 95.6062146,17.9576471 C96.6564016,17.9576471 97.4716662,17.6536501 98.0520327,17.0456471 C98.6323993,16.437644 98.9225782,15.6418873 98.9225782,14.6583529 L98.9225782,14.6583529 Z M118.170049,10.5811765 L121.375867,10.5811765 C122.260235,10.5811765 123.011016,10.4917656 123.628231,10.3129412 C124.245446,10.1341168 124.73829,9.89717795 125.106776,9.60211765 C125.475263,9.30705735 125.742412,8.95835495 125.908231,8.556 C126.07405,8.15364505 126.156958,7.72000232 126.156958,7.25505882 C126.156958,6.80799776 126.07405,6.38329613 125.908231,5.98094118 C125.742412,5.57858622 125.475263,5.22541328 125.106776,4.92141176 C124.73829,4.61741024 124.245446,4.38047144 123.628231,4.21058824 C123.011016,4.04070503 122.260235,3.95576471 121.375867,3.95576471 L118.170049,3.95576471 L118.170049,10.5811765 Z M116.180231,2.18541176 L121.873322,2.18541176 C123.86315,2.18541176 125.433801,2.60564286 126.585322,3.44611765 C127.736843,4.28659244 128.312595,5.5562268 128.312595,7.25505882 C128.312595,8.95389085 127.736843,10.2279958 126.585322,11.0774118 C125.433801,11.9268278 123.86315,12.3515294 121.873322,12.3515294 L118.170049,12.3515294 L118.170049,21.1764706 L116.180231,21.1764706 L116.180231,2.18541176 Z M139.359603,14.9265882 C138.898994,14.9265882 138.323243,14.948941 137.63233,14.9936471 C136.941417,15.0383532 136.278151,15.1456462 135.642512,15.3155294 C135.006872,15.4854126 134.463363,15.7491747 134.011966,16.1068235 C133.56057,16.4644724 133.334875,16.9562322 133.334875,17.5821176 C133.334875,17.9934138 133.42239,18.3465868 133.597421,18.6416471 C133.772452,18.9367074 134.007359,19.1781167 134.302148,19.3658824 C134.596938,19.553648 134.923965,19.6877643 135.283239,19.7682353 C135.642514,19.8487063 136.006389,19.8889412 136.374875,19.8889412 C137.038152,19.8889412 137.613903,19.7816481 138.102148,19.5670588 C138.590393,19.3524695 139.000328,19.0618842 139.331966,18.6952941 C139.663604,18.328704 139.907723,17.8995319 140.06433,17.4077647 C140.220937,16.9159975 140.299239,16.3929439 140.299239,15.8385882 L140.299239,14.9265882 L139.359603,14.9265882 Z M140.299239,13.4781176 L140.299239,13.1562353 C140.299239,10.9924598 139.193796,9.91058824 136.982875,9.91058824 C135.47208,9.91058824 134.15476,10.402348 133.030875,11.3858824 L131.925421,10.1251765 C133.141427,8.90917039 134.965409,8.30117647 137.397421,8.30117647 C138.023848,8.30117647 138.627236,8.39058734 139.207603,8.56941176 C139.787969,8.74823619 140.290025,9.02093934 140.713785,9.38752941 C141.137544,9.75411948 141.478389,10.2145855 141.73633,10.7689412 C141.994271,11.3232969 142.123239,11.9849373 142.123239,12.7538824 L142.123239,18.36 C142.123239,18.8428259 142.146269,19.3479974 142.19233,19.8755294 C142.238391,20.4030615 142.289057,20.8367042 142.34433,21.1764706 L140.575603,21.1764706 C140.52033,20.8724691 140.478876,20.5416488 140.451239,20.184 C140.423603,19.8263512 140.409785,19.4776488 140.409785,19.1378824 L140.354512,19.1378824 C139.820206,19.9783571 139.189182,20.5818805 138.461421,20.9484706 C137.73366,21.3150607 136.844699,21.4983529 135.794512,21.4983529 C135.223357,21.4983529 134.670636,21.4223537 134.13633,21.2703529 C133.602024,21.1183522 133.127605,20.8858839 132.713057,20.5729412 C132.29851,20.2599984 131.966877,19.8755317 131.718148,19.4195294 C131.46942,18.9635271 131.345057,18.4315325 131.345057,17.8235294 C131.345057,16.8042302 131.616812,16.0040029 132.16033,15.4228235 C132.703848,14.8416442 133.385538,14.4080014 134.205421,14.1218824 C135.025304,13.8357633 135.900447,13.6569415 136.830875,13.5854118 C137.761304,13.513882 138.613417,13.4781176 139.387239,13.4781176 L140.299239,13.4781176 Z M147.173156,12.5392941 C147.173156,11.9849384 147.159338,11.4216499 147.131702,10.8494118 C147.104065,10.2771736 147.081035,9.53506338 147.062611,8.62305882 L148.858975,8.62305882 L148.858975,10.9567059 L148.914247,10.9567059 C149.043218,10.6169395 149.227458,10.2905898 149.466975,9.97764706 C149.706491,9.66470432 149.99667,9.38306008 150.33752,9.13270588 C150.67837,8.88235169 151.074487,8.68117723 151.525884,8.52917647 C151.97728,8.37717571 152.488547,8.30117647 153.059702,8.30117647 C153.575583,8.30117647 154.026973,8.35482299 154.413884,8.46211765 L154.054611,10.2056471 C153.815095,10.1162348 153.465037,10.0715294 153.004429,10.0715294 C152.304304,10.0715294 151.705523,10.2011752 151.208065,10.4604706 C150.710608,10.719766 150.296067,11.0505862 149.964429,11.4529412 C149.632791,11.8552961 149.388672,12.2889389 149.232065,12.7538824 C149.075459,13.2188259 148.997156,13.6658802 148.997156,14.0950588 L148.997156,21.1764706 L147.173156,21.1764706 L147.173156,12.5392941 Z M163.471074,10.2324706 L159.740165,10.2324706 L159.740165,17.6357647 C159.740165,18.1007082 159.786225,18.4807044 159.878346,18.7757647 C159.970468,19.070825 160.099436,19.2988227 160.265255,19.4597647 C160.431074,19.6207067 160.629133,19.7324703 160.859437,19.7950588 C161.089741,19.8576474 161.343072,19.8889412 161.619437,19.8889412 C161.932651,19.8889412 162.255072,19.8442357 162.58671,19.7548235 C162.918348,19.6654113 163.222345,19.5491772 163.49871,19.4061176 L163.581619,21.0423529 C162.899919,21.3463545 162.080048,21.4983529 161.121983,21.4983529 C160.77192,21.4983529 160.408045,21.4536475 160.030346,21.3642353 C159.652648,21.2748231 159.307196,21.1049424 158.993983,20.8545882 C158.680769,20.604234 158.422832,20.2644727 158.220165,19.8352941 C158.017497,19.4061155 157.916165,18.842827 157.916165,18.1454118 L157.916165,10.2324706 L155.180165,10.2324706 L155.180165,8.62305882 L157.916165,8.62305882 L157.916165,5.08235294 L159.740165,5.08235294 L159.740165,8.62305882 L163.471074,8.62305882 L163.471074,10.2324706 Z M169.239536,3.79482353 C169.239536,4.17035482 169.101356,4.47882232 168.824991,4.72023529 C168.548626,4.96164827 168.244629,5.08235294 167.912991,5.08235294 C167.581353,5.08235294 167.277356,4.96164827 167.000991,4.72023529 C166.724626,4.47882232 166.586445,4.17035482 166.586445,3.79482353 C166.586445,3.41929224 166.724626,3.11082474 167.000991,2.86941176 C167.277356,2.62799879 167.581353,2.50729412 167.912991,2.50729412 C168.244629,2.50729412 168.548626,2.62799879 168.824991,2.86941176 C169.101356,3.11082474 169.239536,3.41929224 169.239536,3.79482353 L169.239536,3.79482353 Z M168.824991,21.1764706 L167.000991,21.1764706 L167.000991,8.62305882 L168.824991,8.62305882 L168.824991,21.1764706 Z M183.271272,11.5736471 C182.958058,11.1087036 182.520487,10.7152957 181.958545,10.3934118 C181.396602,10.0715278 180.756366,9.91058824 180.037817,9.91058824 C179.28242,9.89270579 178.605335,10.0089399 178.006545,10.2592941 C177.407754,10.5096483 176.896486,10.8583507 176.472726,11.3054118 C176.048967,11.7524728 175.726546,12.2844675 175.505454,12.9014118 C175.284362,13.518356 175.173817,14.184467 175.173817,14.8997647 C175.173817,15.6150624 175.284362,16.2811734 175.505454,16.8981176 C175.726546,17.5150619 176.048967,18.0470566 176.472726,18.4941176 C176.896486,18.9411787 177.407754,19.2898811 178.006545,19.5402353 C178.605335,19.7905895 179.28242,19.9068236 180.037817,19.8889412 C180.756366,19.8889412 181.396602,19.7280016 181.958545,19.4061176 C182.520487,19.0842337 182.958058,18.6908259 183.271272,18.2258824 L184.763635,19.3256471 C184.118784,20.0588272 183.391033,20.599763 182.580363,20.9484706 C181.769692,21.2971782 180.922185,21.4804705 180.037817,21.4983529 C178.98763,21.5162354 178.038791,21.3597664 177.191272,21.0289412 C176.343752,20.698116 175.620608,20.23765 175.021817,19.6475294 C174.423026,19.0574088 173.967031,18.3555335 173.653817,17.5418824 C173.340604,16.7282312 173.183999,15.8475342 173.183999,14.8997647 C173.183999,13.9519953 173.340604,13.0712982 173.653817,12.2576471 C173.967031,11.4439959 174.423026,10.7421206 175.021817,10.152 C175.620608,9.5618794 176.343752,9.10141342 177.191272,8.77058824 C178.038791,8.43976305 178.98763,8.28329403 180.037817,8.30117647 C180.922185,8.31905891 181.769692,8.5023512 182.580363,8.85105882 C183.391033,9.19976645 184.118784,9.74070222 184.763635,10.4738824 L183.271272,11.5736471 Z M190.034644,21.1764706 L188.210644,21.1764706 L188.210644,0.897882353 L190.034644,0.897882353 L190.034644,21.1764706 Z M205.116561,13.9341176 C205.116561,12.735994 204.74808,11.7658861 204.011106,11.0237647 C203.274133,10.2816433 202.242386,9.91058824 200.915834,9.91058824 C200.326255,9.91058824 199.755109,10.0223518 199.202379,10.2458824 C198.649649,10.4694129 198.166018,10.7689393 197.75147,11.1444706 C197.336923,11.5200019 197.005289,11.9491741 196.756561,12.432 C196.507832,12.9148259 196.38347,13.4155268 196.38347,13.9341176 L205.116561,13.9341176 Z M196.328197,15.3825882 C196.38347,16.0084737 196.540075,16.5985855 196.798016,17.1529412 C197.055956,17.7072969 197.396801,18.185645 197.820561,18.588 C198.244321,18.990355 198.732558,19.3077635 199.285288,19.5402353 C199.838018,19.772707 200.4368,19.8889412 201.081652,19.8889412 C202.058142,19.8889412 202.901042,19.6698845 203.610379,19.2317647 C204.319716,18.7936449 204.85862,18.2884734 205.227106,17.7162353 L206.636561,18.8428235 C205.862739,19.790593 205.010626,20.4701156 204.080197,20.8814118 C203.149768,21.2927079 202.150263,21.4983529 201.081652,21.4983529 C200.123586,21.4983529 199.234626,21.3329428 198.414743,21.0021176 C197.59486,20.6712925 196.89014,20.2108265 196.300561,19.6207059 C195.710982,19.0305853 195.245775,18.3331805 194.904925,17.5284706 C194.564074,16.7237607 194.393652,15.8475342 194.393652,14.8997647 C194.393652,13.9519953 194.559468,13.0757687 194.891106,12.2710588 C195.222744,11.4663489 195.683346,10.7689441 196.272925,10.1788235 C196.862503,9.58870293 197.553405,9.12823695 198.345652,8.79741176 C199.137898,8.46658658 199.994617,8.30117647 200.915834,8.30117647 C201.892323,8.30117647 202.767466,8.47105712 203.541288,8.81082353 C204.31511,9.15058993 204.964558,9.60211483 205.489652,10.1654118 C206.014745,10.7287087 206.415469,11.3903491 206.691834,12.1503529 C206.968199,12.9103567 207.106379,13.7195251 207.106379,14.5778824 L207.106379,15.3825882 L196.328197,15.3825882 Z" id="Lucid-Particle-Desig" fill="#FFFFFF" sketch:type="MSShapeGroup"></path>
            </g>
        </g>
    </g>
</svg>