<?xml version="1.0" encoding="UTF-8" standalone="no"?>
<svg width="54px" height="54px" viewBox="0 0 54 54" version="1.1" xmlns="http://www.w3.org/2000/svg" xmlns:xlink="http://www.w3.org/1999/xlink" xmlns:sketch="http://www.bohemiancoding.com/sketch/ns">
    <!-- Generator: Sketch 3.4.4 (17249) - http://www.bohemiancoding.com/sketch -->
    <title>particle-plus</title>
    <desc>Created with Sketch.</desc>
    <defs></defs>
    <g id="Page-3" stroke="none" stroke-width="1" fill="none" fill-rule="evenodd" sketch:type="MSPage">
        <g id="B00-Copy-28" sketch:type="MSArtboardGroup" transform="translate(-595.000000, -311.000000)" stroke="#FFFFFF" stroke-width="2">
            <path d="M631,330 L631,313.999561 C631,312.334839 629.656798,311 627.999874,311 L617.000126,311 C615.333961,311 614,312.342949 614,313.999561 L614,330 L597.999561,330 C596.334839,330 595,331.343202 595,333.000126 L595,343.999874 C595,345.666039 596.342949,347 597.999561,347 L614,347 L614,362.000439 C614,363.665161 615.343202,365 617.000126,365 L627.999874,365 C629.666039,365 631,363.657051 631,362.000439 L631,347 L646.000439,347 C647.665161,347 649,345.656798 649,343.999874 L649,333.000126 C649,331.333961 647.657051,330 646.000439,330 L631,330 Z" id="particle-plus" sketch:type="MSShapeGroup"></path>
        </g>
    </g>
</svg>