<?xml version="1.0" encoding="utf-8"?>
<!-- Generator: Adobe Illustrator 18.1.1, SVG Export Plug-In . SVG Version: 6.00 Build 0)  -->
<svg version="1.1" id="Layer_1" xmlns:sketch="http://www.bohemiancoding.com/sketch/ns"
	 xmlns="http://www.w3.org/2000/svg" xmlns:xlink="http://www.w3.org/1999/xlink" x="0px" y="0px" width="210px" height="20px"
	 viewBox="94 2 210 20" enable-background="new 94 2 210 20" xml:space="preserve">
<g id="B00-Copy-6" transform="translate(-19.000000, -29.000000)" sketch:type="MSArtboardGroup">
	<g id="Lucid-Particle-Desig-_x2B_-Imported-Layers" transform="translate(19.000000, 29.000000)" sketch:type="MSLayerGroup">
		<path id="Lucid-Particle-Desig" sketch:type="MSShapeGroup" fill="#FFFFFF" d="M118.5,3.5h3v10.7h5.5V17h-8.5V3.5z M137.5,17h-2.7
			v-1.3h0c-0.1,0.2-0.2,0.4-0.4,0.5s-0.4,0.3-0.6,0.5s-0.5,0.3-0.8,0.3c-0.3,0.1-0.6,0.1-0.9,0.1c-0.7,0-1.3-0.1-1.8-0.3
			c-0.4-0.2-0.8-0.5-1-0.9c-0.2-0.4-0.4-0.9-0.5-1.4s-0.1-1.1-0.1-1.7V7.8h2.9v4.5c0,0.3,0,0.5,0,0.8c0,0.3,0.1,0.5,0.2,0.8
			c0.1,0.2,0.2,0.4,0.4,0.6c0.2,0.2,0.5,0.2,0.8,0.2s0.7-0.1,0.9-0.2c0.2-0.1,0.4-0.3,0.5-0.5c0.1-0.2,0.2-0.5,0.2-0.8
			c0-0.3,0.1-0.6,0.1-0.9V7.8h2.8V17z M146.2,10.7c-0.1-0.2-0.3-0.4-0.6-0.5c-0.3-0.1-0.5-0.2-0.8-0.2c-0.7,0-1.3,0.2-1.7,0.6
			c-0.4,0.4-0.6,1-0.6,1.7c0,0.7,0.2,1.3,0.6,1.7c0.4,0.4,1,0.6,1.7,0.6c0.3,0,0.6-0.1,0.8-0.2c0.2-0.1,0.4-0.3,0.6-0.5l1.9,2
			c-0.4,0.5-1,0.8-1.6,1c-0.6,0.2-1.2,0.3-1.7,0.3c-0.7,0-1.4-0.1-2-0.3c-0.6-0.2-1.2-0.6-1.6-1c-0.5-0.4-0.8-0.9-1.1-1.5
			c-0.3-0.6-0.4-1.3-0.4-2c0-0.7,0.1-1.4,0.4-2c0.3-0.6,0.6-1.1,1.1-1.5c0.5-0.4,1-0.8,1.6-1c0.6-0.2,1.3-0.3,2-0.3
			c0.5,0,1.1,0.1,1.7,0.3c0.6,0.2,1.1,0.5,1.6,1L146.2,10.7z M149.6,7.8h2.9V17h-2.9V7.8z M149.4,4.9c0-0.5,0.2-0.8,0.5-1.2
			s0.7-0.5,1.2-0.5s0.8,0.2,1.2,0.5s0.5,0.7,0.5,1.2s-0.2,0.8-0.5,1.2c-0.3,0.3-0.7,0.5-1.2,0.5s-0.8-0.2-1.2-0.5
			C149.5,5.7,149.4,5.3,149.4,4.9L149.4,4.9z M164.6,17H162v-1.2h0c-0.1,0.2-0.3,0.3-0.4,0.5c-0.2,0.2-0.4,0.3-0.6,0.5
			s-0.5,0.3-0.8,0.3c-0.3,0.1-0.6,0.1-0.9,0.1c-0.7,0-1.3-0.1-1.9-0.4c-0.6-0.2-1-0.6-1.4-1c-0.4-0.4-0.7-0.9-0.9-1.5
			c-0.2-0.6-0.3-1.2-0.3-1.9c0-0.6,0.1-1.3,0.3-1.9c0.2-0.6,0.5-1.1,0.8-1.6c0.4-0.5,0.8-0.8,1.3-1.1c0.5-0.3,1.1-0.4,1.8-0.4
			c0.6,0,1.1,0.1,1.7,0.3s0.9,0.5,1.3,0.9h0V2.6h2.8V17z M162,12.4c0-0.7-0.2-1.3-0.6-1.7c-0.4-0.4-1-0.6-1.7-0.6
			c-0.7,0-1.3,0.2-1.7,0.6s-0.6,1-0.6,1.7c0,0.7,0.2,1.3,0.6,1.7s1,0.6,1.7,0.6c0.7,0,1.3-0.2,1.7-0.6C161.8,13.6,162,13.1,162,12.4
			L162,12.4z M175.2,9.5h2.2c0.6,0,1.1-0.1,1.5-0.2c0.4-0.1,0.8-0.3,1-0.5c0.3-0.2,0.4-0.5,0.6-0.7c0.1-0.3,0.2-0.6,0.2-0.9
			c0-0.3-0.1-0.6-0.2-0.9c-0.1-0.3-0.3-0.5-0.6-0.8s-0.6-0.4-1-0.5c-0.4-0.1-0.9-0.2-1.5-0.2h-2.2V9.5z M173.9,3.5h3.9
			c1.4,0,2.4,0.3,3.2,0.9c0.8,0.6,1.2,1.5,1.2,2.7s-0.4,2.1-1.2,2.7c-0.8,0.6-1.9,0.9-3.2,0.9h-2.5V17h-1.4V3.5z M189.8,12.6
			c-0.3,0-0.7,0-1.2,0s-0.9,0.1-1.4,0.2c-0.4,0.1-0.8,0.3-1.1,0.6c-0.3,0.3-0.5,0.6-0.5,1c0,0.3,0.1,0.5,0.2,0.8
			c0.1,0.2,0.3,0.4,0.5,0.5c0.2,0.1,0.4,0.2,0.7,0.3c0.2,0.1,0.5,0.1,0.8,0.1c0.5,0,0.9-0.1,1.2-0.2c0.3-0.2,0.6-0.4,0.8-0.6
			c0.2-0.3,0.4-0.6,0.5-0.9c0.1-0.3,0.2-0.7,0.2-1.1v-0.6H189.8z M190.5,11.5v-0.2c0-1.5-0.8-2.3-2.3-2.3c-1,0-1.9,0.3-2.7,1
			l-0.8-0.9c0.8-0.9,2.1-1.3,3.8-1.3c0.4,0,0.8,0.1,1.2,0.2c0.4,0.1,0.7,0.3,1,0.6c0.3,0.3,0.5,0.6,0.7,1s0.3,0.9,0.3,1.4v4
			c0,0.3,0,0.7,0,1.1c0,0.4,0.1,0.7,0.1,0.9h-1.2c0-0.2-0.1-0.4-0.1-0.7c0-0.3,0-0.5,0-0.7h0c-0.4,0.6-0.8,1-1.3,1.3
			c-0.5,0.3-1.1,0.4-1.8,0.4c-0.4,0-0.8-0.1-1.1-0.2c-0.4-0.1-0.7-0.3-1-0.5c-0.3-0.2-0.5-0.5-0.7-0.8c-0.2-0.3-0.3-0.7-0.3-1.1
			c0-0.7,0.2-1.3,0.6-1.7c0.4-0.4,0.8-0.7,1.4-0.9c0.6-0.2,1.2-0.3,1.8-0.4s1.2-0.1,1.8-0.1H190.5z M195.2,10.9c0-0.4,0-0.8,0-1.2
			c0-0.4,0-0.9,0-1.6h1.2v1.7h0c0.1-0.2,0.2-0.5,0.4-0.7s0.4-0.4,0.6-0.6c0.2-0.2,0.5-0.3,0.8-0.4c0.3-0.1,0.7-0.2,1.1-0.2
			c0.4,0,0.7,0,0.9,0.1l-0.2,1.2c-0.2-0.1-0.4-0.1-0.7-0.1c-0.5,0-0.9,0.1-1.2,0.3c-0.3,0.2-0.6,0.4-0.9,0.7
			c-0.2,0.3-0.4,0.6-0.5,0.9c-0.1,0.3-0.2,0.6-0.2,0.9v5h-1.3V10.9z M206.4,9.2h-2.6v5.2c0,0.3,0,0.6,0.1,0.8
			c0.1,0.2,0.2,0.4,0.3,0.5c0.1,0.1,0.3,0.2,0.4,0.2c0.2,0,0.3,0.1,0.5,0.1c0.2,0,0.4,0,0.7-0.1c0.2-0.1,0.4-0.1,0.6-0.2l0.1,1.2
			c-0.5,0.2-1,0.3-1.7,0.3c-0.2,0-0.5,0-0.8-0.1c-0.3-0.1-0.5-0.2-0.7-0.4c-0.2-0.2-0.4-0.4-0.5-0.7c-0.1-0.3-0.2-0.7-0.2-1.2V9.2
			h-1.9V8.1h1.9V5.6h1.3v2.5h2.6V9.2z M210.4,4.7c0,0.3-0.1,0.5-0.3,0.7c-0.2,0.2-0.4,0.3-0.6,0.3s-0.4-0.1-0.6-0.3
			c-0.2-0.2-0.3-0.4-0.3-0.7c0-0.3,0.1-0.5,0.3-0.7c0.2-0.2,0.4-0.3,0.6-0.3s0.4,0.1,0.6,0.3C210.3,4.2,210.4,4.4,210.4,4.7
			L210.4,4.7z M210.1,17h-1.3V8.1h1.3V17z M220,10.2c-0.2-0.3-0.5-0.6-0.9-0.8c-0.4-0.2-0.8-0.3-1.3-0.3c-0.5,0-1,0.1-1.4,0.2
			s-0.8,0.4-1.1,0.7c-0.3,0.3-0.5,0.7-0.7,1.1c-0.2,0.4-0.2,0.9-0.2,1.4s0.1,1,0.2,1.4c0.2,0.4,0.4,0.8,0.7,1.1
			c0.3,0.3,0.6,0.6,1.1,0.7s0.9,0.3,1.4,0.2c0.5,0,0.9-0.1,1.3-0.3c0.4-0.2,0.7-0.5,0.9-0.8l1,0.8c-0.4,0.5-0.9,0.9-1.5,1.1
			c-0.6,0.2-1.1,0.4-1.7,0.4c-0.7,0-1.4-0.1-2-0.3c-0.6-0.2-1.1-0.6-1.5-1c-0.4-0.4-0.7-0.9-0.9-1.5s-0.3-1.2-0.3-1.9
			c0-0.7,0.1-1.3,0.3-1.9s0.5-1.1,0.9-1.5s0.9-0.7,1.5-1c0.6-0.2,1.2-0.3,2-0.3c0.6,0,1.2,0.1,1.7,0.4c0.6,0.2,1.1,0.6,1.5,1.1
			L220,10.2z M224.6,17h-1.3V2.6h1.3V17z M235,11.9c0-0.8-0.3-1.5-0.8-2.1S233,9,232.1,9c-0.4,0-0.8,0.1-1.2,0.2
			c-0.4,0.2-0.7,0.4-1,0.6s-0.5,0.6-0.7,0.9c-0.2,0.3-0.3,0.7-0.3,1.1H235z M229,12.9c0,0.4,0.1,0.9,0.3,1.3c0.2,0.4,0.4,0.7,0.7,1
			s0.6,0.5,1,0.7c0.4,0.2,0.8,0.2,1.2,0.2c0.7,0,1.3-0.2,1.7-0.5c0.5-0.3,0.9-0.7,1.1-1.1l1,0.8c-0.5,0.7-1.1,1.2-1.8,1.4
			c-0.6,0.3-1.3,0.4-2.1,0.4c-0.7,0-1.3-0.1-1.8-0.4c-0.6-0.2-1-0.6-1.5-1s-0.7-0.9-1-1.5c-0.2-0.6-0.4-1.2-0.4-1.9
			c0-0.7,0.1-1.3,0.3-1.9c0.2-0.6,0.5-1.1,0.9-1.5s0.9-0.7,1.4-1c0.5-0.2,1.1-0.4,1.8-0.4c0.7,0,1.3,0.1,1.8,0.4
			c0.5,0.2,1,0.6,1.3,1c0.4,0.4,0.6,0.9,0.8,1.4c0.2,0.5,0.3,1.1,0.3,1.7v0.6H229z M246.4,15.7h2.7c1,0,1.9-0.2,2.7-0.5
			c0.8-0.3,1.4-0.7,1.9-1.2s0.9-1.1,1.1-1.7c0.2-0.7,0.4-1.3,0.4-2c0-0.7-0.1-1.4-0.4-2c-0.2-0.7-0.6-1.2-1.1-1.7s-1.1-0.9-1.9-1.2
			c-0.8-0.3-1.6-0.5-2.7-0.5h-2.7V15.7z M245.1,3.5h4.5c0.8,0,1.7,0.1,2.5,0.4c0.8,0.3,1.6,0.7,2.3,1.3c0.7,0.6,1.2,1.3,1.6,2.1
			s0.6,1.8,0.6,2.9c0,1.1-0.2,2.1-0.6,2.9s-1,1.5-1.6,2.1c-0.7,0.6-1.4,1-2.3,1.3c-0.8,0.3-1.7,0.4-2.5,0.4h-4.5V3.5z M266.2,11.9
			c0-0.8-0.3-1.5-0.8-2.1S264.3,9,263.4,9c-0.4,0-0.8,0.1-1.2,0.2c-0.4,0.2-0.7,0.4-1,0.6s-0.5,0.6-0.7,0.9
			c-0.2,0.3-0.3,0.7-0.3,1.1H266.2z M260.2,12.9c0,0.4,0.1,0.9,0.3,1.3c0.2,0.4,0.4,0.7,0.7,1c0.3,0.3,0.6,0.5,1,0.7
			c0.4,0.2,0.8,0.2,1.2,0.2c0.7,0,1.3-0.2,1.7-0.5c0.5-0.3,0.9-0.7,1.1-1.1l1,0.8c-0.5,0.7-1.1,1.2-1.8,1.4
			c-0.6,0.3-1.3,0.4-2.1,0.4c-0.7,0-1.3-0.1-1.8-0.4c-0.6-0.2-1-0.6-1.5-1s-0.7-0.9-1-1.5c-0.2-0.6-0.4-1.2-0.4-1.9
			c0-0.7,0.1-1.3,0.3-1.9c0.2-0.6,0.5-1.1,1-1.5s0.9-0.7,1.4-1c0.5-0.2,1.1-0.4,1.8-0.4c0.7,0,1.3,0.1,1.8,0.4s1,0.6,1.3,1
			c0.4,0.4,0.6,0.9,0.8,1.4c0.2,0.5,0.3,1.1,0.3,1.7v0.6H260.2z M275,10.2c-0.2-0.4-0.4-0.7-0.8-0.9C274,9.1,273.6,9,273.1,9
			c-0.2,0-0.4,0-0.7,0.1c-0.2,0.1-0.4,0.1-0.6,0.2c-0.2,0.1-0.3,0.2-0.4,0.4c-0.1,0.2-0.2,0.4-0.2,0.6c0,0.4,0.1,0.7,0.4,0.9
			c0.3,0.2,0.7,0.4,1.3,0.5l1.3,0.3c0.6,0.1,1.1,0.4,1.5,0.8s0.6,1,0.6,1.6c0,0.5-0.1,0.9-0.3,1.2c-0.2,0.3-0.5,0.6-0.8,0.9
			s-0.7,0.4-1.1,0.5c-0.4,0.1-0.8,0.2-1.3,0.2c-0.7,0-1.3-0.1-1.9-0.4c-0.6-0.3-1.1-0.7-1.5-1.3l1.1-0.7c0.3,0.4,0.6,0.7,1,1
			c0.4,0.2,0.8,0.4,1.4,0.4c0.3,0,0.5,0,0.8-0.1c0.3-0.1,0.5-0.1,0.7-0.3c0.2-0.1,0.4-0.3,0.5-0.5s0.2-0.4,0.2-0.7
			c0-0.4-0.2-0.8-0.5-1c-0.3-0.2-0.7-0.4-1.2-0.5l-1.2-0.3c-0.2,0-0.4-0.1-0.6-0.2c-0.3-0.1-0.5-0.2-0.8-0.4
			c-0.2-0.2-0.5-0.4-0.6-0.7c-0.2-0.3-0.3-0.6-0.3-1.1c0-0.5,0.1-0.9,0.3-1.2c0.2-0.3,0.4-0.6,0.7-0.8s0.7-0.4,1.1-0.5
			c0.4-0.1,0.8-0.2,1.2-0.2c0.6,0,1.2,0.1,1.7,0.4c0.5,0.2,0.9,0.7,1.2,1.2L275,10.2z M280.7,4.7c0,0.3-0.1,0.5-0.3,0.7
			c-0.2,0.2-0.4,0.3-0.6,0.3c-0.2,0-0.4-0.1-0.6-0.3c-0.2-0.2-0.3-0.4-0.3-0.7c0-0.3,0.1-0.5,0.3-0.7c0.2-0.2,0.4-0.3,0.6-0.3
			c0.2,0,0.4,0.1,0.6,0.3C280.6,4.2,280.7,4.4,280.7,4.7L280.7,4.7z M280.4,17h-1.3V8.1h1.3V17z M284.7,12.4c0,0.5,0.1,0.9,0.3,1.3
			c0.2,0.4,0.4,0.8,0.7,1.1s0.6,0.6,1,0.7c0.4,0.2,0.8,0.3,1.3,0.3c0.5,0,0.9-0.1,1.3-0.2s0.8-0.4,1.1-0.7c0.3-0.3,0.6-0.7,0.7-1.1
			s0.3-0.9,0.2-1.4c0-0.5-0.1-0.9-0.2-1.3c-0.2-0.4-0.4-0.8-0.7-1.1c-0.3-0.3-0.6-0.6-1.1-0.7C289,9.1,288.6,9,288.1,9
			c-0.5,0-0.9,0.1-1.3,0.3c-0.4,0.2-0.7,0.4-1,0.7c-0.3,0.3-0.5,0.7-0.7,1.1C284.8,11.5,284.7,12,284.7,12.4L284.7,12.4z
			 M284.5,18.8c0.4,0.5,0.8,0.9,1.4,1.2c0.6,0.3,1.2,0.4,2,0.4c0.6,0,1.2-0.1,1.6-0.3c0.4-0.2,0.8-0.4,1.1-0.8
			c0.3-0.3,0.5-0.7,0.6-1.1c0.1-0.4,0.2-0.9,0.2-1.4v-1.6h0c-0.4,0.6-0.9,1-1.5,1.3c-0.6,0.3-1.2,0.4-1.8,0.4
			c-0.6,0-1.3-0.1-1.8-0.3s-1.1-0.5-1.5-0.9c-0.4-0.4-0.7-0.9-1-1.4s-0.4-1.2-0.4-1.8c0-0.6,0.1-1.2,0.3-1.8c0.2-0.6,0.5-1,0.9-1.5
			s0.9-0.7,1.4-1c0.6-0.2,1.2-0.4,1.8-0.4c0.3,0,0.5,0,0.8,0.1c0.3,0.1,0.6,0.1,0.9,0.3s0.6,0.3,0.9,0.5c0.3,0.2,0.6,0.5,0.8,0.8h0
			V8.1h1.3v8.8c0,0.5-0.1,1-0.2,1.5c-0.1,0.5-0.4,1-0.7,1.5c-0.3,0.5-0.8,0.8-1.5,1.1s-1.4,0.5-2.4,0.5c-0.9,0-1.7-0.1-2.4-0.4
			c-0.7-0.3-1.3-0.7-1.9-1.3L284.5,18.8z M297.1,8.1c0,0.2,0,0.5,0,0.7c0,0.2,0,0.5,0,0.7h0c0.1-0.2,0.3-0.5,0.5-0.7
			s0.5-0.4,0.7-0.5s0.5-0.3,0.8-0.3s0.6-0.1,0.9-0.1c1.1,0,2,0.3,2.5,0.9c0.5,0.6,0.8,1.5,0.8,2.6V17h-1.3v-4.9c0-1-0.2-1.7-0.5-2.3
			s-1-0.8-1.9-0.8c-0.1,0-0.2,0-0.5,0.1c-0.3,0.1-0.6,0.2-0.9,0.4s-0.6,0.6-0.9,1c-0.3,0.5-0.4,1.1-0.4,1.9V17h-1.3v-6.9
			c0-0.2,0-0.5,0-0.9c0-0.4,0-0.7-0.1-1H297.1z"/>
	</g>
</g>
</svg>
