<?xml version="1.0" encoding="UTF-8" standalone="no"?>
<svg width="227px" height="227px" viewBox="0 0 227 227" version="1.1" xmlns="http://www.w3.org/2000/svg" xmlns:xlink="http://www.w3.org/1999/xlink" xmlns:sketch="http://www.bohemiancoding.com/sketch/ns">
    <!-- Generator: Sketch 3.4.4 (17249) - http://www.bohemiancoding.com/sketch -->
    <title>particle-developer</title>
    <desc>Created with Sketch.</desc>
    <defs></defs>
    <g id="Page-3" stroke="none" stroke-width="1" fill="none" fill-rule="evenodd" sketch:type="MSPage">
        <g id="B00-Copy-28" sketch:type="MSArtboardGroup" transform="translate(-724.000000, -224.000000)" stroke="#FFFFFF">
            <g id="particle-developer" sketch:type="MSLayerGroup" transform="translate(725.000000, 225.000000)">
                <path d="M112.5,225 C174.632034,225 225,174.632034 225,112.5 C225,50.3679656 174.632034,0 112.5,0 C50.3679656,0 0,50.3679656 0,112.5 C0,174.632034 50.3679656,225 112.5,225 Z" id="outline" stroke-width="2" sketch:type="MSShapeGroup"></path>
                <path d="M36,170.248851 C41.620247,167.913413 58.6263854,158.914935 61.1308327,158.329862 C63.6352799,157.744788 68.3736229,155.193054 69.6913147,154.647911 C70.8364296,153.065682 75.8273934,148.116125 77.2516823,147.647835 C77.7388557,146.300395 77.1026001,137.532883 77.1026001,137.532883 C75.770504,135.022583 76.0335301,137.615365 71.5530999,123.992608 C71.5530999,123.992608 71.0478217,125.665814 69.8863959,125.232186 C67.3087605,124.455248 65.5625284,118.773559 63.8031213,116.128833 C62.0437142,113.484106 60.0022945,107.034219 60.0022945,103.804419 C60.0022945,100.574619 60.279428,94.4932549 62.8165652,94.4932549 C65.3537025,94.493255 66.9921077,97.9667945 66.9921077,97.9667945 C66.1958668,95.971715 65.4894858,93.6377777 65.3931257,91.4388319 C65.1753158,86.4683893 63.6639015,71.9274612 65.3931255,64.1503911 C67.1223495,56.373321 67.3007774,44.9192719 81.8489571,43.2207036 C84.1588554,30.3847656 108.419914,29.2330728 122.79557,31.6347656 C137.171227,34.0364583 145.26885,42.4569717 148.476568,50.4151356 C151.684285,58.3732996 152.203026,66.854291 152.666351,71.6494652 C153.129676,76.4446395 154.189031,90.2743197 154.18903,90.9156169 C154.18903,91.1104942 153.777658,91.8311365 153.20493,92.7400097 C154.047163,92.2322674 155.136536,92.1321985 156.952653,93.1123846 C159.855723,94.679216 158.87178,100.921043 157.907715,106.131836 C156.943649,111.342629 153.554353,116.972212 150.707392,120.302518 C147.860431,123.632824 145.819011,121.532386 145.819011,121.532386 L141.711533,135.065918 L142.60791,149.925293 C144.785973,148.966309 155.29319,154.646484 154.5886,156.730469 C156.063107,157.360516 163.018372,160.134542 168.771121,162.76356 C175.444886,165.813484 182.473374,169.147308 184,170.302746" id="profile" stroke-width="3" stroke-linecap="round" stroke-linejoin="round" sketch:type="MSShapeGroup"></path>
                <path d="M67.8707032,97.6398455 C68.8427796,99.9844758 69.1435645,102.668127 69.3985881,103.058724 C69.8763492,103.790468 70.8684463,103.574206 70.8684463,103.574206 C70.8684463,103.574206 72.7228273,75.7252048 76.820313,70.230469 C79.8762039,66.1325136 82.9433608,52.953125 85.9576831,50.6940104 C88.6816406,50.8489583 95.9183802,57.4895836 99.8509097,59.1816403 C103.783439,60.8736969 134.585289,64.462891 139.785808,64.7161457 C141.289325,66.9771992 145.647785,77.307461 146.709575,93.7744865 C146.709575,93.7744865 146.263427,103.534581 147.300936,103.980109 C148.338445,104.425637 149.49859,98.149379 149.49859,98.149379 C149.49859,98.149379 151.16171,94.1605184 152.477735,92.1003901" id="hairline" stroke-linecap="round" stroke-linejoin="round" sketch:type="MSShapeGroup"></path>
                <path d="M141.879684,132.75 C139.581245,138.487891 130.958117,150.328756 119.780921,154.768171 C113.503184,157.318673 108.107685,157.468733 100.188421,156.118452 C94.4302912,155.136657 84.1017144,147.202386 77.2050781,136.856641" id="jaw" stroke-width="2" stroke-linecap="round" stroke-linejoin="round" sketch:type="MSShapeGroup"></path>
                <g id="collar" transform="translate(70.000000, 148.000000)" sketch:type="MSShapeGroup">
                    <path d="M56.5417281,1.89306641 C56.5417281,1.89306641 58.5246382,10.1750488 61.4577437,14.1293945 C64.3908491,18.0837402 82.6064905,32.3822803 83.6243811,33.2180405 C84.6422717,34.0538006 79.913798,39.8974609 78.3146769,42.7700195 C76.7155558,45.6425781 72.4069624,55.5065918 72.4069624,55.5065918 C72.4069624,55.5065918 57.9430949,40.1120605 55.1911418,34.607666 C52.4391886,29.1032715 45.3557817,12.7608309 45.1980668,9.25319624" id="Path-508" transform="translate(64.482290, 28.699829) scale(-1, 1) translate(-64.482290, -28.699829) "></path>
                    <path d="M8.02148437,0.0230823755 C8.02148437,0.0230823755 11.277832,9.57714844 16.503418,15.546875 C21.7290039,21.5166016 37.5717773,31.820446 38.7675781,32.8121452 C39.9633789,33.8038445 34.984375,39.0830078 34.4287109,42.4555664 C33.8730469,45.828125 29.0695801,55.9277344 29.0695801,55.9277344 C29.0695801,55.9277344 13.3820801,38.0009766 9.40551758,32.5483398 C5.42895508,27.0957031 1.04479742,12.6364626 0.541748047,10.8723145 C0.0386986732,9.10816634 0.307419956,6.85926688 0.307419956,6.85926688" id="Path-508"></path>
                    <path d="M38.9777832,33.2333984 C38.9777832,33.2333984 40.5612183,37.3820801 42.1446533,37.3820801 C43.7280884,37.3820801 45.3115234,33.2333984 45.3115234,33.2333984"></path>
                </g>
                <g id="glasses" transform="translate(75.000000, 84.000000)" sketch:type="MSShapeGroup">
                    <path d="M38,11.0393066 C38,11.0393066 34.6386113,10.149228 33.2977458,10.1708984 C31.7734474,10.1955334 29,11.0393066 29,11.0393066" id="Path-497" stroke-width="2"></path>
                    <path d="M38.7016602,3.25048826 C41.9443391,-0.270155104 51.2672964,1 53.7358398,1 C55.5088204,1 63.1777341,0.999999996 65.2048337,5.0942382 C67.2319333,9.18847641 67.5905078,14.2870332 64.6972653,17.5053715 C61.8040228,20.7237098 55.8168101,20.9702148 53.3210449,20.9702148 C50.9744435,20.9702148 41.2617189,19.9890138 39.2695312,17.5053712 C37.2773435,15.0217286 35.4589813,6.77113163 38.7016602,3.25048826 Z" id="glasses-r" stroke-width="1.5" transform="translate(51.861712, 10.873545) rotate(-3.000000) translate(-51.861712, -10.873545) "></path>
                    <path d="M2.02270112,3.25048826 C5.26538002,-0.270155104 16.3853894,1.08129884 18.8539328,1.08129884 C20.6269133,1.08129884 26.7123312,2.30419903 28.4266867,4.85058575 C30.1410422,7.39697247 30.9115487,14.2870332 28.0183062,17.5053715 C25.1250637,20.7237098 19.1378509,20.9702148 16.6420858,20.9702148 C14.2954844,20.9702148 4.58275981,19.9890138 2.59057211,17.5053712 C0.598384406,15.0217286 -1.21997779,6.77113163 2.02270112,3.25048826 Z" id="glasses-l" stroke-width="1.5" transform="translate(15.100428, 10.898302) scale(-1, 1) rotate(-1.000000) translate(-15.100428, -10.898302) "></path>
                </g>
                <g id="tie" transform="translate(101.000000, 185.000000)" sketch:type="MSShapeGroup">
                    <path d="M0.130504261,14.1706321 C0.130504261,14.1706321 8.431996,19.4948511 12.1253554,19.4948511 C15.8187147,19.4948511 23.3410866,13.5287642 23.3410866,13.5287642" id="path"></path>
                    <path d="M5.5,1.5 L16.5,1.5" id="Line" stroke-linecap="square"></path>
                    <path d="M18.5,17.5 L26.5,38.5" id="Line" stroke-linecap="square"></path>
                    <path d="M5.5,17.5 L1.5,39.5" id="Line" stroke-linecap="square"></path>
                </g>
            </g>
        </g>
    </g>
</svg>