<?xml version="1.0" encoding="UTF-8" standalone="no"?>
<svg width="227px" height="227px" viewBox="0 0 227 227" version="1.1" xmlns="http://www.w3.org/2000/svg" xmlns:xlink="http://www.w3.org/1999/xlink" xmlns:sketch="http://www.bohemiancoding.com/sketch/ns">
    <!-- Generator: Sketch 3.4.4 (17249) - http://www.bohemiancoding.com/sketch -->
    <title>particle-designer</title>
    <desc>Created with Sketch.</desc>
    <defs></defs>
    <g id="Page-3" stroke="none" stroke-width="1" fill="none" fill-rule="evenodd" sketch:type="MSPage">
        <g id="B00-Copy-28" sketch:type="MSArtboardGroup" transform="translate(-299.000000, -224.000000)" stroke="#FFFFFF">
            <g id="particle-designer" sketch:type="MSLayerGroup" transform="translate(300.000000, 225.000000)">
                <ellipse id="outline" stroke-width="2" sketch:type="MSShapeGroup" cx="112.5" cy="112.5" rx="112.5" ry="112.5"></ellipse>
                <path d="M36,170.248851 C41.620247,167.913413 58.6263854,158.914935 61.1308327,158.329862 C63.6352799,157.744788 70.4221221,153.966816 72.4640297,153.966816 C74.5059373,153.966816 75.8945333,147.810547 77.102601,147.810547 C77.4092932,147.810547 77.102601,139.280762 77.102601,139.280762 C74.7145304,133.739746 76.0335301,137.615365 71.5530999,123.992608 C71.5530999,123.992608 73.4052101,126.471765 69.8863959,125.232186 C66.3675816,123.992607 65.5625284,118.773559 63.8031213,116.128833 C62.0437142,113.484106 60.0022945,107.034219 60.0022945,103.804419 C60.0022945,100.574619 60.279428,94.4932549 62.8165652,94.4932549 C65.3537025,94.493255 66.9921077,97.9667945 66.9921077,97.9667945 C66.1958668,95.971715 65.4894858,93.6377777 65.3931257,91.4388319 C65.1753158,86.4683893 63.6147427,75.9172528 67.3931706,61.5316272 C71.1715984,47.1460017 73.4474228,44.1300451 84.1745768,36.2871421 C94.9017309,28.4442391 103.106696,29.2033085 118.192122,28.0597962 C133.277548,26.9162838 145.26885,42.4569717 148.476568,50.4151356 C151.684285,58.3732996 152.203026,66.854291 152.666351,71.6494652 C153.129676,76.4446395 152.311788,94.2789396 151.739059,95.1878128 C152.581293,94.6800705 152.881805,91.1158257 156.952652,92.4676666 C161.023499,93.8195076 157.600601,108.171767 156.952652,110.226562 C156.304703,112.281358 153.554353,116.972212 150.707392,120.302518 C147.860431,123.632824 145.819011,121.532386 145.819011,121.532386 C145.819011,121.532386 145.5975,122.569495 145.5975,125.093808 C145.5975,127.618121 142.787094,133.062988 141.711533,136.561035 C141.618296,136.864268 141.217763,143.346851 141.711533,143.760742 C142.887398,144.746385 148.827959,150.22526 148.827959,151.676048 C148.827959,153.126836 149.568608,156.16776 150.65177,156.167761 C151.734932,156.167761 152.688798,155.607935 155.873882,156.968898 C159.058965,158.329862 181.15743,168.151326 184,170.302746" id="profile" stroke-width="3" stroke-linecap="round" stroke-linejoin="round" sketch:type="MSShapeGroup"></path>
                <path d="M77.2841797,147.926269 C77.9748152,152.891187 81.5893415,168.946273 82.7989268,172.952543 C84.0085121,176.958814 85.7576808,185.436311 88.8865636,187.648034 C92.0154463,189.859757 105.318161,203.084264 107.560585,203.895304 C109.803009,204.706344 114.631618,204.952998 115.717403,204.190122 C116.803189,203.427247 131.269549,184.702565 133.633828,179.395051 C135.998107,174.087537 141.312015,164.259823 141.312013,161.089843 C141.312012,157.919863 141.312011,139.270908 141.312013,137.181152" id="nec" stroke-linecap="round" stroke-linejoin="round" sketch:type="MSShapeGroup"></path>
                <path d="M65.3777041,91.6963834 C65.5949454,96.666826 68.9208269,102.32698 69.3985881,103.058724 C69.8763492,103.790468 70.8684463,103.574206 70.8684463,103.574206 C70.8684463,103.574206 72.8695808,72.7786522 76.9670665,67.2839163 C81.0645522,61.7891805 87.955335,54.8028676 93.6256317,53.7642049 C99.2959284,52.7255422 103.553289,54.0896693 108.410643,53.7642049 C113.267998,53.4387406 112.073625,51.7183727 120.482166,52.7255422 C128.890706,53.7327117 132.072988,54.2974716 134.644765,56.9065108 C137.216541,59.5155499 139.761171,70.7471629 141.264689,73.0082163 C142.768206,75.2692697 145.748758,91.3899103 146.709575,93.7744865 C147.670391,96.1590627 146.263427,103.534581 147.300936,103.980109 C148.338445,104.425637 150.276996,98.0533656 150.276996,98.0533656 C150.276996,98.0533656 151.448908,94.4157856 151.448909,93.7744884" id="hairline" stroke-linecap="round" stroke-linejoin="round" sketch:type="MSShapeGroup"></path>
                <path d="M145.593618,121.789938 C145.593618,121.789938 145.372685,122.827047 145.372685,125.35136 C145.372685,127.875672 139.281447,139.182398 137.706689,141.02987 C136.131931,142.877343 122.620449,153.257662 119.780921,154.768171 C116.941393,156.27868 104.694681,157.164301 100.188421,156.118452 C95.6821601,155.072603 90.1816998,149.202933 85.6841988,146.586368 C81.1866977,143.969803 76.5407723,139.550921 71.5215962,124.250159" id="jaw" stroke-width="2" stroke-linecap="round" stroke-linejoin="round" sketch:type="MSShapeGroup"></path>
            </g>
        </g>
    </g>
</svg>