<svg width="22" height="22" xmlns="http://www.w3.org/2000/svg"><path d="M14.692 6.22c-1.786-1.125-4.018-1.414-6.068-.694l.002-.002c.978-.723 2.184-1.15 3.488-1.15.73 0 1.42.115 2.065.36.04.015.096.025.12.025.154 0 .267-.108.268-.26 0-.103-.05-.19-.115-.25C12.748 2.658 10.937 2 10.937 2 6.897 3.64 3.924 7.606 3.84 12.14c-.038 1.288.265 2.603.948 3.8.405.713.91 1.328 1.49 1.838-1.107-.5-2.074-1.345-2.726-2.49-.364-.64-.613-1.308-.725-1.995-.008-.045-.027-.098-.04-.12-.076-.136-.224-.18-.354-.105-.09.05-.137.138-.156.226-.507 2.295-.163 4.215-.163 4.215 3.47 2.77 8.435 3.377 12.374 1.07 1.854-1.088 3.042-2.892 3.42-4.87l.002.004c.127 1.222-.11 2.494-.763 3.64-.364.64-.81 1.193-1.34 1.636-.034.028-.07.072-.082.094-.077.134-.042.288.087.364.088.052.186.05.27.024 2.213-.7 3.68-1.964 3.68-1.964.62-4.36-1.267-8.94-5.07-11.287zM10.938 17.04c-3.24 0-5.867-2.305-5.867-5.15 0-.3.033-.598.09-.887 1.218-1.266 3.35-2.108 5.778-2.108 2.428 0 4.56.842 5.777 2.11.058.288.09.585.09.887 0 2.843-2.627 5.148-5.867 5.148zm0-7.52c-.385 0-.75.08-1.084.224.45.16.775.595.775 1.108 0 .65-.52 1.175-1.16 1.175-.504 0-.934-.328-1.09-.786-.143.337-.22.71-.22 1.1 0 1.556 1.243 2.818 2.777 2.818 1.535 0 2.78-1.262 2.78-2.82 0-1.556-1.245-2.82-2.78-2.82z" fill="#000" fill-rule="evenodd"/></svg>