<svg width="22" height="22" xmlns="http://www.w3.org/2000/svg"><path d="M1.4 19l3-4.3H1.6v-1.2H6v1l-2.8 4.3h3V20H1.3v-1zM4.6 6l-.2-.6-.5-2c-.3.6-.4 1.3-.6 2l-.2.6h1.4zM5 7H3l-.5 1.5H1L3 2h1.8l2 6.5H5.2L5 7zm15 13H10c-.5 0-1-.4-1-1v-1c0-.6.5-1 1-1h10c.6 0 1 .4 1 1v1c0 .6-.4 1-1 1zm-3-5h-7c-.5 0-1-.4-1-1v-1c0-.6.5-1 1-1h7c.6 0 1 .4 1 1v1c0 .6-.4 1-1 1zm-2-5h-5c-.5 0-1-.4-1-1V8c0-.6.5-1 1-1h5c.6 0 1 .4 1 1v1c0 .6-.4 1-1 1zm-2-5h-3c-.5 0-1-.4-1-1V3c0-.6.5-1 1-1h3c.7 0 1 .4 1 1v1c0 .6-.4 1-1 1z" fill="#3D4752" fill-rule="evenodd"/></svg>