<svg width="22" height="22" xmlns="http://www.w3.org/2000/svg"><g fill="none" fill-rule="evenodd"><path d="M0 3l4 2.8V19h18V3H0z" fill="#ED6058"/><path d="M8 11.5C8 8.2 10.6 6 13.6 6c2.7 0 4.4 1.7 4.4 4s-1.5 3.4-2.7 3.4c-.7 0-1.3-.3-1.4-1-.5.6-1 1-1.7 1-1 0-1.6-.7-1.6-2 0-1.2 1-2.8 2.6-2.8.5 0 .8.2 1 .6l.2-.5h.7l-.5 2.5c-.3 1 0 1.5.7 1.5.8 0 1.8-1 1.8-2.6 0-2-1.3-3.4-3.7-3.4-2.4 0-4.7 2-4.7 4.8 0 2.4 1.7 3.8 4 3.8.8 0 1.6-.2 2.2-.6l.3.6c-.8.4-1.6.6-2.6.6C10 16 8 14.4 8 11.5zm5.7.4l.4-2c-.2-.5-.4-.6-.8-.6-1 0-1.7 1.2-1.7 2 0 1 .4 1.2 1 1.2.4 0 .8-.2 1.2-.7z" fill="#FFF"/></g></svg>