<svg width="22" height="22" xmlns="http://www.w3.org/2000/svg"><path d="M16.98 19h-12C2.18 19 0 16.62 0 13.58c0-2.22 1.04-4 2.7-4.84.1-1.32.84-2.53 2.14-3.27 1.05-.6 2.37-.8 3.57-.5C9.28 3.85 10.7 3 12.97 3c1.74 0 3.38.85 4.36 2.27.53.76.84 1.63.93 2.55.55.15 1.08.4 1.55.76C21.16 9.6 22 11.45 22 13.4c0 3.1-2.25 5.6-5.02 5.6zm-12-2C3.3 17 2 15.57 2 13.58c0-1.98 1.14-3.36 2.98-3.4-1.5-2.82 2.86-4.62 4.27-2.27.53-2.36 2.04-2.9 3.7-2.9C15.2 5 17 7.15 16 9.8c2.7-.77 4 1.6 4 3.6S18.65 17 16.98 17h-12z" fill="#3D4752" fill-rule="evenodd"/></svg>