<svg xmlns="http://www.w3.org/2000/svg" width="22" height="22"><path fill="#3D4752" fill-rule="evenodd" d="M19.78 12l2-2.39a.99.99 0 0 0-.13-1.38.97.97 0 0 0-1.38.12l-1.77 2.12-1.77-2.12a.97.97 0 0 0-1.38-.12.99.99 0 0 0-.13 1.38l2 2.39-2 2.39a.99.99 0 0 0 .13 1.38.97.97 0 0 0 1.38-.12l1.77-2.12 1.77 2.12c.35.41.96.47 1.38.12a.99.99 0 0 0 .13-1.38l-2-2.39zM7.5 13.94a4 4 0 0 1-7.44-2.6C.02 11.22 0 11.11 0 11V6a1 1 0 1 1 2 0v2.54a3.98 3.98 0 0 1 5.5 1.52 4 4 0 1 1 0 3.88zM4 14a2 2 0 1 0 0-4 2 2 0 0 0 0 4zm7 0a2 2 0 1 0 0-4 2 2 0 0 0 0 4z"/></svg>