<svg width="22" height="22" xmlns="http://www.w3.org/2000/svg"><path d="M18 21c1 0 1.38-1.28.55-1.83-1.3-.86-1.66-2.56-1.66-2.56C20 15 22 12.16 22 9c0-5.03-4.97-9-11-9S0 3.97 0 9c0 5.03 4.97 9 11 9h.25s3.6 3 6.75 3zm-7-5c-5 0-9-3.2-9-7s4-7 9-7 9 3.2 9 7c0 2.52-1.75 4.84-4.56 6.1-.35.14-.58.48-.6.86-.07 1.84.55 2.6.55 2.6-1.2-.47-2.2-1.24-2.96-2.2-.2-.25-.5-.4-.83-.38L11 16zm5.92-6.08c.05.2.08.38.08.58 0 1.93-2.7 3.5-6 3.5s-6-1.57-6-3.5c0-.2.03-.4.08-.58C5.56 11.1 8.03 12 11 12c2.97 0 5.44-.9 5.92-2.08z" fill="#3D4752" fill-rule="evenodd"/></svg>