<svg width="22" height="22" xmlns="http://www.w3.org/2000/svg"><path d="M2 20h1c.6 0 1-.4 1-1v-1c0-.6-.4-1-1-1H2c-.6 0-1 .4-1 1v1c0 .6.4 1 1 1zm0-7h1c.6 0 1-.4 1-1v-1c0-.6-.4-1-1-1H2c-.6 0-1 .4-1 1v1c0 .6.4 1 1 1zm0-7h1c.6 0 1-.4 1-1V4c0-.6-.4-1-1-1H2c-.6 0-1 .4-1 1v1c0 .6.4 1 1 1zm18 14H7c-.6 0-1-.4-1-1v-1c0-.6.4-1 1-1h13c.6 0 1 .4 1 1v1c0 .6-.4 1-1 1zm0-7H7c-.6 0-1-.4-1-1v-1c0-.6.4-1 1-1h13c.6 0 1 .4 1 1v1c0 .6-.4 1-1 1zm0-7H7c-.6 0-1-.4-1-1V4c0-.6.4-1 1-1h13c.6 0 1 .4 1 1v1c0 .6-.4 1-1 1z" fill="#3D4752" fill-rule="evenodd"/></svg>