<svg width="22" height="22" xmlns="http://www.w3.org/2000/svg"><path d="M16.25 8H21v3.6h-.5c-.24-1.13-.55-1.87-.93-2.2C19.2 9.04 17 9 17 9v7c0 .82.17 1.03.42 1.22.25.2.73.33 1.58.4V18h-6v-.4c.85-.05 1.33-.18 1.58-.38s.42-.4.42-1.22V9s-2.2.05-2.57.4c-.38.33-.7 1.07-.93 2.2H11V8h5.25zm-10-4H11v3.6h-.5c-.24-1.13-.55-1.87-.93-2.2C9.2 5.04 7 5 7 5v11c0 .82.17 1.03.42 1.22.25.2.73.33 1.58.4V18H3v-.4c.85-.05 1.33-.18 1.58-.38S5 16.82 5 16V5s-2.2.05-2.57.4c-.38.33-.7 1.07-.93 2.2H1V4h5.25z" fill="#3D4752" fill-rule="evenodd"/></svg>