<svg width="22" height="22" xmlns="http://www.w3.org/2000/svg"><path d="M6.7 11.19c.012-1.053.362-2.096 1.162-2.897.82-.818 1.892-1.25 3.02-1.28.584-.002 1.165-.223 1.608-.67.893-.89.893-2.335 0-3.228-.89-.892-2.336-.892-3.228 0-.456.458-.678 1.058-.668 1.657-.052 1.1-.483 2.173-1.288 2.978-.815.817-1.857 1.155-2.925 1.157-.572.008-1.14.23-1.577.666-.447.447-.67 1.032-.67 1.616 0 .583.223 1.168.67 1.615.437.436 1.005.657 1.578.666v.002h.025c1.06.006 2.093.346 2.9 1.156.806.804 1.237 1.876 1.29 2.978-.01.598.21 1.2.667 1.657.892.893 2.337.893 3.228 0 .893-.893.893-2.338 0-3.23-.443-.443-1.024-.667-1.607-.668-1.13-.03-2.202-.463-3.02-1.28-.8-.8-1.15-1.845-1.162-2.896zm12.25 4.843c-.89-.89-2.337-.89-3.23 0-.892.892-.892 2.337 0 3.23.893.892 2.34.892 3.23 0 .893-.893.893-2.337 0-3.23zm0-9.69c-.89.894-2.337.894-3.23 0-.892-.89-.892-2.335 0-3.228.893-.892 2.34-.892 3.23 0 .893.893.893 2.337 0 3.23z" fill="#F78C1F" fill-rule="evenodd"/></svg>