<?xml version="1.0" encoding="utf-8"?>
<!-- Generator: Adobe Illustrator 18.1.1, SVG Export Plug-In . SVG Version: 6.00 Build 0)  -->
<svg version="1.1" id="Layer_1" xmlns="http://www.w3.org/2000/svg" xmlns:xlink="http://www.w3.org/1999/xlink" x="0px" y="0px"
	 viewBox="0 0 22 22" enable-background="new 0 0 22 22" xml:space="preserve">
<g>
	<polygon fill="#5A5A5A" points="11,7 10,7 10,13 15,13 15,12 11,12 	"/>
</g>
<path fill="#5A5A5A" d="M11,6c3.3,0,6,2.7,6,6s-2.7,6-6,6s-6-2.7-6-6S7.7,6,11,6 M11,4c-4.4,0-8,3.6-8,8s3.6,8,8,8s8-3.6,8-8
	S15.4,4,11,4L11,4z"/>
<path fill="#5A5A5A" d="M20.1,7.9C20.6,7.4,22.5,5.5,20,3s-4.4-0.6-4.9-0.1C17.3,3.9,19.1,5.7,20.1,7.9z"/>
<path fill="#5A5A5A" d="M1.9,7.9c1-2.2,2.8-4,5-5C6.4,2.4,4.5,0.5,2,3S1.4,7.4,1.9,7.9z"/>
</svg>
