<?xml version="1.0" encoding="utf-8"?>
<!-- Generator: Adobe Illustrator 18.1.1, SVG Export Plug-In . SVG Version: 6.00 Build 0)  -->
<svg version="1.1" id="Layer_1" xmlns="http://www.w3.org/2000/svg" xmlns:xlink="http://www.w3.org/1999/xlink" x="0px" y="0px"
	 viewBox="0 0 22 22" enable-background="new 0 0 22 22" xml:space="preserve">
<g>
	<path fill="#3D4752" d="M18.7,14.6l0.2-0.5l0.5-0.9c0.3-0.5,0.1-1.1-0.4-1.3l-2.6-1.5l3.5-6C20.1,4,20,3.4,19.5,3.1l-1.7-1
		c-0.5-0.3-1.1-0.1-1.4,0.4l-3.5,6L10.3,7C9.8,6.8,9.2,6.9,9,7.4L8.5,8.3c0,0,0,0,0,0L18.7,14.6z"/>
	<path fill="#3D4752" d="M7.7,9.6C6.6,11.5,4.7,16,4,17c-1,1.4-3,2-3,2l12.9,0.7c1.3,0.2,2.5-0.5,3.1-1.7l1-2L7.7,9.6z"/>
</g>
</svg>
