<?xml version="1.0" encoding="UTF-8" standalone="no"?>
<svg width="22px" height="22px" viewBox="0 0 22 22" version="1.1" xmlns="http://www.w3.org/2000/svg" xmlns:xlink="http://www.w3.org/1999/xlink" xmlns:sketch="http://www.bohemiancoding.com/sketch/ns">
    <!-- Generator: Sketch 3.3.3 (12081) - http://www.bohemiancoding.com/sketch -->
    <title>copy</title>
    <desc>Created with Sketch.</desc>
    <defs></defs>
    <g id="SVG" stroke="none" stroke-width="1" fill="none" fill-rule="evenodd" sketch:type="MSPage">
        <g id="copy" sketch:type="MSArtboardGroup" fill="#77828C">
            <g id="Rectangle-1475-+-Shape" sketch:type="MSLayerGroup" transform="translate(1.000000, 2.000000)">
                <rect id="Rectangle-1475" sketch:type="MSShapeGroup" x="0" y="5" width="14" height="13" rx="2"></rect>
                <path d="M7,2.00276013 L7,2.00276013 L7,10.9972399 C7,10.9996326 7.00036835,11 7.00585866,11 L16.9941413,11 C16.9985659,11 17,10.9985676 17,10.9972399 L17,2.00276013 C17,2.00036738 16.9996317,2 16.9941413,2 L7.00585866,2 C7.00143412,2 7,2.00143239 7,2.00276013 L7,2.00276013 Z M5,2.00276013 C5,0.896666251 5.89706013,0 7.00585866,0 L16.9941413,0 C18.1019465,0 19,0.893542647 19,2.00276013 L19,10.9972399 C19,12.1033337 18.1029399,13 16.9941413,13 L7.00585866,13 C5.89805351,13 5,12.1064574 5,10.9972399 L5,2.00276013 L5,2.00276013 Z" id="Shape" sketch:type="MSShapeGroup"></path>
            </g>
        </g>
    </g>
</svg>