<?xml version="1.0" encoding="UTF-8" standalone="no"?>
<svg width="14px" height="14px" viewBox="0 0 14 14" version="1.1" xmlns="http://www.w3.org/2000/svg" xmlns:xlink="http://www.w3.org/1999/xlink" xmlns:sketch="http://www.bohemiancoding.com/sketch/ns">
    <!-- Generator: Sketch 3.4.3 (16044) - http://www.bohemiancoding.com/sketch -->
    <title>Page 1</title>
    <desc>Created with Sketch.</desc>
    <defs></defs>
    <g id="top-toolbar-2" stroke="none" stroke-width="1" fill="none" fill-rule="evenodd" sketch:type="MSPage">
        <g id="position-options-copy-22" sketch:type="MSLayerGroup" transform="translate(-190.000000, -137.000000)" fill="#3D4752">
            <g id="Group" transform="translate(15.000000, 80.000000)" sketch:type="MSShapeGroup">
                <g id="swap-button-copy" transform="translate(169.000000, 53.000000)">
                    <g id="Imported-Layers" transform="translate(1.000000, 0.000000)">
                        <path d="M18.4,4 L16.4,6.001 L9,6.001 L9,4 L7,4 L7,6.001 L5,6.001 L5,8.001 L7,8.001 L7,16.001 L15,16.001 L15,18 L17,18 L17,16.001 L19,16.001 L19,14.001 L17,14.001 L17,6.5 L19,4.5 L18.4,4 Z M9,8.001 L14.5,8.001 L9,13.5 L9,8.001 Z M15,8.5 L15,14.001 L9.5,14.001 L15,8.5 Z" id="Page-1"></path>
                    </g>
                </g>
            </g>
        </g>
    </g>
</svg>