<?xml version="1.0" encoding="utf-8"?>
<!-- Generator: Adobe Illustrator 18.1.1, SVG Export Plug-In . SVG Version: 6.00 Build 0)  -->
<svg version="1.1" id="Layer_1" xmlns="http://www.w3.org/2000/svg" xmlns:xlink="http://www.w3.org/1999/xlink" x="0px" y="0px"
	 viewBox="0 0 22 22" enable-background="new 0 0 22 22" xml:space="preserve">
<path fill="#3D4752" d="M8.5,20l-2.6-3.6c0,0-1.7-2.4-1.7-3.5c-0.1-1.2-0.2-1.7-0.1-2.3c0.1-1.3,1.7-1.4,1.9-0.3
	c0.4,1.6,1.4,2.7,1.4,2.7c0-0.5,0.3-1,0.3-1.8c0-2.9-0.9-6.7-0.9-7.4c0-2.2,2.1-2.1,2.6-0.1c0.2,1,1,4.8,1,4.8s1.4-1.2,2.4,0.1
	C13.2,8.1,15,8.1,15.4,9c1.2-0.5,2.6,1.6,2.6,1.9c0,1.9,0,1.6,0,3.8S16.3,20,16.3,20H8.5z"/>
</svg>
