<?xml version="1.0" encoding="utf-8"?>
<!-- Generator: Adobe Illustrator 18.1.1, SVG Export Plug-In . SVG Version: 6.00 Build 0)  -->
<svg version="1.1" id="Layer_1" xmlns="http://www.w3.org/2000/svg" xmlns:xlink="http://www.w3.org/1999/xlink" x="0px" y="0px"
	 viewBox="0 0 22 22" enable-background="new 0 0 22 22" xml:space="preserve">
<path fill="#3D4752" d="M19,12.3V9.7C19,9.4,18.8,9,18.6,9H16c-0.2,0-0.6-1.1-1-1.6l1.4-2.3c-0.9-0.8-1.9-1.4-3.1-1.8L12,5.7
	c-0.3-0.1-0.6-0.1-1-0.1s-0.7,0-1,0.1L8.6,3.4c-1.2,0.4-2.2,1-3.1,1.8l1.4,2.3C6.5,7.9,6.2,9,6,9H3.4C3.2,9,3,9.4,3,9.7v2.7
	C3,12.6,3.2,13,3.4,13H6c0.2,0,0.6,1.1,1,1.6l-1.4,2.3c0.9,0.8,1.9,1.4,3.1,1.8l1.4-2.4c0.3,0.1,0.6,0.1,1,0.1s0.7,0,1-0.1l1.4,2.4
	c1.2-0.4,2.2-1,3.1-1.8l-1.4-2.3c0.4-0.5,0.8-1.6,1-1.6h2.5C18.8,13,19,12.6,19,12.3z M11,13.2c-1.2,0-2.2-1-2.2-2.2
	c0-1.2,1-2.2,2.2-2.2s2.2,1,2.2,2.2C13.2,12.2,12.2,13.2,11,13.2z"/>
</svg>
