<?xml version="1.0" encoding="utf-8"?>
<!-- Generator: Adobe Illustrator 18.1.1, SVG Export Plug-In . SVG Version: 6.00 Build 0)  -->
<svg version="1.1" id="Layer_1" xmlns="http://www.w3.org/2000/svg" xmlns:xlink="http://www.w3.org/1999/xlink" x="0px" y="0px"
	 viewBox="0 0 22 22" enable-background="new 0 0 22 22" xml:space="preserve">
<g id="g2993" transform="matrix(1.25,0,0,-1.25,0,212.5)">
	<g id="g2995" transform="translate(76.1162,130.9785)">
		<path id="path2997" fill="#3D4752" d="M-70.9,38.2l-5.2-3.3l3.6-2.8l5.2,3.2L-70.9,38.2z"/>
	</g>
	<g id="g2999" transform="translate(46.4863,78.8198)">
		<path id="path3001" fill="#3D4752" d="M-46.5,81.5l4.9-2.8l3.9,2.4l-5.2,3.2L-46.5,81.5z"/>
	</g>
	<g id="g3003" transform="translate(96.8486,76.7798)">
		<path id="path3005" fill="#3D4752" d="M-88,83.2l3.8-2.3l5,2.6l-3.6,2.8L-88,83.2z"/>
	</g>
	<g id="g3007" transform="translate(147.2109,111.6328)">
		<path id="path3009" fill="#3D4752" d="M-129.6,54.3l-5.2,3.3l-3.6-3l5.2-3.2L-129.6,54.3z"/>
	</g>
	<g id="g3011" transform="translate(96.9092,73.0566)">
		<path id="path3013" fill="#3D4752" d="M-88.1,85.5l-3.8-2.2l-1.8,0.7v-1.2l5.6-2.7l5.6,2.7V84l-1.8-0.7L-88.1,85.5z"/>
	</g>
</g>
</svg>
