<?xml version="1.0" encoding="utf-8"?>
<!-- Generator: Adobe Illustrator 18.1.1, SVG Export Plug-In . SVG Version: 6.00 Build 0)  -->
<svg version="1.1" id="Layer_1" xmlns="http://www.w3.org/2000/svg" xmlns:xlink="http://www.w3.org/1999/xlink" x="0px" y="0px"
	 viewBox="0 0 22 22" enable-background="new 0 0 22 22" xml:space="preserve">
<path fill="#3D4752" d="M18,2c-1.3,0-2.4,0.8-2.8,2H12c-1.1,0-2,0.9-2,2v10H6.8c-0.4-1.2-1.5-2-2.8-2c-1.7,0-3,1.3-3,3s1.3,3,3,3
	c1.3,0,2.4-0.8,2.8-2H10c1.1,0,2-0.9,2-2V6h3.2c0.4,1.2,1.5,2,2.8,2c1.7,0,3-1.3,3-3S19.7,2,18,2z"/>
</svg>
