<?xml version="1.0" encoding="UTF-8" standalone="no"?>
<svg width="18px" height="18px" viewBox="0 0 18 18" version="1.1" xmlns="http://www.w3.org/2000/svg" xmlns:xlink="http://www.w3.org/1999/xlink" xmlns:sketch="http://www.bohemiancoding.com/sketch/ns">
    <!-- Generator: Sketch 3.3.3 (12081) - http://www.bohemiancoding.com/sketch -->
    <title>Logo</title>
    <desc>Created with Sketch.</desc>
    <defs></defs>
    <g id="Page-1" stroke="none" stroke-width="1" fill="none" fill-rule="evenodd" sketch:type="MSPage">
        <g id="Artboard-1-Copy-3" sketch:type="MSArtboardGroup" transform="translate(-1152.000000, -300.000000)" fill="#FFFFFF">
            <g id="Logo" sketch:type="MSLayerGroup" transform="translate(1152.000000, 300.000000)">
                <path d="M8.883,13.365 L8.883,13.365 C7.7535,13.335 6.681,12.90225 5.862,12.08475 C5.052,11.27475 4.704,10.215 4.70025,9.1515 L4.6995,9.153 C4.68975,8.58075 4.46925,8.01075 4.032,7.5735 C3.14025,6.6825 1.69425,6.6825 0.8025,7.5735 C-0.09,8.46675 -0.09,9.91125 0.8025,10.8045 C1.23975,11.241 1.80825,11.46225 2.38125,11.47125 L2.379,11.472 C3.4485,11.472 4.491,11.811 5.30625,12.62775 C6.111,13.43175 6.54225,14.50425 6.594,15.606 C6.58425,16.20375 6.80625,16.806 7.26225,17.26275 C8.154,18.156 9.59925,18.156 10.49025,17.26275 C11.38275,16.37025 11.38275,14.925 10.49025,14.03325 C10.047,13.59 9.46575,13.3665 8.883,13.365" id="Fill-13" sketch:type="MSShapeGroup"></path>
                <path d="M16.95075,14.03325 C16.059,13.14225 14.613,13.14225 13.72125,14.03325 C12.828,14.925 12.828,16.37025 13.72125,17.26275 C14.613,18.15525 16.059,18.15525 16.95075,17.26275 C17.8425,16.37025 17.8425,14.92575 16.95075,14.03325" id="Fill-14" sketch:type="MSShapeGroup"></path>
                <path d="M8.883,5.01225 L8.883,5.013 C7.7535,5.043 6.681,5.475 5.862,6.2925 C5.052,7.10325 4.704,8.16225 4.70025,9.2265 L4.6995,9.225 C4.68975,9.7965 4.46925,10.3665 4.032,10.8045 C3.14025,11.69475 1.69425,11.69475 0.8025,10.8045 C-0.09,9.91125 -0.09,8.46675 0.8025,7.5735 C1.23975,7.13775 1.80825,6.915 2.38125,6.90675 L2.379,6.90525 C3.4485,6.90525 4.491,6.567 5.30625,5.75025 C6.111,4.9455 6.54225,3.873 6.594,2.772 C6.58425,2.1735 6.80625,1.57275 7.26225,1.1145 C8.154,0.2235 9.59925,0.2235 10.49025,1.1145 C11.38275,2.00775 11.38275,3.45225 10.49025,4.344 C10.047,4.7895 9.46575,5.0115 8.883,5.01225" id="Fill-15" sketch:type="MSShapeGroup"></path>
                <path d="M16.95075,4.344 C16.059,5.2365 14.613,5.2365 13.72125,4.344 C12.828,3.453 12.828,2.00775 13.72125,1.1145 C14.613,0.2235 16.059,0.2235 16.95075,1.1145 C17.8425,2.00775 17.8425,3.45225 16.95075,4.344" id="Fill-16" sketch:type="MSShapeGroup"></path>
            </g>
        </g>
    </g>
</svg>