<?xml version="1.0" encoding="utf-8"?>
<!-- Generator: Adobe Illustrator 18.1.1, SVG Export Plug-In . SVG Version: 6.00 Build 0)  -->
<svg version="1.1" id="Layer_1" xmlns="http://www.w3.org/2000/svg" xmlns:xlink="http://www.w3.org/1999/xlink" x="0px" y="0px"
	 viewBox="0 0 22 22" enable-background="new 0 0 22 22" xml:space="preserve">
<path fill="#FFFFFF" d="M2,8c0,3.3,2.7,6,6,6c1.1,0,2.2-0.3,3-0.8l6.4,6.4c0.3,0.3,0.7,0.4,1.1,0.4s0.8-0.1,1.1-0.4
	c0.6-0.6,0.6-1.5,0-2.1L13.1,11c0.5-0.9,0.8-1.9,0.8-3c0-3.3-2.7-6-6-6S2,4.7,2,8z M4,8c0-2.2,1.8-4,4-4s4,1.8,4,4s-1.8,4-4,4
	S4,10.2,4,8z"/>
</svg>
