<?xml version="1.0" encoding="utf-8"?>
<!-- Generator: Adobe Illustrator 18.1.1, SVG Export Plug-In . SVG Version: 6.00 Build 0)  -->
<svg version="1.1" id="Layer_1" xmlns="http://www.w3.org/2000/svg" xmlns:xlink="http://www.w3.org/1999/xlink" x="0px" y="0px"
	 viewBox="0 0 22 22" enable-background="new 0 0 22 22" xml:space="preserve">
<g>
	<g>
		<path fill="#3D4752" d="M6,6h10v3.6h-0.5c-0.2-1.1-0.6-1.9-0.9-2.2C14.2,7,12,7,12,7v7c0,0.8,0.2,1,0.4,1.2
			c0.3,0.2,0.7,0.3,1.6,0.4V16H8v-0.4c0.9-0.1,1.4-0.2,1.6-0.4C9.9,14.9,10,14.9,10,14V7H8.8C7.6,7,7.9,7,7.4,7.4
			C7,7.7,6.7,8.5,6.5,9.6H6V6z"/>
	</g>
	<g opacity="0.35">
		<path fill="#3D4752" d="M2,2v18h18V2H2z M18,18H4V4h14V18z"/>
	</g>
</g>
</svg>
