<?xml version="1.0" encoding="utf-8"?>
<!-- Generator: Adobe Illustrator 18.1.1, SVG Export Plug-In . SVG Version: 6.00 Build 0)  -->
<svg version="1.1" id="Layer_1" xmlns="http://www.w3.org/2000/svg" xmlns:xlink="http://www.w3.org/1999/xlink" x="0px" y="0px"
	 viewBox="0 0 22 22" enable-background="new 0 0 22 22" xml:space="preserve">
<path fill="#FFFFFF" d="M19.7,16.8l-9.5-7.7c-1-1.1-0.8-3.6-1.1-4.9C9,3,6.3,0.4,2.8,2.7C4.3,3.3,6,4.5,6,4.5L4.3,8.8l-3-2.2
	C0.9,9,2.2,10.5,3,11s3.4-0.3,4.4,0.2c0.9,0.6,2.6,1.6,3.3,2.4c0.7,0.8,6.2,5.8,6.2,5.8s1.8,2,3.2,0.3C21.6,18,19.7,16.8,19.7,16.8z
	"/>
</svg>
