<?xml version="1.0" encoding="utf-8"?>
<!-- Generator: Adobe Illustrator 18.1.1, SVG Export Plug-In . SVG Version: 6.00 Build 0)  -->
<svg version="1.1" id="Layer_1" xmlns="http://www.w3.org/2000/svg" xmlns:xlink="http://www.w3.org/1999/xlink" x="0px" y="0px"
	 viewBox="0 0 22 22" enable-background="new 0 0 22 22" xml:space="preserve">
<g>
	<polygon fill="#3D4752" points="5,5 9,5 9,2 5,2 2,2 2,5 2,9 5,9 	"/>
	<polygon fill="#3D4752" points="17,2 13,2 13,5 17,5 17,9 20,9 20,5 20,2 	"/>
	<polygon fill="#3D4752" points="17,17 13,17 13,20 17,20 20,20 20,17 20,13 17,13 	"/>
	<polygon fill="#3D4752" points="5,13 2,13 2,17 2,20 5,20 9,20 9,17 5,17 	"/>
	<path fill="#3D4752" d="M7,15h8V7H7V15z M8,8h6v6H8V8z"/>
</g>
</svg>
