<?xml version="1.0" encoding="utf-8"?>
<!-- Generator: Adobe Illustrator 18.1.1, SVG Export Plug-In . SVG Version: 6.00 Build 0)  -->
<svg version="1.1" id="Layer_1" xmlns="http://www.w3.org/2000/svg" xmlns:xlink="http://www.w3.org/1999/xlink" x="0px" y="0px"
	 viewBox="0 0 22 22" enable-background="new 0 0 22 22" xml:space="preserve">
<path fill="#3D4752" d="M18,2H4C2.9,2,2,2.9,2,4v14c0,1.1,0.9,2,2,2h7v-7H8v-3h3V8.3c0-2.3,1.3-3.6,3.4-3.6c1,0,2.4,0.2,2.6,0.3v3
	c0,0-0.4-0.5-1.5-0.4S14,8.3,14,9.1V10h3l-0.5,3H14v7h4c1.1,0,2-0.9,2-2V4C20,2.9,19.1,2,18,2z"/>
</svg>
