<?xml version="1.0" encoding="utf-8"?>
<!-- Generator: Adobe Illustrator 18.1.1, SVG Export Plug-In . SVG Version: 6.00 Build 0)  -->
<svg version="1.1" id="Layer_1" xmlns="http://www.w3.org/2000/svg" xmlns:xlink="http://www.w3.org/1999/xlink" x="0px" y="0px"
	 viewBox="0 0 22 22" enable-background="new 0 0 22 22" xml:space="preserve">
<g>
	<path fill="#3D4752" d="M18,2H4C2.9,2,2,2.9,2,4v5h2V7h14v11H4v-3H2v3c0,1.1,0.9,2,2,2h14c1.1,0,2-0.9,2-2V4C20,2.9,19.1,2,18,2z
		 M4,6V4h14v2H4z"/>
	<polygon fill="#3D4752" points="10,16 14,12 10,8 10,11 1,11 1,13 10,13 	"/>
</g>
</svg>
