<?xml version="1.0" encoding="utf-8"?>
<!-- Generator: Adobe Illustrator 18.1.1, SVG Export Plug-In . SVG Version: 6.00 Build 0)  -->
<svg version="1.1" id="Layer_1" xmlns="http://www.w3.org/2000/svg" xmlns:xlink="http://www.w3.org/1999/xlink" x="0px" y="0px"
	 viewBox="0 0 22 22" enable-background="new 0 0 22 22" xml:space="preserve">
<path fill="#3D4752" d="M17,2c-1.7,0-3,1.3-3,3c0,0.5,0.1,0.9,0.3,1.3l-8,8C5.9,14.1,5.5,14,5,14c-1.7,0-3,1.3-3,3s1.3,3,3,3
	s3-1.3,3-3c0-0.5-0.1-0.9-0.3-1.3l8-8C16.1,7.9,16.5,8,17,8c1.7,0,3-1.3,3-3S18.7,2,17,2z"/>
</svg>
