<?xml version="1.0" encoding="utf-8"?>
<!-- Generator: Adobe Illustrator 18.1.1, SVG Export Plug-In . SVG Version: 6.00 Build 0)  -->
<svg version="1.1" id="Layer_1" xmlns="http://www.w3.org/2000/svg" xmlns:xlink="http://www.w3.org/1999/xlink" x="0px" y="0px"
	 viewBox="0 0 22 22" enable-background="new 0 0 22 22" xml:space="preserve">
<path fill="#3D4752" d="M18,1c-1.3,0-2.4,0.8-2.8,2C8.5,3.2,3.2,8.5,3,15.2c-1.2,0.4-2,1.5-2,2.8c0,1.7,1.3,3,3,3s3-1.3,3-3
	c0-1.3-0.8-2.4-2-2.8C5.2,9.6,9.6,5.2,15.2,5c0.4,1.2,1.5,2,2.8,2c1.7,0,3-1.3,3-3S19.7,1,18,1z"/>
</svg>
