<?xml version="1.0" encoding="utf-8"?>
<!-- Generator: Adobe Illustrator 18.1.1, SVG Export Plug-In . SVG Version: 6.00 Build 0)  -->
<svg version="1.1" id="Layer_1" xmlns="http://www.w3.org/2000/svg" xmlns:xlink="http://www.w3.org/1999/xlink" x="0px" y="0px"
	 viewBox="0 0 22 22" enable-background="new 0 0 22 22" xml:space="preserve">
<g>
	<path fill="#3D4752" d="M18.7,3.3c-1.7-1.7-4.5-1.7-6.2,0l-1.6,1.6c0,0,0.7,0,1.5,0.2s1.4,0.5,1.4,0.5l0.5-0.5
		c0.7-0.7,1.9-0.7,2.5,0c0.7,0.7,0.7,1.9,0,2.5l-4.6,4.6c-0.7,0.7-1.9,0.7-2.5,0c-0.1-0.1-0.3-0.3-0.3-0.5l-1.9,1.9
		c0.1,0.2,0.2,0.3,0.4,0.5c1.7,1.7,4.5,1.7,6.2,0l4.6-4.6C20.4,7.8,20.4,5,18.7,3.3z"/>
	<path fill="#3D4752" d="M9.3,17.1C8.5,16.8,8,16.5,8,16.5l-0.4,0.4c-0.7,0.7-1.9,0.7-2.5,0c-0.7-0.7-0.7-1.9,0-2.5l4.6-4.6
		c0.7-0.7,1.9-0.7,2.5,0c0.1,0.1,0.3,0.3,0.3,0.5l1.9-1.9c-0.1-0.2-0.2-0.3-0.4-0.5c-1.7-1.7-4.5-1.7-6.2,0l-4.6,4.6
		c-1.7,1.7-1.7,4.5,0,6.2c1.7,1.7,4.5,1.7,6.2,0l1.4-1.4C10.9,17.3,10.1,17.3,9.3,17.1z"/>
</g>
</svg>
