<?xml version="1.0" encoding="utf-8"?>
<!-- Generator: Adobe Illustrator 18.1.1, SVG Export Plug-In . SVG Version: 6.00 Build 0)  -->
<svg version="1.1" id="Layer_1" xmlns="http://www.w3.org/2000/svg" xmlns:xlink="http://www.w3.org/1999/xlink" x="0px" y="0px"
	 viewBox="0 0 22 22" enable-background="new 0 0 22 22" xml:space="preserve">
<path fill="#FFFFFF" d="M20.6,15.8l-3.1-1l-0.3-1.1c1.1-0.6,1.8-1.9,1.8-3.4c0-2.1-0.5-3.8-3-3.8s-3,1.7-3,3.8
	c0,1.5,0.7,2.9,1.8,3.4l-0.3,1.1L13,15.4L9,13v-1.7c1.2-0.9,2-2.5,2-4.3c0-2.8-0.7-5-4-5S3,4.2,3,7c0,1.8,0.8,3.4,2,4.3V13l-4,2.4
	c-0.6,0.4-1,1-1,1.7V20h11h3h8v-2.3C22,16.8,21.4,16.1,20.6,15.8z"/>
</svg>
