<?xml version="1.0" encoding="utf-8"?>
<!-- Generator: Adobe Illustrator 18.1.1, SVG Export Plug-In . SVG Version: 6.00 Build 0)  -->
<svg version="1.1" id="Layer_1" xmlns="http://www.w3.org/2000/svg" xmlns:xlink="http://www.w3.org/1999/xlink" x="0px" y="0px"
	 viewBox="0 0 22 22" enable-background="new 0 0 22 22" xml:space="preserve">
<path fill="#3D4752" d="M12.4,11l4.3-4.3c0.4-0.4,0.4-1,0-1.4s-1-0.4-1.4,0L11,9.6L6.7,5.3c-0.4-0.4-1-0.4-1.4,0s-0.4,1,0,1.4
	L9.6,11l-4.3,4.3c-0.4,0.4-0.4,1,0,1.4C5.5,16.9,5.7,17,6,17s0.5-0.1,0.7-0.3l4.3-4.3l4.3,4.3c0.2,0.2,0.5,0.3,0.7,0.3
	s0.5-0.1,0.7-0.3c0.4-0.4,0.4-1,0-1.4L12.4,11z"/>
</svg>
