<?xml version="1.0" encoding="UTF-8" standalone="no"?>
<svg width="18px" height="18px" viewBox="0 0 18 18" version="1.1" xmlns="http://www.w3.org/2000/svg" xmlns:xlink="http://www.w3.org/1999/xlink">
    <!-- Generator: Sketch 3.8.3 (29802) - http://www.bohemiancoding.com/sketch -->
    <title>Group</title>
    <desc>Created with Sketch.</desc>
    <defs>
        <circle id="path-1" cx="9" cy="9" r="9"></circle>
        <mask id="mask-2" maskContentUnits="userSpaceOnUse" maskUnits="objectBoundingBox" x="0" y="0" width="18" height="18" fill="white">
            <use xlink:href="#path-1"></use>
        </mask>
    </defs>
    <g id="Page-1" stroke="none" stroke-width="1" fill="none" fill-rule="evenodd">
        <g id="Group">
            <use id="Oval-1-Copy" stroke="#FFFFFF" mask="url(#mask-2)" stroke-width="4" xlink:href="#path-1"></use>
            <path d="M6.084,11.756 C6.57200244,11.2999977 7.01799798,10.874002 7.422,10.478 C7.82600202,10.081998 8.17399854,9.71000174 8.466,9.362 C8.75800146,9.01399826 8.98599918,8.6900015 9.15,8.39 C9.31400082,8.0899985 9.396,7.80400136 9.396,7.532 C9.396,7.15599812 9.30000096,6.87000098 9.108,6.674 C8.91599904,6.47799902 8.65200168,6.38 8.316,6.38 C8.0359986,6.38 7.78800108,6.45799922 7.572,6.614 C7.35599892,6.77000078 7.15200096,6.95199896 6.96,7.16 L6,6.212 C6.37600188,5.811998 6.75999804,5.51000102 7.152,5.306 C7.54400196,5.10199898 8.01199728,5 8.556,5 C8.93200188,5 9.27399846,5.05799942 9.582,5.174 C9.89000154,5.29000058 10.1559989,5.45399894 10.38,5.666 C10.6040011,5.87800106 10.7759994,6.13199852 10.896,6.428 C11.0160006,6.72400148 11.076,7.05599816 11.076,7.424 C11.076,7.7440016 11.0080007,8.06999834 10.872,8.402 C10.7359993,8.73400166 10.5540011,9.06599834 10.326,9.398 C10.0979989,9.73000166 9.83800146,10.0619983 9.546,10.394 C9.25399854,10.7260017 8.95200156,11.0519984 8.64,11.372 C8.83200096,11.3479999 9.04599882,11.3260001 9.282,11.306 C9.51800118,11.2859999 9.72799908,11.276 9.912,11.276 L11.448,11.276 L11.448,12.764 L6.084,12.764 L6.084,11.756 Z" id="2" fill="#FFFFFF"></path>
        </g>
    </g>
</svg>